<svg id="e1w97gc35qn1" xmlns="http://www.w3.org/2000/svg" xmlns:xlink="http://www.w3.org/1999/xlink" viewBox="0 0 481 409" shape-rendering="geometricPrecision" text-rendering="geometricPrecision"><style><![CDATA[#e1w97gc35qn46_to {animation: e1w97gc35qn46_to__to 6000ms linear infinite normal forwards}@keyframes e1w97gc35qn46_to__to { 0% {transform: translate(121.896123px,98.800674px)} 100% {transform: translate(-5.880491px,199.553374px)}} #e1w97gc35qn46 {animation: e1w97gc35qn46_c_o 6000ms linear infinite normal forwards}@keyframes e1w97gc35qn46_c_o { 0% {opacity: 0} 16.666667% {opacity: 1} 83.333333% {opacity: 1} 100% {opacity: 0}} #e1w97gc35qn58_to {animation: e1w97gc35qn58_to__to 6000ms linear infinite normal forwards}@keyframes e1w97gc35qn58_to__to { 0% {transform: translate(371.329651px,55.500822px)} 100% {transform: translate(471.291776px,105.051941px)}} #e1w97gc35qn58 {animation: e1w97gc35qn58_c_o 6000ms linear infinite normal forwards}@keyframes e1w97gc35qn58_c_o { 0% {opacity: 0} 16.666667% {opacity: 1} 83.333333% {opacity: 1} 100% {opacity: 0}} #e1w97gc35qn76 {animation: e1w97gc35qn76_c_o 6000ms linear infinite normal forwards}@keyframes e1w97gc35qn76_c_o { 0% {opacity: 0.5} 8.333333% {opacity: 1} 25% {opacity: 0} 41.666667% {opacity: 1} 58.333333% {opacity: 0} 75% {opacity: 1} 91.666667% {opacity: 0} 100% {opacity: 0.5}} #e1w97gc35qn77 {animation: e1w97gc35qn77_c_o 6000ms linear infinite normal forwards}@keyframes e1w97gc35qn77_c_o { 0% {opacity: 0.09} 15.166667% {opacity: 1} 31.833333% {opacity: 0} 48.5% {opacity: 1} 65.166667% {opacity: 0} 81.833333% {opacity: 1} 100% {opacity: 0.09}} #e1w97gc35qn78 {animation: e1w97gc35qn78_c_o 6000ms linear infinite normal forwards}@keyframes e1w97gc35qn78_c_o { 0% {opacity: 1} 16.833333% {opacity: 1} 33.5% {opacity: 0} 50.166667% {opacity: 1} 66.833333% {opacity: 0} 83.5% {opacity: 1} 100% {opacity: 0.01}} #e1w97gc35qn79 {animation: e1w97gc35qn79_c_o 6000ms linear infinite normal forwards}@keyframes e1w97gc35qn79_c_o { 0% {opacity: 0.36} 22.666667% {opacity: 1} 39.333333% {opacity: 0} 56% {opacity: 1} 72.666667% {opacity: 0} 89.333333% {opacity: 1} 100% {opacity: 0.36}} #e1w97gc35qn80 {animation: e1w97gc35qn80_c_o 6000ms linear infinite normal forwards}@keyframes e1w97gc35qn80_c_o { 0% {opacity: 0.69} 28.166667% {opacity: 1} 44.833333% {opacity: 0} 61.5% {opacity: 1} 78.166667% {opacity: 0} 94.833333% {opacity: 1} 100% {opacity: 0.69}} #e1w97gc35qn81 {animation: e1w97gc35qn81_c_o 6000ms linear infinite normal forwards}@keyframes e1w97gc35qn81_c_o { 0% {opacity: 1} 32.5% {opacity: 1} 49.166667% {opacity: 0} 65.833333% {opacity: 1} 82.5% {opacity: 0} 99.166667% {opacity: 1} 100% {opacity: 1}} #e1w97gc35qn82 {animation: e1w97gc35qn82_c_o 6000ms linear infinite normal forwards}@keyframes e1w97gc35qn82_c_o { 0% {opacity: 1} 35% {opacity: 1} 51.666667% {opacity: 0} 68.333333% {opacity: 1} 85% {opacity: 0} 100% {opacity: 0.9}} #e1w97gc35qn83 {animation: e1w97gc35qn83_c_o 6000ms linear infinite normal forwards}@keyframes e1w97gc35qn83_c_o { 0% {opacity: 0.66} 39% {opacity: 1} 55.666667% {opacity: 0} 72.333333% {opacity: 1} 89% {opacity: 0} 100% {opacity: 0.66}} #e1w97gc35qn84 {animation: e1w97gc35qn84_c_o 6000ms linear infinite normal forwards}@keyframes e1w97gc35qn84_c_o { 0% {opacity: 0.68} 5.333333% {opacity: 1} 22% {opacity: 0} 38.666667% {opacity: 1} 55.333333% {opacity: 0} 72% {opacity: 1} 88.666667% {opacity: 0} 100% {opacity: 0.68}} #e1w97gc35qn85 {animation: e1w97gc35qn85_c_o 6000ms linear infinite normal forwards}@keyframes e1w97gc35qn85_c_o { 0% {opacity: 1} 16.666667% {opacity: 0} 33.333333% {opacity: 1} 50% {opacity: 0} 66.666667% {opacity: 1} 83.333333% {opacity: 0} 100% {opacity: 1}} #e1w97gc35qn87_to {animation: e1w97gc35qn87_to__to 6000ms linear infinite normal forwards}@keyframes e1w97gc35qn87_to__to { 0% {transform: translate(307.383499px,100.806px)} 49.833333% {transform: translate(231.383499px,100.806px)} 100% {transform: translate(307.383499px,100.806px)}} #e1w97gc35qn90_to {animation: e1w97gc35qn90_to__to 6000ms linear infinite normal forwards}@keyframes e1w97gc35qn90_to__to { 0% {transform: translate(443.663498px,116.776655px)} 49.833333% {transform: translate(381.663498px,133.776655px)} 100% {transform: translate(443.663498px,116.776655px)}} #e1w97gc35qn153_to {animation: e1w97gc35qn153_to__to 6000ms linear infinite normal forwards}@keyframes e1w97gc35qn153_to__to { 0% {transform: translate(223.817001px,229.980003px)} 49.833333% {transform: translate(230.713999px,229.980003px)} 100% {transform: translate(223.817001px,229.980003px)}} #e1w97gc35qn153_ts {animation: e1w97gc35qn153_ts__ts 6000ms linear infinite normal forwards}@keyframes e1w97gc35qn153_ts__ts { 0% {transform: scale(1,1)} 49.833333% {transform: scale(1.442257,1)} 100% {transform: scale(1,1)}} #e1w97gc35qn154_to {animation: e1w97gc35qn154_to__to 6000ms linear infinite normal forwards}@keyframes e1w97gc35qn154_to__to { 0% {transform: translate(217.015503px,212.129997px)} 49.833333% {transform: translate(221.015503px,212.129997px)} 100% {transform: translate(217.015503px,212.129997px)}} #e1w97gc35qn154_tr {animation: e1w97gc35qn154_tr__tr 6000ms linear infinite normal forwards}@keyframes e1w97gc35qn154_tr__tr { 0% {transform: rotate(-1.184402deg)} 49.833333% {transform: rotate(-6.710106deg)} 100% {transform: rotate(-1.184402deg)}} #e1w97gc35qn154_ts {animation: e1w97gc35qn154_ts__ts 6000ms linear infinite normal forwards}@keyframes e1w97gc35qn154_ts__ts { 0% {transform: scale(1.105329,1)} 49.833333% {transform: scale(1.656712,1.114411)} 100% {transform: scale(1.105329,1)}} #e1w97gc35qn155_to {animation: e1w97gc35qn155_to__to 6000ms linear infinite normal forwards}@keyframes e1w97gc35qn155_to__to { 0% {transform: translate(256.783997px,212.129997px)} 16.5% {transform: translate(256.783997px,212.129997px)} 66.5% {transform: translate(264.783997px,212.129997px)} 100% {transform: translate(264.783997px,212.129997px)}}]]></style><defs><linearGradient id="e1w97gc35qn5-fill" x1="240.5" y1="409" x2="240.5" y2="258" spreadMethod="pad" gradientUnits="userSpaceOnUse" gradientTransform="matrix(1 0 0 1 0 0)"><stop id="e1w97gc35qn5-fill-0" offset="0%" stop-color="rgb(163,163,163)"/><stop id="e1w97gc35qn5-fill-1" offset="100%" stop-color="rgb(23,23,23)"/></linearGradient><linearGradient id="e1w97gc35qn44-fill" x1="220.573" y1="31.2425" x2="278.028" y2="219.898" spreadMethod="pad" gradientUnits="userSpaceOnUse" gradientTransform="matrix(1 0 0 1 0 0)"><stop id="e1w97gc35qn44-fill-0" offset="0%" stop-color="rgb(118,70,255)"/><stop id="e1w97gc35qn44-fill-1" offset="100%" stop-color="rgb(177,55,255)"/></linearGradient></defs><path id="e1w97gc35qn2" d="M71.8119,329.999C71.4088,329.288,71.1169,328.503,70.9877,327.679C70.9088,327.174,70.7651,326.699,70.623,326.229C70.2843,325.109,69.9544,324.019,70.5307,322.627C71.2102,320.983,72.6445,320.143,74.1565,319.65C80.1669,317.693,86.3485,320.61,92.317,323.427C95.4515,324.906,98.5271,326.358,101.488,327.061C105.211,327.945,109.022,328.316,112.812,328.663C113.7,328.745,114.594,328.821,115.491,328.897C122.124,329.459,128.955,330.038,135.045,333.083C138.587,334.853,140.836,337.585,143.093,340.327C145.037,342.688,146.988,345.057,149.775,346.827C155.74,350.617,163.775,351.424,171.405,352.191C173.09,352.36,174.755,352.528,176.374,352.725C193.025,354.75,201.229,361.091,212.068,372.103C218.455,378.591,224.309,384.396,233.847,387.12C236.22,387.798,239.048,388.164,241.983,388.543C248.916,389.438,256.444,390.411,259.975,395.766C263.3,400.809,258.064,406.042,251.921,407.703C244.889,409.605,238.506,406.848,232.771,404.37C232.119,404.089,231.476,403.811,230.842,403.544C229.658,403.047,228.792,402.485,227.979,401.958C226.614,401.074,225.398,400.285,223.079,400.057C219.626,399.717,218.464,400.543,217.094,401.518C216.225,402.136,215.271,402.815,213.593,403.293C206.077,405.434,203.351,403.74,199.445,401.312C197.938,400.375,196.255,399.329,194.054,398.352C186.757,395.113,183.388,397.207,178.255,400.399C177.322,400.979,176.331,401.595,175.248,402.222C168.833,405.935,156.835,408.738,148.692,408.983C129.327,409.566,113.609,394.999,106.386,381.231C103.76,376.225,103.062,370.741,102.374,365.327C101.218,356.24,100.087,347.352,89.9087,341.266C87.7876,339.997,85.5193,339.063,83.2953,338.147C78.7286,336.266,74.3484,334.462,71.8119,329.999ZM1.28726,235.023C-2.41152,227.422,2.67253,214.844,6.32466,212.137C17.3168,203.991,20.8478,216.149,23.2343,224.365C24.0776,227.269,24.7779,229.68,25.6141,230.53C28.8165,233.781,35.7571,252.553,27.3176,259.146C18.878,265.739,12.2939,259.24,10.2184,250.813C9.0078,245.901,7.43047,243.933,5.5926,241.64C4.27786,240,2.82979,238.193,1.28726,235.023ZM406.843,53.707C409.444,54.4501,412.201,55.2377,415.226,56.3848C421.67,58.8296,424.067,60.9961,424.139,64.2352C424.234,68.5485,420.357,71.6499,416.596,70.373C416.141,70.2187,415.686,70.0632,415.231,69.9076C409.985,68.1154,404.693,66.3074,399.478,66.0583C395.458,65.8661,391.357,66.7294,387.326,67.578C383.928,68.2933,380.579,68.9983,377.37,69.0523C373.093,69.1242,368.14,66.7745,363.044,64.3572C355.058,60.5685,346.721,56.6137,340.089,61.5559C339.012,62.3578,337.711,62.7314,336.413,62.6164C332.409,62.2627,328.33,59.1398,324.402,56.1321C321.576,53.969,318.829,51.8654,316.243,50.8945C313.695,49.9373,310.628,49.4341,307.535,48.9265C302.077,48.0308,296.536,47.1215,293.61,43.681C285.299,33.9109,298.895,33.7991,309.103,33.7152C312.726,33.6854,315.923,33.6591,317.561,33.2057C322.311,31.8916,326.068,29.6075,329.463,27.5438C336.682,23.1545,342.26,19.7629,352.266,28.8259C354.102,30.4892,355.527,32.09,356.842,33.5662C360.369,37.5268,363.097,40.5904,370.813,41.5569C374.054,41.9634,376.481,42.0116,378.508,42.0518C383.257,42.146,385.812,42.1967,391.487,46.7083C396.616,50.785,401.387,52.1481,406.843,53.707ZM453.631,125.458C458.995,127.773,464.49,130.144,469.591,133.919C487.027,146.823,485.103,175.825,459.488,179.955C445.58,182.199,432.311,187.264,444.665,199.753C446.067,201.171,447.438,202.439,448.732,203.635C454.267,208.754,458.391,212.568,457.549,221.245C456.929,227.643,454.54,231.239,451.872,235.255C450.375,237.507,448.791,239.892,447.381,242.978C444.014,250.35,446.558,254.876,449.49,260.092C450.715,262.271,452.008,264.571,452.965,267.249C460.058,287.094,437.42,294.038,419.484,299.54C416.923,300.325,414.458,301.081,412.189,301.841C403.193,304.855,393.459,310.256,393.586,319.659C393.707,328.726,399.725,334.4,406.013,340.33C407.416,341.653,408.833,342.989,410.201,344.378C416.701,350.982,423.808,359.719,419.395,368.221C414.504,377.648,406.902,381.156,395.906,379.111C387.672,377.58,380.903,373.672,374.066,369.726C370.217,367.505,366.347,365.271,362.182,363.442C359.546,362.284,356.779,360.805,353.926,359.28C346.712,355.424,338.944,351.271,331.335,351.269C328.253,351.269,325.794,352,323.218,352.766C321.125,353.388,318.954,354.033,316.31,354.328C311.128,354.906,305.994,354.356,300.996,353.821C298.803,353.586,296.636,353.354,294.502,353.221C286.761,352.738,280.207,350.061,273.704,347.404C267.239,344.762,260.824,342.141,253.341,341.717C245.557,341.275,238.509,343.132,231.395,345.007C225.727,346.5,220.018,348.005,213.859,348.367C200.596,349.15,188.107,345.794,177.306,339.562C172.772,336.946,168.795,333.461,164.839,329.994C160.452,326.15,156.09,322.328,151.019,319.734C146.263,317.301,139.281,315.57,133.294,314.085C131.999,313.764,130.751,313.454,129.582,313.152C122.37,311.286,114.751,310.06,107.175,308.842C101.176,307.877,95.2028,306.916,89.4804,305.645C64.0913,300.006,51.2568,285.434,46.6848,262.529C45.4908,256.547,45.0916,250.857,44.7095,245.409C43.7722,232.048,42.9373,220.145,30.7304,208.977C29.9533,208.266,29.1612,207.56,28.3688,206.854C21.7141,200.923,15.0358,194.971,17.0155,185.778C17.7972,182.148,19.2244,179.447,20.5973,176.848C22.4282,173.382,24.1627,170.099,24.1415,165.039C24.1379,164.02,23.9071,163.017,23.4752,162.113C18.8505,152.449,13.3287,140.665,14.3,133.213C17.331,109.956,39.1841,106.26,61.2163,102.534C76.0535,100.025,90.9718,97.5015,100.278,88.9817C106.358,83.415,105.891,75.4518,105.425,67.5098C105.118,62.2744,104.811,57.0482,106.381,52.5239C106.918,50.975,107.958,49.3577,108.971,47.7823C110.075,46.0664,111.146,44.4003,111.501,42.9261C112.126,40.3309,111.652,37.3383,111.19,34.4289C110.92,32.7232,110.654,31.0462,110.617,29.4946C109.802,-4.49411,159.457,-5.62576,184.607,8.61813C187.936,10.5041,190.983,12.7212,194.022,14.9327C197.161,17.2166,200.292,19.4945,203.717,21.3961C205.366,22.3116,207.257,23.5241,209.265,24.8108C213.856,27.7531,219.052,31.0839,223.335,32.1407C225.835,32.7571,228.276,32.7787,230.746,32.8006C233.939,32.8288,237.18,32.8575,240.658,34.171C247.392,36.7126,253.519,39.7399,258.311,44.3815C268.299,54.0564,276.434,59.7056,292.597,58.9643C308.199,58.2487,317.866,60.7102,329.779,69.0825C341.351,77.2174,357.627,76.4462,372.452,75.7438C373.585,75.6901,374.71,75.6369,375.823,75.588C391.713,74.8905,402.533,77.8059,412.927,87.1299C417.771,91.4759,421.376,96.5551,425.006,101.669C428.087,106.011,431.187,110.378,435.078,114.342C440.371,119.735,446.899,122.552,453.631,125.458Z" clip-rule="evenodd" fill="rgb(233,241,242)" fill-rule="evenodd" stroke="none" stroke-width="1"/><g id="e1w97gc35qn3" mask="url(#e1w97gc35qn156)"><g id="e1w97gc35qn4"><path id="e1w97gc35qn5" d="M71.8119,329.999C71.4088,329.288,71.1169,328.503,70.9877,327.679C70.9088,327.174,70.7651,326.699,70.623,326.229C70.2843,325.109,69.9544,324.019,70.5307,322.627C71.2102,320.983,72.6445,320.143,74.1565,319.65C80.1669,317.693,86.3485,320.61,92.317,323.427C95.4515,324.906,98.5271,326.358,101.488,327.061C105.211,327.945,109.022,328.316,112.812,328.663C113.7,328.745,114.594,328.821,115.491,328.897C122.124,329.459,128.955,330.038,135.045,333.083C138.587,334.853,140.836,337.585,143.093,340.327C145.037,342.688,146.988,345.057,149.775,346.827C155.74,350.617,163.775,351.424,171.405,352.191C173.09,352.36,174.755,352.528,176.374,352.725C193.025,354.75,201.229,361.091,212.068,372.103C218.455,378.591,224.309,384.396,233.847,387.12C236.22,387.798,239.048,388.164,241.983,388.543C248.916,389.438,256.444,390.411,259.975,395.766C263.3,400.809,258.064,406.042,251.921,407.703C244.889,409.605,238.506,406.848,232.771,404.37C232.119,404.089,231.476,403.811,230.842,403.544C229.658,403.047,228.792,402.485,227.979,401.958C226.614,401.074,225.398,400.285,223.079,400.057C219.626,399.717,218.464,400.543,217.094,401.518C216.225,402.136,215.271,402.815,213.593,403.293C206.077,405.434,203.351,403.74,199.445,401.312C197.938,400.375,196.255,399.329,194.054,398.352C186.757,395.113,183.388,397.207,178.255,400.399C177.322,400.979,176.331,401.595,175.248,402.222C168.833,405.935,156.835,408.738,148.692,408.983C129.327,409.566,113.609,394.999,106.386,381.231C103.76,376.225,103.062,370.741,102.374,365.327C101.218,356.24,100.087,347.352,89.9087,341.266C87.7876,339.997,85.5193,339.063,83.2953,338.147C78.7286,336.266,74.3484,334.462,71.8119,329.999ZM1.28726,235.023C-2.41152,227.422,2.67253,214.844,6.32466,212.137C17.3168,203.991,20.8478,216.149,23.2343,224.365C24.0776,227.269,24.7779,229.68,25.6141,230.53C28.8165,233.781,35.7571,252.553,27.3176,259.146C18.878,265.739,12.2939,259.24,10.2184,250.813C9.0078,245.901,7.43047,243.933,5.5926,241.64C4.27786,239.999,2.82979,238.193,1.28726,235.023ZM406.843,53.707C409.444,54.4501,412.201,55.2377,415.226,56.3848C421.67,58.8296,424.067,60.9961,424.139,64.2352C424.234,68.5485,420.357,71.6499,416.596,70.373C416.141,70.2187,415.686,70.0632,415.231,69.9076C409.985,68.1154,404.693,66.3074,399.478,66.0583C395.458,65.8661,391.358,66.7294,387.326,67.578C383.928,68.2933,380.579,68.9983,377.37,69.0523C373.093,69.1242,368.14,66.7745,363.044,64.3572C355.058,60.5685,346.721,56.6137,340.089,61.5559C339.012,62.3578,337.711,62.7314,336.413,62.6164C332.409,62.2627,328.33,59.1398,324.402,56.1321C321.576,53.969,318.829,51.8654,316.243,50.8945C313.695,49.9373,310.628,49.4341,307.535,48.9265C302.077,48.0308,296.536,47.1215,293.61,43.681C285.299,33.9109,298.895,33.7991,309.103,33.7152C312.726,33.6854,315.923,33.6591,317.561,33.2057C322.311,31.8916,326.068,29.6075,329.463,27.5438C336.682,23.1545,342.26,19.7629,352.266,28.8259C354.102,30.4892,355.527,32.09,356.842,33.5662C360.369,37.5268,363.097,40.5904,370.813,41.5569C374.054,41.9633,376.481,42.0115,378.508,42.0518C383.257,42.146,385.812,42.1967,391.487,46.7083C396.616,50.785,401.387,52.1481,406.843,53.707ZM453.631,125.458C458.995,127.773,464.49,130.144,469.591,133.919C487.027,146.823,485.103,175.825,459.488,179.955C445.58,182.199,432.311,187.264,444.665,199.753C446.067,201.171,447.438,202.439,448.732,203.635C454.267,208.754,458.391,212.568,457.549,221.245C456.929,227.643,454.54,231.239,451.872,235.255C450.375,237.507,448.791,239.892,447.381,242.978C444.014,250.35,446.558,254.876,449.49,260.092C450.715,262.271,452.008,264.571,452.965,267.249C460.058,287.094,437.42,294.038,419.484,299.54C416.923,300.325,414.458,301.081,412.189,301.841C403.193,304.855,393.459,310.256,393.586,319.659C393.707,328.726,399.725,334.4,406.013,340.33C407.416,341.653,408.833,342.989,410.201,344.378C416.701,350.982,423.808,359.719,419.395,368.221C414.504,377.648,406.902,381.156,395.906,379.111C387.672,377.58,380.903,373.672,374.066,369.726C370.217,367.505,366.347,365.271,362.182,363.442C359.546,362.284,356.779,360.805,353.926,359.28C346.712,355.424,338.944,351.271,331.335,351.269C328.253,351.269,325.794,352,323.218,352.766C321.125,353.388,318.954,354.033,316.31,354.328C311.128,354.906,305.994,354.356,300.996,353.821C298.803,353.586,296.636,353.354,294.502,353.221C286.761,352.738,280.207,350.061,273.704,347.404C267.239,344.762,260.824,342.141,253.341,341.717C245.557,341.275,238.509,343.132,231.395,345.007C225.727,346.5,220.018,348.005,213.859,348.367C200.596,349.15,188.107,345.794,177.306,339.562C172.772,336.946,168.795,333.461,164.839,329.994C160.452,326.15,156.09,322.328,151.019,319.734C146.263,317.301,139.281,315.57,133.294,314.085C131.999,313.764,130.751,313.454,129.582,313.152C122.37,311.286,114.751,310.06,107.175,308.842C101.176,307.877,95.2028,306.916,89.4804,305.645C64.0913,300.006,51.2568,285.434,46.6848,262.529C45.4908,256.547,45.0916,250.857,44.7095,245.409C43.7722,232.048,42.9373,220.145,30.7304,208.977C29.9533,208.266,29.1612,207.56,28.3688,206.854C21.7141,200.923,15.0358,194.971,17.0155,185.778C17.7972,182.148,19.2244,179.447,20.5973,176.848C22.4282,173.382,24.1627,170.099,24.1415,165.039C24.1379,164.02,23.9071,163.017,23.4752,162.113C18.8505,152.449,13.3287,140.665,14.3,133.213C17.331,109.956,39.1841,106.26,61.2163,102.534C76.0535,100.025,90.9718,97.5015,100.278,88.9817C106.358,83.415,105.891,75.4518,105.425,67.5098C105.118,62.2744,104.811,57.0482,106.381,52.5239C106.918,50.975,107.958,49.3577,108.971,47.7823C110.075,46.0664,111.146,44.4003,111.501,42.9261C112.126,40.3309,111.652,37.3383,111.19,34.4289C110.92,32.7232,110.654,31.0462,110.617,29.4946C109.802,-4.49411,159.457,-5.62576,184.607,8.61813C187.936,10.5041,190.983,12.7212,194.022,14.9327C197.161,17.2166,200.292,19.4945,203.717,21.3961C205.366,22.3116,207.257,23.5241,209.265,24.8108C213.856,27.7531,219.052,31.0839,223.335,32.1407C225.835,32.757,228.276,32.7787,230.746,32.8006C233.939,32.8289,237.18,32.8575,240.658,34.171C247.392,36.7126,253.519,39.7399,258.311,44.3815C268.299,54.0565,276.434,59.7056,292.597,58.9643C308.199,58.2487,317.866,60.7102,329.779,69.0825C341.351,77.2174,357.627,76.4462,372.452,75.7438C373.585,75.6901,374.71,75.6369,375.823,75.588C391.713,74.8905,402.533,77.8059,412.927,87.1299C417.771,91.4759,421.376,96.5551,425.006,101.669C428.087,106.011,431.187,110.378,435.078,114.342C440.371,119.735,446.899,122.552,453.631,125.458Z" clip-rule="evenodd" fill="url(#e1w97gc35qn5-fill)" fill-rule="evenodd" stroke="none" stroke-width="1"/><path id="e1w97gc35qn6" d="M633.756,-25.9998L-141,-25.9998L-141,335.833L633.756,335.833L633.756,-25.9998Z" transform="matrix(1 0 0 1 0 -0.0002)" fill="rgb(146,146,146)" stroke="none" stroke-width="1"/><path id="e1w97gc35qn7" d="M633.756,335.833L-141,335.833L-141,345.474L633.756,345.474L633.756,335.833Z" fill="rgb(72,72,72)" stroke="none" stroke-width="1"/><path id="e1w97gc35qn8" d="M424.039,-26L424.039,12.4565L429.613,16.4427L633.757,16.4427L633.757,18.8825L429.227,18.8825C428.983,18.8789,428.737,18.8065,428.522,18.6546L422.185,14.124C421.834,13.9106,421.597,13.5218,421.597,13.0805L421.597,-26L424.039,-26Z" clip-rule="evenodd" fill="rgb(115,115,115)" fill-rule="evenodd" stroke="none" stroke-width="1"/><path id="e1w97gc35qn9" d="M415.618,-26L415.618,16.506L426.818,24.5145L633.756,24.5145L633.756,26.9543L426.433,26.9543C426.189,26.9507,425.941,26.8783,425.728,26.7264L413.766,18.1735C413.416,17.9601,413.179,17.5712,413.179,17.1299L413.179,-26L415.618,-26Z" clip-rule="evenodd" fill="rgb(115,115,115)" fill-rule="evenodd" stroke="none" stroke-width="1"/><path id="e1w97gc35qn10" d="M68.7177,-25.9998L68.7177,12.4567L63.144,16.4429L-141,16.4429L-141,18.8827L63.5292,18.8827C63.7733,18.8791,64.0211,18.8068,64.2345,18.6548L70.5714,14.1243C70.9223,13.9109,71.1574,13.522,71.1574,13.0807L71.1574,-25.9998L68.7177,-25.9998Z" clip-rule="evenodd" fill="rgb(115,115,115)" fill-rule="evenodd" stroke="none" stroke-width="1"/><path id="e1w97gc35qn11" d="M77.138,-25.9998L77.138,16.5062L65.9381,24.5147L-141,24.5147L-141,26.9545L66.3233,26.9545C66.5674,26.9509,66.8152,26.8786,67.0286,26.7267L78.9917,18.1737C79.3426,17.9603,79.5795,17.5715,79.5795,17.1302L79.5795,-25.9998L77.138,-25.9998Z" clip-rule="evenodd" fill="rgb(115,115,115)" fill-rule="evenodd" stroke="none" stroke-width="1"/><path id="e1w97gc35qn12" d="M-141,307.763L68.7177,307.763L68.7177,240.282L63.144,236.296L-141,236.296L-141,233.856L63.5292,233.856C63.7733,233.86,64.0211,233.932,64.2345,234.086L70.5714,238.616C70.9223,238.83,71.1574,239.218,71.1574,239.66L71.1574,308.986C71.1574,309.658,70.6112,310.206,69.9367,310.206L-141,310.206L-141,307.763Z" clip-rule="evenodd" fill="rgb(104,104,104)" fill-rule="evenodd" stroke="none" stroke-width="1"/><path id="e1w97gc35qn13" d="M-141,315.835L77.138,315.835L77.138,236.232L65.9381,228.224L-141,228.224L-141,225.784L66.3233,225.784C66.5674,225.788,66.8152,225.86,67.0286,226.014L78.9917,234.567C79.3426,234.78,79.5795,235.169,79.5795,235.61L79.5795,317.057C79.5795,317.73,79.0333,318.278,78.3588,318.278L-141,318.278L-141,315.835Z" clip-rule="evenodd" fill="rgb(104,104,104)" fill-rule="evenodd" stroke="none" stroke-width="1"/><path id="e1w97gc35qn14" d="M633.757,307.763L424.039,307.763L424.039,240.282L429.613,236.296L633.757,236.296L633.757,233.856L429.227,233.856C428.983,233.86,428.737,233.932,428.522,234.086L422.185,238.616C421.834,238.83,421.597,239.218,421.597,239.66L421.597,308.986C421.597,309.658,422.144,310.206,422.818,310.206L633.757,310.206L633.757,307.763Z" clip-rule="evenodd" fill="rgb(104,104,104)" fill-rule="evenodd" stroke="none" stroke-width="1"/><path id="e1w97gc35qn15" d="M633.756,315.835L415.618,315.835L415.618,236.232L426.818,228.224L633.756,228.224L633.756,225.784L426.433,225.784C426.189,225.788,425.941,225.86,425.728,226.014L413.766,234.567C413.416,234.78,413.179,235.169,413.179,235.61L413.179,317.057C413.179,317.73,413.725,318.278,414.399,318.278L633.756,318.278L633.756,315.835Z" clip-rule="evenodd" fill="rgb(104,104,104)" fill-rule="evenodd" stroke="none" stroke-width="1"/><path id="e1w97gc35qn16" d="M102.567,280.762L180.641,280.762C182.829,280.762,184.616,282.551,184.616,284.738L184.616,314.406C184.616,316.593,182.829,318.379,180.641,318.379L102.567,318.379C100.38,318.379,98.5918,316.591,98.5918,314.406L98.5918,284.738C98.5936,282.551,100.38,280.762,102.567,280.762Z" clip-rule="evenodd" fill="rgb(72,72,72)" fill-rule="evenodd" stroke="none" stroke-width="1"/><path id="e1w97gc35qn17" d="M102.357,282.847L178.764,282.847C180.833,282.847,182.526,284.54,182.526,286.611L182.526,314.695C182.526,316.766,180.833,318.459,178.764,318.459L102.357,318.459C100.287,318.459,98.5938,316.766,98.5938,314.695L98.5938,286.611C98.5938,284.54,100.287,282.847,102.357,282.847Z" clip-rule="evenodd" fill="rgb(112,112,112)" fill-rule="evenodd" stroke="none" stroke-width="1"/><path id="e1w97gc35qn18" d="M105.676,282.847L179.196,282.847C181.028,282.847,182.526,284.347,182.526,286.177L182.526,311.029C182.526,312.861,181.028,314.359,179.196,314.359L105.676,314.359C103.844,314.359,102.346,312.861,102.346,311.029L102.346,286.177C102.346,284.347,103.844,282.847,105.676,282.847Z" clip-rule="evenodd" fill="rgb(54,54,54)" fill-rule="evenodd" stroke="none" stroke-width="1"/><path id="e1w97gc35qn19" d="M108.285,286.221L125.005,286.221C125.533,286.221,125.963,286.653,125.963,287.179L125.963,292.184C125.963,292.712,125.533,293.142,125.005,293.142L108.285,293.142C107.757,293.142,107.325,292.712,107.325,292.184L107.325,287.179C107.325,286.653,107.757,286.221,108.285,286.221Z" clip-rule="evenodd" fill="rgb(132,132,132)" fill-rule="evenodd" stroke="none" stroke-width="1"/><path id="e1w97gc35qn20" d="M134.076,286.221L150.796,286.221C151.324,286.221,151.754,286.653,151.754,287.179L151.754,292.184C151.754,292.712,151.324,293.142,150.796,293.142L134.076,293.142C133.548,293.142,133.116,292.712,133.116,292.184L133.116,287.179C133.118,286.653,133.548,286.221,134.076,286.221Z" clip-rule="evenodd" fill="rgb(255,255,255)" fill-rule="evenodd" stroke="none" stroke-width="1"/><path id="e1w97gc35qn21" d="M159.869,286.221L176.588,286.221C177.116,286.221,177.547,286.653,177.547,287.179L177.547,292.184C177.547,292.712,177.116,293.142,176.588,293.142L159.869,293.142C159.341,293.142,158.908,292.712,158.908,292.184L158.908,287.179C158.908,286.653,159.341,286.221,159.869,286.221Z" clip-rule="evenodd" fill="rgb(132,132,132)" fill-rule="evenodd" stroke="none" stroke-width="1"/><path id="e1w97gc35qn22" d="M108.374,297.408L111.305,297.408C111.882,297.408,112.354,297.881,112.354,298.457L112.354,300.212C112.354,300.789,111.882,301.261,111.305,301.261L108.374,301.261C107.797,301.261,107.325,300.789,107.325,300.212L107.325,298.457C107.325,297.881,107.797,297.408,108.374,297.408Z" clip-rule="evenodd" fill="rgb(255,255,255)" fill-rule="evenodd" stroke="none" stroke-width="1"/><path id="e1w97gc35qn23" d="M116.523,297.408L119.454,297.408C120.031,297.408,120.503,297.881,120.503,298.457L120.503,300.212C120.503,300.789,120.031,301.261,119.454,301.261L116.523,301.261C115.946,301.261,115.474,300.789,115.474,300.212L115.474,298.457C115.474,297.881,115.946,297.408,116.523,297.408Z" clip-rule="evenodd" fill="rgb(255,255,255)" fill-rule="evenodd" stroke="none" stroke-width="1"/><path id="e1w97gc35qn24" d="M124.672,297.408L127.604,297.408C128.18,297.408,128.652,297.881,128.652,298.457L128.652,300.212C128.652,300.789,128.18,301.261,127.604,301.261L124.672,301.261C124.095,301.261,123.623,300.789,123.623,300.212L123.623,298.457C123.623,297.881,124.095,297.408,124.672,297.408Z" clip-rule="evenodd" fill="rgb(255,255,255)" fill-rule="evenodd" stroke="none" stroke-width="1"/><path id="e1w97gc35qn25" d="M132.821,297.408L135.753,297.408C136.33,297.408,136.802,297.881,136.802,298.457L136.802,300.212C136.802,300.789,136.33,301.261,135.753,301.261L132.821,301.261C132.244,301.261,131.772,300.789,131.772,300.212L131.772,298.457C131.772,297.881,132.244,297.408,132.821,297.408Z" clip-rule="evenodd" fill="rgb(255,255,255)" fill-rule="evenodd" stroke="none" stroke-width="1"/><path id="e1w97gc35qn26" d="M140.97,297.408L143.902,297.408C144.478,297.408,144.95,297.881,144.95,298.457L144.95,300.212C144.95,300.789,144.478,301.261,143.902,301.261L140.97,301.261C140.393,301.261,139.921,300.789,139.921,300.212L139.921,298.457C139.921,297.881,140.393,297.408,140.97,297.408Z" clip-rule="evenodd" fill="rgb(255,255,255)" fill-rule="evenodd" stroke="none" stroke-width="1"/><path id="e1w97gc35qn27" d="M149.119,297.408L152.051,297.408C152.628,297.408,153.101,297.881,153.101,298.457L153.101,300.212C153.101,300.789,152.629,301.261,152.051,301.261L149.119,301.261C148.542,301.261,148.07,300.789,148.07,300.212L148.07,298.457C148.07,297.881,148.542,297.408,149.119,297.408Z" clip-rule="evenodd" fill="rgb(255,255,255)" fill-rule="evenodd" stroke="none" stroke-width="1"/><path id="e1w97gc35qn28" d="M157.268,297.408L160.2,297.408C160.777,297.408,161.249,297.881,161.249,298.457L161.249,300.212C161.249,300.789,160.777,301.261,160.2,301.261L157.268,301.261C156.691,301.261,156.219,300.789,156.219,300.212L156.219,298.457C156.219,297.881,156.691,297.408,157.268,297.408Z" clip-rule="evenodd" fill="rgb(255,255,255)" fill-rule="evenodd" stroke="none" stroke-width="1"/><path id="e1w97gc35qn29" d="M165.417,297.408L168.351,297.408C168.928,297.408,169.4,297.881,169.4,298.457L169.4,300.212C169.4,300.789,168.928,301.261,168.351,301.261L165.417,301.261C164.84,301.261,164.368,300.789,164.368,300.212L164.368,298.457C164.367,297.881,164.84,297.408,165.417,297.408Z" clip-rule="evenodd" fill="rgb(255,255,255)" fill-rule="evenodd" stroke="none" stroke-width="1"/><path id="e1w97gc35qn30" d="M173.567,297.408L176.498,297.408C177.075,297.408,177.547,297.881,177.547,298.457L177.547,300.212C177.547,300.789,177.075,301.261,176.498,301.261L173.567,301.261C172.99,301.261,172.518,300.789,172.518,300.212L172.518,298.457C172.516,297.881,172.988,297.408,173.567,297.408Z" clip-rule="evenodd" fill="rgb(255,255,255)" fill-rule="evenodd" stroke="none" stroke-width="1"/><path id="e1w97gc35qn31" d="M108.374,305.352L111.305,305.352C111.882,305.352,112.354,305.824,112.354,306.401L112.354,308.155C112.354,308.732,111.882,309.204,111.305,309.204L108.374,309.204C107.797,309.204,107.325,308.732,107.325,308.155L107.325,306.401C107.325,305.824,107.797,305.352,108.374,305.352Z" clip-rule="evenodd" fill="rgb(255,255,255)" fill-rule="evenodd" stroke="none" stroke-width="1"/><path id="e1w97gc35qn32" d="M116.523,305.352L119.454,305.352C120.031,305.352,120.503,305.824,120.503,306.401L120.503,308.155C120.503,308.732,120.031,309.204,119.454,309.204L116.523,309.204C115.946,309.204,115.474,308.732,115.474,308.155L115.474,306.401C115.474,305.824,115.946,305.352,116.523,305.352Z" clip-rule="evenodd" fill="rgb(255,255,255)" fill-rule="evenodd" stroke="none" stroke-width="1"/><path id="e1w97gc35qn33" d="M124.672,305.352L127.604,305.352C128.18,305.352,128.652,305.824,128.652,306.401L128.652,308.155C128.652,308.732,128.18,309.204,127.604,309.204L124.672,309.204C124.095,309.204,123.623,308.732,123.623,308.155L123.623,306.401C123.623,305.824,124.095,305.352,124.672,305.352Z" clip-rule="evenodd" fill="rgb(255,255,255)" fill-rule="evenodd" stroke="none" stroke-width="1"/><path id="e1w97gc35qn34" d="M132.821,305.352L135.753,305.352C136.33,305.352,136.802,305.824,136.802,306.401L136.802,308.155C136.802,308.732,136.33,309.204,135.753,309.204L132.821,309.204C132.244,309.204,131.772,308.732,131.772,308.155L131.772,306.401C131.772,305.824,132.244,305.352,132.821,305.352Z" clip-rule="evenodd" fill="rgb(255,255,255)" fill-rule="evenodd" stroke="none" stroke-width="1"/><path id="e1w97gc35qn35" d="M140.97,305.352L143.902,305.352C144.478,305.352,144.95,305.824,144.95,306.401L144.95,308.155C144.95,308.732,144.478,309.204,143.902,309.204L140.97,309.204C140.393,309.204,139.921,308.732,139.921,308.155L139.921,306.401C139.921,305.824,140.393,305.352,140.97,305.352Z" clip-rule="evenodd" fill="rgb(255,255,255)" fill-rule="evenodd" stroke="none" stroke-width="1"/><path id="e1w97gc35qn36" d="M149.119,305.352L152.051,305.352C152.628,305.352,153.101,305.824,153.101,306.401L153.101,308.155C153.101,308.732,152.629,309.204,152.051,309.204L149.119,309.204C148.542,309.204,148.07,308.732,148.07,308.155L148.07,306.401C148.07,305.824,148.542,305.352,149.119,305.352Z" clip-rule="evenodd" fill="rgb(255,255,255)" fill-rule="evenodd" stroke="none" stroke-width="1"/><path id="e1w97gc35qn37" d="M157.268,305.352L160.2,305.352C160.777,305.352,161.249,305.824,161.249,306.401L161.249,308.155C161.249,308.732,160.777,309.204,160.2,309.204L157.268,309.204C156.691,309.204,156.219,308.732,156.219,308.155L156.219,306.401C156.219,305.824,156.691,305.352,157.268,305.352Z" clip-rule="evenodd" fill="rgb(255,255,255)" fill-rule="evenodd" stroke="none" stroke-width="1"/><path id="e1w97gc35qn38" d="M165.417,305.352L168.351,305.352C168.928,305.352,169.4,305.824,169.4,306.401L169.4,308.155C169.4,308.732,168.928,309.204,168.351,309.204L165.417,309.204C164.84,309.204,164.368,308.732,164.368,308.155L164.368,306.401C164.367,305.824,164.84,305.352,165.417,305.352Z" clip-rule="evenodd" fill="rgb(255,255,255)" fill-rule="evenodd" stroke="none" stroke-width="1"/><path id="e1w97gc35qn39" d="M173.567,305.352L176.498,305.352C177.075,305.352,177.547,305.824,177.547,306.401L177.547,308.155C177.547,308.732,177.075,309.204,176.498,309.204L173.567,309.204C172.99,309.204,172.518,308.732,172.518,308.155L172.518,306.401C172.516,305.824,172.988,305.352,173.567,305.352Z" clip-rule="evenodd" fill="rgb(255,255,255)" fill-rule="evenodd" stroke="none" stroke-width="1"/><path id="e1w97gc35qn40" d="M101.802,235.929L397.468,235.929C399.233,235.929,400.676,237.372,400.676,239.137L400.676,270.419C400.676,272.182,399.233,273.627,397.468,273.627L101.802,273.627C100.037,273.627,98.5938,272.184,98.5938,270.419L98.5938,239.137C98.5938,237.372,100.035,235.929,101.802,235.929Z" clip-rule="evenodd" fill="rgb(85,85,85)" fill-rule="evenodd" stroke="none" stroke-width="1"/><path id="e1w97gc35qn41" d="M397.468,274.163L101.802,274.163C99.7367,274.163,98.0566,272.483,98.0566,270.419L98.0566,239.137C98.0566,237.072,99.7367,235.392,101.802,235.392L397.468,235.392C399.533,235.392,401.214,237.072,401.214,239.137L401.214,270.419C401.214,272.483,399.533,274.163,397.468,274.163ZM101.802,236.464C100.328,236.464,99.1291,237.665,99.1291,239.137L99.1291,270.419C99.1291,271.893,100.328,273.09,101.802,273.09L397.468,273.09C398.942,273.09,400.139,271.893,400.139,270.419L400.139,239.137C400.139,237.663,398.942,236.464,397.468,236.464L101.802,236.464Z" fill="rgb(220,220,220)" stroke="none" stroke-width="1"/><path id="e1w97gc35qn42" d="M107.486,240.099L388.943,240.099C390.276,240.099,391.365,241.188,391.365,242.521L391.365,266.129C391.365,267.462,390.276,268.55,388.943,268.55L107.486,268.55C106.155,268.55,105.066,267.462,105.066,266.129L105.066,242.521C105.066,241.188,106.155,240.099,107.486,240.099Z" clip-rule="evenodd" fill="rgb(38,38,38)" fill-rule="evenodd" stroke="none" stroke-width="1"/><path id="e1w97gc35qn43" d="M76.0544,3.91746L100.134,-14.0457L398.62,-14.0457L422.7,3.91746L495.407,3.91746C508.849,3.91746,519.814,14.8849,519.814,28.3265L519.814,182.817C519.814,196.26,508.849,207.226,495.407,207.226L422.7,207.226L398.62,225.189L100.134,225.189L76.0544,207.226L3.34779,207.226C-10.0947,207.226,-21.0596,196.26,-21.0596,182.817L-21.0596,28.3265C-21.0596,14.8849,-10.0947,3.91746,3.34779,3.91746L76.0544,3.91746Z" clip-rule="evenodd" fill="rgb(250,255,255)" fill-rule="evenodd" stroke="none" stroke-width="1"/><path id="e1w97gc35qn44" d="M103.936,213.585L394.66,213.585L418.74,195.622L495.296,195.622C502.333,195.622,508.102,189.854,508.102,182.815L508.102,28.3265C508.102,21.2892,502.335,15.5198,495.296,15.5198L418.74,15.5198L394.66,-2.44336L103.936,-2.44336L79.856,15.5198L3.29726,15.5198C-3.74138,15.5198,-9.50684,21.2874,-9.50684,28.3265L-9.50684,182.815C-9.50684,189.854,-3.73957,195.622,3.29726,195.622L79.8542,195.622L103.936,213.585Z" transform="matrix(1 0 0 1 0 -1.11519)" clip-rule="evenodd" fill="url(#e1w97gc35qn44-fill)" fill-rule="evenodd" stroke="none" stroke-width="1"/><g id="e1w97gc35qn45" mask="url(#e1w97gc35qn74)"><g id="e1w97gc35qn46_to" transform="translate(121.896123,98.800674)"><g id="e1w97gc35qn46" transform="translate(-85.544709,-74.444077)" opacity="0"><path id="e1w97gc35qn47" d="M170.865,79.3378C170.68,82.7649,170.287,86.1384,169.691,89.4583C169.166,92.4026,168.493,95.2933,167.67,98.1244C166.687,101.522,165.501,104.836,164.118,108.06C162.616,111.559,160.881,114.956,158.932,118.204C158.533,118.884,158.122,119.546,157.699,120.213C157.693,120.219,157.693,120.225,157.687,120.231C156.37,122.311,154.951,124.332,153.461,126.287C153.246,126.567,153.038,126.841,152.817,127.115C151.81,128.408,150.761,129.672,149.676,130.906C149.176,131.478,148.657,132.05,148.133,132.61C145.319,135.65,142.274,138.487,139.025,141.086C133.518,145.52,127.433,149.287,120.882,152.261C120.745,152.327,120.602,152.386,120.471,152.446C117.61,153.733,114.66,154.854,111.638,155.82C106.012,157.614,100.111,158.847,94.0017,159.461C77.0806,161.148,60.827,157.768,46.743,150.563C46.7371,150.563,46.7371,150.563,46.7371,150.563C41.9748,148.131,37.4629,145.264,33.261,141.998C31.8007,140.877,30.3822,139.697,28.9994,138.481C27.0504,136.759,25.1789,134.947,23.3968,133.051C21.9902,131.567,20.6432,130.03,19.3557,128.45C18.6584,127.61,17.9849,126.757,17.3352,125.893C15.3743,123.294,13.5505,120.577,11.8935,117.746C10.2902,115.028,8.84189,112.22,7.54256,109.312C7.26243,108.686,6.98826,108.054,6.72005,107.422C5.84986,105.33,5.0631,103.197,4.35384,101.021C3.31676,97.8503,2.45848,94.596,1.7969,91.2642C1.38564,89.2079,1.03995,87.1218,0.783657,85.006C0.694254,84.3086,0.616771,83.6053,0.545248,82.902C0.461805,82.0616,0.396242,81.2272,0.33664,80.3927C0.277037,79.5464,0.235316,78.706,0.199554,77.8716C0.026708,73.6338,0.157833,69.4676,0.59889,65.373C1.03995,61.1889,1.78498,57.0823,2.82206,53.083C3.19159,51.6763,3.58497,50.2757,4.02006,48.8929C4.03198,48.8393,4.0439,48.7916,4.06775,48.7379C4.30615,47.981,4.55052,47.236,4.81873,46.4909C5.73065,43.8625,6.76177,41.2877,7.92402,38.7784C8.20415,38.1645,8.48428,37.5565,8.78229,36.9605L8.78825,36.9605C9.03262,36.4479,9.28295,35.9473,9.55116,35.4466C9.81341,34.9221,10.0935,34.4036,10.3737,33.885C10.8922,32.9254,11.4346,31.9718,11.9889,31.0301L13.5386,28.5208L13.616,28.3897C16.6379,23.6632,20.1187,19.2467,24.0047,15.2176C26.7703,12.3388,29.7385,9.65073,32.8795,7.1832C32.8855,7.1832,32.8855,7.17723,32.8914,7.17723C36.9682,3.97659,41.3609,1.13356,46.0099,-1.29822C54.384,-5.69091,63.6343,-8.73659,73.4806,-10.1372C74.6906,-10.3101,75.8945,-10.4531,77.1223,-10.5783C87.1355,-11.5677,96.9043,-10.7929,106.143,-8.49818C115.256,-6.23925,123.851,-2.50218,131.599,2.47461C131.927,2.68322,132.254,2.89183,132.582,3.1064C135.86,5.26996,138.978,7.64809,141.922,10.2408C143.215,11.3732,144.467,12.5414,145.683,13.7514C148.74,16.7673,151.578,20.0275,154.158,23.4844C154.421,23.842,154.683,24.1937,154.933,24.5513C155.148,24.8434,155.35,25.1414,155.559,25.4334C156.799,27.1798,157.967,28.9917,159.064,30.8453C160.089,32.5678,161.054,34.3261,161.948,36.1261C161.96,36.144,161.966,36.1678,161.978,36.1857C161.996,36.2215,162.02,36.2572,162.038,36.293C163.027,38.2837,163.939,40.3102,164.774,42.3784C165.227,43.4929,165.65,44.6194,166.055,45.7519C166.15,46.032,166.258,46.3062,166.353,46.5863C166.478,46.9439,166.591,47.2956,166.711,47.6532C168.391,52.7611,169.601,58.0955,170.305,63.6147C170.406,64.4014,170.501,65.1941,170.573,65.9988C171.026,70.5047,171.121,74.957,170.865,79.3378Z" fill="rgb(251,214,179)" stroke="none" stroke-width="1"/><path id="e1w97gc35qn48" d="M120.465,152.446C117.604,153.733,114.654,154.854,111.632,155.819C106.005,157.613,100.105,158.847,93.9956,159.461C77.0745,161.148,60.821,157.768,46.7369,150.563C46.731,150.563,46.731,150.563,46.731,150.563C41.9687,148.131,37.4568,145.264,33.2549,141.998C39.1674,138.731,50.1462,133.916,59.909,136.574C74.1123,140.448,77.6586,135.03,96.7016,135.799C108.592,136.282,116.329,145.55,120.465,152.446Z" fill="rgb(206,163,125)" stroke="none" stroke-width="1"/><path id="e1w97gc35qn49" d="M112.163,155.819C106.536,157.614,100.636,158.847,94.5263,159.461C77.6052,161.148,61.3576,157.768,47.2676,150.563C55.7132,146.76,67.9734,142.79,78.3085,145.61C89.2276,148.584,101.488,153.513,112.163,155.819Z" fill="rgb(189,140,91)" stroke="none" stroke-width="1"/><path id="e1w97gc35qn50" d="M145.689,13.7514C134.162,28.199,102.084,24.6348,94.1267,19.7354C85.7347,14.5739,80.2513,22.3162,68.6289,23.2877C57.0124,24.2533,62.1739,12.6368,45.3899,16.511C36.6761,18.5255,29.184,17.0712,23.9927,15.2116C26.7582,12.3328,29.7264,9.64477,32.8675,7.17723C32.8734,7.17723,32.8734,7.17127,32.8794,7.17127C44.3171,-1.8108,58.1687,-7.96176,73.4805,-10.1372C74.6904,-10.3101,75.8944,-10.4531,77.1222,-10.5783C87.1354,-11.5677,96.9042,-10.7929,106.143,-8.49818C115.643,-6.14389,124.572,-2.18629,132.582,3.1064C135.86,5.26996,138.977,7.64809,141.922,10.2408C143.215,11.3732,144.467,12.5414,145.689,13.7514Z" fill="rgb(206,163,125)" stroke="none" stroke-width="1"/><path id="e1w97gc35qn51" d="M131.599,2.47461C117.366,2.69514,112.759,13.2686,102.728,13.4414C91.0693,13.6441,94.0673,5.91963,87.3203,4.5905C80.5733,3.2554,69.4217,14.9136,62.9668,14.2163C56.5178,13.5249,62.4244,7.58849,54.098,3.92295C50.1165,2.1766,41.4027,4.28056,33.4041,6.94479C37.3438,3.85143,41.5517,1.09184,45.998,-1.30418C54.3841,-5.69091,63.6344,-8.73659,73.4807,-10.1372C74.6906,-10.3101,75.8946,-10.4531,77.1224,-10.5783C87.1356,-11.5677,96.9044,-10.7929,106.143,-8.49818C115.256,-6.23925,123.851,-2.50218,131.599,2.47461Z" fill="rgb(189,140,91)" stroke="none" stroke-width="1"/><path id="e1w97gc35qn52" d="M164.779,42.3784L138.018,44.2619L114.135,47.236L106.178,45.1201L81.2169,49.4234L67.6633,42.1102L47.8635,43.4096L36.2589,40.3937L23.7662,43.8327C23.7662,43.8327,13.2941,40.6977,7.91797,38.7785C8.1981,38.1646,8.47823,37.5566,8.77624,36.9606L8.7822,36.9606C9.02657,36.448,9.2769,35.9473,9.54511,35.4467C9.80736,34.9222,10.0875,34.4036,10.3676,33.8851C10.8862,32.9255,11.4285,31.9719,11.9828,31.0302L13.5325,28.5209C16.9716,30.4162,22.5384,32.5023,29.1483,31.3639C40.3416,29.4268,44.8595,34.952,54.9681,33.9447C65.0826,32.9374,69.3859,30.0706,75.1971,29.856C81.0083,29.6355,85.9493,39.1063,90.2586,38.248C94.5619,37.3838,102.525,28.348,111.125,30.4997C119.738,32.6513,123.177,41.0433,130.925,39.75C136.725,38.7844,149.503,29.8679,155.571,25.4395C156.811,27.1858,157.979,28.9977,159.075,30.8513C160.101,32.5739,161.066,34.3321,161.96,36.1321C161.972,36.15,161.978,36.1738,161.99,36.1917C162.008,36.2275,162.032,36.2632,162.05,36.299C163.033,38.2838,163.945,40.3102,164.779,42.3784Z" fill="rgb(215,246,249)" stroke="none" stroke-width="1"/><path id="e1w97gc35qn53" d="M166.359,46.5921C160.166,51.7179,150.433,59.1146,147.131,59.1146C141.779,59.1146,143.12,49.0001,138.215,48.3564C133.315,47.7127,125.287,55.8901,120.382,56.6947C115.482,57.4994,111.686,48.1418,105.672,47.2835C99.6519,46.4193,87.8387,56.5338,83.0824,56.6947C78.3262,56.8557,76.4725,46.6398,71.1202,45.561C65.7679,44.4822,53.9548,52.6597,48.6084,53.3451C43.2561,54.0305,47.9349,46.4193,42.5886,44.5001C37.2363,42.5749,32.337,52.6597,25.2026,53.3034C18.0622,53.9471,22.3059,46.2047,16.0536,44.6968C13.3417,44.0412,8.93116,45.0902,4.8186,46.4908C5.95105,43.2246,7.27422,40.0418,8.78216,36.9544L8.78812,36.9544C9.03249,36.4419,9.28282,35.9412,9.55103,35.4405C14.5755,37.318,20.4404,39.4756,23.3132,37.5981C29.4582,33.581,38.1244,35.6611,44.3767,38.671C50.617,41.6869,56.4163,37.169,63.5388,36.5193C70.6792,35.8756,76.9195,46.1928,86.5036,44.6968C96.4333,43.1471,95.3069,38.0332,100.325,36.5193C109.981,33.5869,118.158,45.5551,126.401,44.6968C134.656,43.8326,143.346,34.8743,148.591,37.6458C152.561,39.7438,157.734,38.3015,161.954,36.12C161.966,36.1379,161.972,36.1617,161.984,36.1796C162.002,36.2154,162.026,36.2511,162.044,36.2869C163.557,39.3385,164.91,42.4975,166.067,45.7517C166.162,46.0319,166.263,46.312,166.359,46.5921Z" fill="rgb(189,220,225)" stroke="none" stroke-width="1"/><path id="e1w97gc35qn54" d="M157.693,120.231C156.375,122.311,154.957,124.332,153.467,126.287C153.252,126.567,153.044,126.841,152.823,127.115C145.808,129.308,142.327,131.406,133.071,130.548C124.53,129.755,111.876,124.63,105.743,123.11C99.6102,121.584,87.7017,129.958,77.3428,129.69C60.5588,129.261,57.6561,123.759,51.523,122.377C45.39,120.994,39.5787,131.412,33.4039,132.384C30.1079,132.902,24.1656,130.655,19.3557,128.45C18.6583,127.61,17.9848,126.757,17.3351,125.893C15.3742,123.294,13.5504,120.577,11.8935,117.745C10.2902,115.028,8.84181,112.22,7.54248,109.312C7.26235,108.686,6.98818,108.054,6.71997,107.422C13.1511,107.446,22.4907,107.661,23.3311,108.608C24.6245,110.063,66.364,110.921,66.364,110.921L82.4507,112.483L112.157,113.019L144.467,114.634L157.693,120.231Z" fill="rgb(215,246,249)" stroke="none" stroke-width="1"/><path id="e1w97gc35qn55" d="M164.124,108.06C162.622,111.559,160.888,114.956,158.939,118.205C158.539,118.884,158.128,119.546,157.705,120.213C154.594,119.563,149.122,119.069,141.892,121.077C130.276,124.308,112.848,113.329,102.197,115.266C91.5462,117.203,80.5734,124.624,71.2158,123.014C61.8582,121.399,56.3689,112.042,49.9139,113.007C44.3411,113.842,27.1458,118.175,11.8996,117.74C10.2963,115.022,8.84792,112.214,7.54859,109.306C6.35058,106.618,5.2837,103.852,4.35986,101.009C11.077,99.555,21.728,97.6298,25.3816,99.1318C30.871,101.391,29.7147,107.524,36.259,107.524C42.8093,107.524,57.7397,97.8444,62.0549,99.7755C66.3761,101.713,66.0483,109.133,74.7621,109.455C83.476,109.777,91.868,100.741,99.6104,102.034C107.359,103.328,106.065,109.801,114.135,109.467C122.206,109.139,134.144,99.7755,139.955,100.747C145.766,101.713,152.221,109.461,161.579,108.167C162.497,108.042,163.343,108.013,164.124,108.06Z" fill="rgb(189,220,225)" stroke="none" stroke-width="1"/><path id="e1w97gc35qn56" d="M170.865,79.3377C170.68,82.7648,170.287,86.1383,169.691,89.4582C169.166,92.4025,168.493,95.2933,167.67,98.1244C160.738,95.8237,149.623,92.7423,145.683,95.0429C139.794,98.482,121.913,92.337,112.156,96.1158C97.0771,101.957,94.5559,92.7423,90.6818,92.0926C86.8076,91.4489,80.3527,96.5449,72.509,97.7727C64.6713,99.0005,67.6574,88.0754,62.0428,87.2946C56.4402,86.5079,48.5012,98.7979,40.1092,98.5773C32.8317,98.3985,29.5655,94.1727,23.9868,90.5191C19.8861,87.8311,7.88816,89.941,1.79681,91.2403C1.38555,89.184,1.03986,87.0979,0.783566,84.9821C0.694162,84.2847,0.616679,83.5814,0.545156,82.8781C0.461713,82.0377,0.396151,81.2033,0.336548,80.3688C0.276946,79.5225,0.235224,78.6821,0.199463,77.8477L155.72,79.3318L170.865,79.3318L170.865,79.3377Z" fill="rgb(206,163,125)" stroke="none" stroke-width="1"/><path id="e1w97gc35qn57" d="M169.661,89.7205C161.489,88.2364,148.83,81.9662,141.338,84.8748C137.035,86.5437,133.381,91.0079,129.394,90.3642C126.765,89.941,127.135,83.9092,122.617,83.9092C118.099,83.9092,105.189,92.3668,98.4123,90.4297C95.9031,89.7145,97.4468,82.294,92.6011,83.2655C87.7614,84.2311,80.4243,92.6112,71.3886,90.698C65.9946,89.5536,68.0688,83.2655,63.5509,82.9437C59.0331,82.6218,45.0742,93.2728,36.563,92.3013C28.0518,91.3357,28.6955,82.9437,19.3319,83.5874C14.2717,83.9331,6.66644,84.6602,0.747925,85.2563C0.658521,84.5589,0.581038,83.8556,0.509515,83.1523C0.426072,82.3119,0.36051,81.4834,0.300907,80.643C-0.062667,75.5649,0.038657,70.5464,0.557197,65.6411C6.95253,62.2259,14.3432,58.8465,16.4233,60.1637C20.2975,62.6074,15.4578,69.3901,18.6823,70.0338C21.9068,70.6775,35.4663,58.6855,39.9841,60.1637C44.502,61.6418,36.11,68.0967,41.5994,68.7405C47.0887,69.3842,71.2933,55.4551,75.1674,57.0942C79.0416,58.7332,73.5522,65.8319,78.07,66.8034C82.5879,67.7689,102.275,59.0074,108.086,60.1637C113.897,61.32,104.212,67.1312,111.316,68.4186C118.415,69.712,132.296,59.3292,137.78,60.1637C143.269,60.9981,137.78,68.0967,143.591,68.0967C147.578,68.0967,161.782,65.51,170.275,63.8888C170.376,64.6756,170.466,65.4683,170.543,66.2729C171.348,74.2894,171.014,82.1569,169.661,89.7205Z" fill="rgb(189,140,91)" stroke="none" stroke-width="1"/></g></g><g id="e1w97gc35qn58_to" transform="translate(371.329651,55.500822)"><g id="e1w97gc35qn58" transform="translate(-371.32965,-55.500822)" opacity="0"><path id="e1w97gc35qn59" d="M411.25,95.25C433.203,73.2967,433.203,37.7033,411.25,15.75C389.297,-6.20332,353.703,-6.20333,331.75,15.75C309.797,37.7033,309.797,73.2967,331.75,95.25C353.703,117.203,389.297,117.203,411.25,95.25Z" fill="rgb(255,226,105)" stroke="none" stroke-width="1"/><path id="e1w97gc35qn60" d="M377.068,-0.446045C398.408,5.77994,414.9,24.4205,417.262,47.8975C420.372,78.7869,397.857,106.352,366.968,109.463C363.168,109.847,359.422,109.837,355.761,109.479C362.5,111.445,369.72,112.177,377.132,111.429C408.022,108.319,430.542,80.7536,427.427,49.8642C424.696,22.7745,403.159,2.12451,377.068,-0.446045Z" opacity="0.67" fill="rgb(255,226,105)" stroke="none" stroke-width="1"/><path id="e1w97gc35qn61" d="M323.001,57.7629C322.744,31.3626,339.242,8.71394,362.58,-0.098633C335.383,4.06449,314.68,27.6858,314.947,55.9993C315.166,78.8297,328.97,98.352,348.605,106.967C333.267,95.9792,323.193,78.0762,323.001,57.7629Z" opacity="0.5" fill="rgb(255,226,105)" stroke="none" stroke-width="1"/><path id="e1w97gc35qn62" d="M335.597,47.2724C343.271,55.0643,377.603,35.9748,362.81,20.8027C348.022,5.62516,325.636,37.1612,335.597,47.2724Z" opacity="0.3" fill="rgb(173,129,65)" stroke="none" stroke-width="1"/><path id="e1w97gc35qn63" d="M362.815,20.8027C361.303,19.2529,359.715,18.2001,358.085,17.5481C358.775,18.0451,359.454,18.633,360.122,19.3117C373.573,33.1157,346.387,50.1583,335.586,47.2564C335.592,47.2618,335.597,47.2671,335.602,47.2725C343.277,55.0643,377.602,35.9749,362.815,20.8027Z" opacity="0.3" fill="rgb(173,129,65)" stroke="none" stroke-width="1"/><path id="e1w97gc35qn64" d="M335.747,68.0293C347.584,60.5421,362.163,84.6016,352.747,88.4708C343.325,92.34,326.678,73.7689,335.747,68.0293Z" opacity="0.3" fill="rgb(173,129,65)" stroke="none" stroke-width="1"/><path id="e1w97gc35qn65" d="M335.939,67.9171C346.345,66.1001,356.953,84.0299,350.839,88.9465C351.496,88.877,352.138,88.722,352.747,88.4709C362.11,84.6284,347.745,60.8093,335.939,67.9171Z" opacity="0.3" fill="rgb(173,129,65)" stroke="none" stroke-width="1"/><path id="e1w97gc35qn66" d="M378.479,11.9205C387.538,5.18151,403.169,25.3772,393.945,30.1389C384.721,34.8952,367.898,19.7872,378.479,11.9205Z" opacity="0.3" fill="rgb(173,129,65)" stroke="none" stroke-width="1"/><path id="e1w97gc35qn67" d="M379.826,11.1296C379.366,11.3327,378.912,11.5946,378.479,11.9152C367.903,19.7819,384.726,34.8899,393.945,30.1336C394.464,29.8664,394.896,29.5511,395.265,29.193C386.105,33.0622,370.5,18.9428,379.826,11.1296Z" opacity="0.3" fill="rgb(173,129,65)" stroke="none" stroke-width="1"/><path id="e1w97gc35qn68" d="M365.937,50.1369C373.777,45.1187,385.46,62.6316,377.604,66.0091C369.743,69.3866,356.783,55.9941,365.937,50.1369Z" opacity="0.3" fill="rgb(173,129,65)" stroke="none" stroke-width="1"/><path id="e1w97gc35qn69" d="M367.085,49.5652C366.695,49.7041,366.31,49.8965,365.931,50.137C356.782,55.9942,369.741,69.3921,377.597,66.0093C378.035,65.8169,378.415,65.5817,378.736,65.3092C370.986,67.9599,358.973,55.4491,367.085,49.5652Z" opacity="0.3" fill="rgb(173,129,65)" stroke="none" stroke-width="1"/><path id="e1w97gc35qn70" d="M385.501,77.8679C399.503,79.6155,391.155,105.807,377.469,98.5286C363.788,91.2498,375.983,76.6762,385.501,77.8679Z" opacity="0.3" fill="rgb(173,129,65)" stroke="none" stroke-width="1"/><path id="e1w97gc35qn71" d="M380.643,98.5286C368.256,91.9392,377.079,79.3696,385.929,77.932C385.79,77.9107,385.651,77.8839,385.501,77.8679C375.983,76.6762,363.788,91.2551,377.469,98.5286C379.735,99.731,381.851,100.014,383.748,99.6508C382.754,99.4584,381.718,99.095,380.643,98.5286Z" opacity="0.3" fill="rgb(173,129,65)" stroke="none" stroke-width="1"/><path id="e1w97gc35qn72" d="M399.995,42.9437C415.835,41.6717,412.618,72.4596,395.864,67.5643C379.11,62.6691,389.226,43.8094,399.995,42.9437Z" opacity="0.3" fill="rgb(173,129,65)" stroke="none" stroke-width="1"/><path id="e1w97gc35qn73" d="M399.364,66.8381C384.197,62.4077,391.054,46.5248,400.481,42.9175C400.321,42.9228,400.16,42.9282,399.995,42.9442C389.226,43.81,379.115,62.6696,395.864,67.5649C398.637,68.3772,401.037,68.2008,403.041,67.3671C401.903,67.3885,400.674,67.2229,399.364,66.8381Z" opacity="0.3" fill="rgb(173,129,65)" stroke="none" stroke-width="1"/></g></g><mask id="e1w97gc35qn74" mask-type="luminance"><path id="e1w97gc35qn75" d="M103.936,213.585L394.66,213.585L418.74,195.622L495.296,195.622C502.333,195.622,508.102,189.854,508.102,182.815L508.102,28.3265C508.102,21.2892,502.335,15.5198,495.296,15.5198L418.74,15.5198L394.66,-2.44336L103.936,-2.44336L79.856,15.5198L3.29726,15.5198C-3.74138,15.5198,-9.50684,21.2874,-9.50684,28.3265L-9.50684,182.815C-9.50684,189.854,-3.73957,195.622,3.29726,195.622L79.8542,195.622L103.936,213.585Z" transform="matrix(1 0 0 1 0 -1.11519)" clip-rule="evenodd" fill="rgb(255,255,255)" fill-rule="evenodd" stroke="none" stroke-width="1"/></mask></g><path id="e1w97gc35qn76" d="M181.683,73.8811C181.582,74.3441,181.871,74.7999,182.328,74.8994C182.786,74.9988,183.238,74.704,183.338,74.241C183.439,73.778,183.149,73.3223,182.692,73.2228C182.234,73.1251,181.782,73.4199,181.683,73.8811Z" opacity="0.5" clip-rule="evenodd" fill="rgb(255,255,255)" fill-rule="evenodd" stroke="none" stroke-width="1"/><path id="e1w97gc35qn77" d="M98.7874,106.794C98.7386,107.022,98.5162,107.167,98.2901,107.118C98.064,107.069,97.923,106.845,97.9718,106.617C98.0206,106.389,98.2449,106.244,98.4691,106.293C98.6952,106.342,98.8363,106.566,98.7874,106.794Z" opacity="0.09" clip-rule="evenodd" fill="rgb(255,255,255)" fill-rule="evenodd" stroke="none" stroke-width="1"/><path id="e1w97gc35qn78" d="M122.547,128.566C122.498,128.794,122.276,128.939,122.05,128.89C121.826,128.841,121.683,128.617,121.732,128.389C121.781,128.161,122.005,128.016,122.229,128.065C122.455,128.114,122.598,128.338,122.547,128.566Z" clip-rule="evenodd" fill="rgb(255,255,255)" fill-rule="evenodd" stroke="none" stroke-width="1"/><path id="e1w97gc35qn79" d="M61.4113,142.438C61.3372,142.784,60.999,143.002,60.659,142.928C60.319,142.854,60.1038,142.516,60.1779,142.17C60.2521,141.827,60.5903,141.606,60.9303,141.68C61.2703,141.755,61.4855,142.093,61.4113,142.438Z" opacity="0.36" clip-rule="evenodd" fill="rgb(255,255,255)" fill-rule="evenodd" stroke="none" stroke-width="1"/><path id="e1w97gc35qn80" d="M128.239,116.859C128.165,117.205,127.826,117.423,127.486,117.349C127.146,117.275,126.931,116.937,127.005,116.591C127.079,116.248,127.416,116.027,127.756,116.101C128.098,116.175,128.313,116.515,128.239,116.859Z" opacity="0.69" clip-rule="evenodd" fill="rgb(255,255,255)" fill-rule="evenodd" stroke="none" stroke-width="1"/><path id="e1w97gc35qn81" d="M375.34,168.198C375.435,169.037,376.186,169.641,377.014,169.546C377.842,169.45,378.437,168.694,378.342,167.853C378.246,167.013,377.495,166.411,376.667,166.505C375.837,166.601,375.244,167.359,375.34,168.198Z" clip-rule="evenodd" fill="rgb(255,255,255)" fill-rule="evenodd" stroke="none" stroke-width="1"/><path id="e1w97gc35qn82" d="M294.717,74.3024C294.78,74.8576,295.278,75.2573,295.826,75.194C296.374,75.1307,296.768,74.6298,296.705,74.0745C296.641,73.5193,296.144,73.1196,295.596,73.1829C295.046,73.2444,294.652,73.7472,294.717,74.3024Z" clip-rule="evenodd" fill="rgb(255,255,255)" fill-rule="evenodd" stroke="none" stroke-width="1"/><path id="e1w97gc35qn83" d="M437.184,121.951C437.28,122.79,438.031,123.394,438.861,123.298C439.689,123.202,440.284,122.446,440.188,121.605C440.092,120.766,439.342,120.164,438.514,120.258C437.682,120.354,437.088,121.111,437.184,121.951Z" opacity="0.66" clip-rule="evenodd" fill="rgb(255,255,255)" fill-rule="evenodd" stroke="none" stroke-width="1"/><path id="e1w97gc35qn84" d="M232.872,120.55C232.935,121.106,233.433,121.505,233.981,121.442C234.529,121.379,234.923,120.878,234.86,120.323C234.796,119.767,234.299,119.368,233.751,119.431C233.201,119.492,232.809,119.993,232.872,120.55Z" opacity="0.68" clip-rule="evenodd" fill="rgb(255,255,255)" fill-rule="evenodd" stroke="none" stroke-width="1"/><path id="e1w97gc35qn85" d="M460.21,153.089C460.25,153.439,460.002,153.754,459.656,153.794C459.311,153.834,458.998,153.582,458.957,153.231C458.917,152.881,459.165,152.564,459.51,152.524C459.855,152.486,460.168,152.74,460.21,153.089Z" clip-rule="evenodd" fill="rgb(255,255,255)" fill-rule="evenodd" stroke="none" stroke-width="1"/><path id="e1w97gc35qn86" d="M189.377,102.989C189.328,103.217,189.103,103.362,188.879,103.313C188.653,103.264,188.512,103.04,188.561,102.812C188.61,102.584,188.834,102.439,189.058,102.488C189.283,102.535,189.425,102.761,189.377,102.989Z" clip-rule="evenodd" fill="rgb(255,255,255)" fill-rule="evenodd" stroke="none" stroke-width="1"/><g id="e1w97gc35qn87_to" transform="translate(307.383499,100.806)"><g id="e1w97gc35qn87" transform="translate(-307.383499,-100.806)"><path id="e1w97gc35qn88" d="M164.182,-12L221.551,-12L175.559,213.612L118.19,213.612L164.182,-12Z" opacity="0.04" clip-rule="evenodd" fill="rgb(255,255,255)" fill-rule="evenodd" stroke="none" stroke-width="1"/><path id="e1w97gc35qn89" d="M257.605,-12L394.683,-12L418.739,11.0485L421.412,11.0485L380.139,213.612L211.613,213.612L257.605,-12Z" opacity="0.04" clip-rule="evenodd" fill="rgb(255,255,255)" fill-rule="evenodd" stroke="none" stroke-width="1"/></g></g><g id="e1w97gc35qn90_to" transform="translate(443.663498,116.776655)"><path id="e1w97gc35qn90" d="M496.577,11.0483L459.993,190.505L420.75,190.505L457.333,11.0483L496.577,11.0483Z" transform="translate(-458.663498,-100.776655)" opacity="0.04" clip-rule="evenodd" fill="rgb(255,255,255)" fill-rule="evenodd" stroke="none" stroke-width="1"/></g><path id="e1w97gc35qn91" d="M300.808,243.975L192.8,243.975L215.049,257.379L278.35,257.379L300.808,243.975Z" clip-rule="evenodd" fill="rgb(138,157,169)" fill-rule="evenodd" stroke="none" stroke-width="1"/><path id="e1w97gc35qn92" d="M300.808,243.975L192.8,243.975L199.08,180.493L293.028,180.493L300.808,243.975Z" clip-rule="evenodd" fill="rgb(255,255,255)" fill-rule="evenodd" stroke="none" stroke-width="1"/><path id="e1w97gc35qn93" d="M291.892,236.086L286.047,188.382L206.226,188.382L201.508,236.086L291.892,236.086Z" clip-rule="evenodd" fill="rgb(0,0,56)" fill-rule="evenodd" stroke="none" stroke-width="1"/><path id="e1w97gc35qn94" d="M278.455,257.379L215.049,257.379L215.049,363L278.455,363L278.455,257.379Z" fill="rgb(205,210,214)" stroke="none" stroke-width="1"/><path id="e1w97gc35qn95" d="M221.195,299.348L244.101,299.348C244.546,299.348,244.91,299.711,244.91,300.156L244.91,308.203C244.91,308.648,244.546,309.011,244.101,309.011L221.195,309.011C220.75,309.011,220.386,308.648,220.386,308.203L220.386,300.156C220.386,299.71,220.75,299.348,221.195,299.348Z" clip-rule="evenodd" fill="rgb(90,90,90)" fill-rule="evenodd" stroke="none" stroke-width="1"/><path id="e1w97gc35qn96" d="M222.361,299.348L244.224,299.348C244.6,299.348,244.909,299.655,244.909,300.033L244.909,306.861C244.909,307.239,244.6,307.546,244.224,307.546L222.361,307.546C221.983,307.546,221.676,307.237,221.676,306.861L221.676,300.033C221.676,299.655,221.983,299.348,222.361,299.348Z" clip-rule="evenodd" fill="rgb(137,137,137)" fill-rule="evenodd" stroke="none" stroke-width="1"/><path id="e1w97gc35qn97" d="M249.405,299.348L272.311,299.348C272.756,299.348,273.12,299.711,273.12,300.156L273.12,308.203C273.12,308.648,272.756,309.011,272.311,309.011L249.405,309.011C248.96,309.011,248.597,308.648,248.597,308.203L248.597,300.156C248.597,299.71,248.96,299.348,249.405,299.348Z" clip-rule="evenodd" fill="rgb(90,90,90)" fill-rule="evenodd" stroke="none" stroke-width="1"/><path id="e1w97gc35qn98" d="M250.572,299.347L272.434,299.347C272.812,299.347,273.12,299.655,273.12,300.033L273.12,306.86C273.12,307.238,272.811,307.546,272.434,307.546L250.572,307.546C250.194,307.546,249.886,307.237,249.886,306.86L249.886,300.033C249.886,299.655,250.194,299.347,250.572,299.347Z" clip-rule="evenodd" fill="rgb(137,137,137)" fill-rule="evenodd" stroke="none" stroke-width="1"/><path id="e1w97gc35qn99" d="M221.809,266.552L271.697,266.552C273.049,266.552,274.156,267.659,274.156,269.012L274.156,287.376C274.156,288.729,273.049,289.836,271.697,289.836L221.809,289.836C220.457,289.836,219.35,288.729,219.35,287.376L219.35,269.012C219.35,267.659,220.457,266.552,221.809,266.552Z" clip-rule="evenodd" fill="rgb(74,74,74)" fill-rule="evenodd" stroke="none" stroke-width="1"/><path id="e1w97gc35qn100" d="M221.679,267.843L270.941,267.843C272.221,267.843,273.268,268.89,273.268,270.173L273.268,287.555C273.268,288.837,272.221,289.885,270.941,289.885L221.679,289.885C220.399,289.885,219.35,288.837,219.35,287.555L219.35,270.173C219.35,268.89,220.397,267.843,221.679,267.843Z" clip-rule="evenodd" fill="rgb(153,153,153)" fill-rule="evenodd" stroke="none" stroke-width="1"/><path id="e1w97gc35qn101" d="M224.153,267.842L270.348,267.842C271.482,267.842,272.409,268.769,272.409,269.903L272.409,285.286C272.409,286.42,271.482,287.346,270.348,287.346L224.153,287.346C223.019,287.346,222.094,286.42,222.094,285.286L222.094,269.903C222.094,268.769,223.021,267.842,224.153,267.842Z" clip-rule="evenodd" fill="rgb(96,104,109)" fill-rule="evenodd" stroke="none" stroke-width="1"/><path id="e1w97gc35qn102" d="M226.271,269.193L237.473,269.193C237.769,269.193,238.01,269.433,238.01,269.73L238.01,271.204C238.01,271.5,237.769,271.741,237.473,271.741L226.271,271.741C225.974,271.741,225.734,271.5,225.734,271.204L225.734,269.73C225.734,269.433,225.974,269.193,226.271,269.193Z" clip-rule="evenodd" fill="rgb(49,49,49)" fill-rule="evenodd" stroke="none" stroke-width="1"/><path id="e1w97gc35qn103" d="M241.65,269.193L252.852,269.193C253.149,269.193,253.389,269.433,253.389,269.73L253.389,271.204C253.389,271.5,253.149,271.741,252.852,271.741L241.65,271.741C241.354,271.741,241.113,271.5,241.113,271.204L241.113,269.73C241.113,269.433,241.354,269.193,241.65,269.193Z" clip-rule="evenodd" fill="rgb(49,49,49)" fill-rule="evenodd" stroke="none" stroke-width="1"/><path id="e1w97gc35qn104" d="M257.03,269.193L268.232,269.193C268.526,269.193,268.769,269.433,268.769,269.73L268.769,271.204C268.769,271.5,268.528,271.741,268.232,271.741L257.03,271.741C256.735,271.741,256.493,271.5,256.493,271.204L256.493,269.73C256.493,269.433,256.735,269.193,257.03,269.193Z" clip-rule="evenodd" fill="rgb(49,49,49)" fill-rule="evenodd" stroke="none" stroke-width="1"/><path id="e1w97gc35qn105" d="M225.991,279.619L225.991,277.317C225.991,276.856,226.367,276.479,226.83,276.479L230.203,276.479C230.664,276.479,231.042,276.856,231.042,277.317L231.042,279.619C231.042,280.08,230.666,280.457,230.203,280.457L226.83,280.457C226.367,280.457,225.991,280.08,225.991,279.619Z" clip-rule="evenodd" fill="rgb(255,255,255)" fill-rule="evenodd" stroke="none" stroke-width="1"/><path id="e1w97gc35qn106" d="M233.536,279.619L233.536,277.317C233.536,276.856,233.914,276.479,234.375,276.479L237.748,276.479C238.209,276.479,238.587,276.856,238.587,277.317L238.587,279.619C238.587,280.08,238.209,280.457,237.748,280.457L234.375,280.457C233.914,280.457,233.536,280.08,233.536,279.619Z" clip-rule="evenodd" fill="rgb(255,255,255)" fill-rule="evenodd" stroke="none" stroke-width="1"/><path id="e1w97gc35qn107" d="M241.083,279.619L241.083,277.317C241.083,276.856,241.459,276.479,241.922,276.479L245.295,276.479C245.756,276.479,246.134,276.856,246.134,277.317L246.134,279.619C246.134,280.08,245.757,280.457,245.295,280.457L241.922,280.457C241.459,280.457,241.083,280.08,241.083,279.619Z" clip-rule="evenodd" fill="rgb(255,255,255)" fill-rule="evenodd" stroke="none" stroke-width="1"/><path id="e1w97gc35qn108" d="M248.628,279.619L248.628,277.317C248.628,276.856,249.006,276.479,249.467,276.479L252.84,276.479C253.301,276.479,253.679,276.856,253.679,277.317L253.679,279.619C253.679,280.08,253.301,280.457,252.84,280.457L249.467,280.457C249.006,280.457,248.628,280.08,248.628,279.619Z" clip-rule="evenodd" fill="rgb(255,255,255)" fill-rule="evenodd" stroke="none" stroke-width="1"/><path id="e1w97gc35qn109" d="M256.175,279.619L256.175,277.317C256.175,276.856,256.551,276.479,257.014,276.479L260.387,276.479C260.848,276.479,261.226,276.856,261.226,277.317L261.226,279.619C261.226,280.08,260.85,280.457,260.387,280.457L257.014,280.457C256.551,280.457,256.175,280.08,256.175,279.619Z" clip-rule="evenodd" fill="rgb(255,255,255)" fill-rule="evenodd" stroke="none" stroke-width="1"/><path id="e1w97gc35qn110" d="M263.719,279.619L263.719,277.317C263.719,276.856,264.096,276.479,264.559,276.479L267.931,276.479C268.393,276.479,268.771,276.856,268.771,277.317L268.771,279.619C268.771,280.08,268.393,280.457,267.931,280.457L264.559,280.457C264.097,280.457,263.719,280.08,263.719,279.619Z" clip-rule="evenodd" fill="rgb(255,255,255)" fill-rule="evenodd" stroke="none" stroke-width="1"/><path id="e1w97gc35qn111" d="M225.991,284.723L225.991,282.421C225.991,281.959,226.367,281.583,226.83,281.583L230.203,281.583C230.664,281.583,231.042,281.959,231.042,282.421L231.042,284.723C231.042,285.184,230.666,285.56,230.203,285.56L226.83,285.56C226.367,285.56,225.991,285.184,225.991,284.723Z" clip-rule="evenodd" fill="rgb(255,255,255)" fill-rule="evenodd" stroke="none" stroke-width="1"/><path id="e1w97gc35qn112" d="M233.536,284.723L233.536,282.421C233.536,281.959,233.914,281.583,234.375,281.583L237.748,281.583C238.209,281.583,238.587,281.959,238.587,282.421L238.587,284.723C238.587,285.184,238.209,285.56,237.748,285.56L234.375,285.56C233.914,285.56,233.536,285.184,233.536,284.723Z" clip-rule="evenodd" fill="rgb(255,255,255)" fill-rule="evenodd" stroke="none" stroke-width="1"/><path id="e1w97gc35qn113" d="M241.083,284.723L241.083,282.421C241.083,281.959,241.459,281.583,241.922,281.583L245.295,281.583C245.756,281.583,246.134,281.959,246.134,282.421L246.134,284.723C246.134,285.184,245.757,285.56,245.295,285.56L241.922,285.56C241.459,285.56,241.083,285.184,241.083,284.723Z" clip-rule="evenodd" fill="rgb(255,255,255)" fill-rule="evenodd" stroke="none" stroke-width="1"/><path id="e1w97gc35qn114" d="M248.628,284.723L248.628,282.421C248.628,281.959,249.006,281.583,249.467,281.583L252.84,281.583C253.301,281.583,253.679,281.959,253.679,282.421L253.679,284.723C253.679,285.184,253.301,285.56,252.84,285.56L249.467,285.56C249.006,285.56,248.628,285.184,248.628,284.723Z" clip-rule="evenodd" fill="rgb(255,255,255)" fill-rule="evenodd" stroke="none" stroke-width="1"/><path id="e1w97gc35qn115" d="M256.175,284.723L256.175,282.421C256.175,281.959,256.551,281.583,257.014,281.583L260.387,281.583C260.848,281.583,261.226,281.959,261.226,282.421L261.226,284.723C261.226,285.184,260.85,285.56,260.387,285.56L257.014,285.56C256.551,285.56,256.175,285.184,256.175,284.723Z" clip-rule="evenodd" fill="rgb(255,255,255)" fill-rule="evenodd" stroke="none" stroke-width="1"/><path id="e1w97gc35qn116" d="M263.719,284.723L263.719,282.421C263.719,281.959,264.096,281.583,264.559,281.583L267.931,281.583C268.393,281.583,268.771,281.959,268.771,282.421L268.771,284.723C268.771,285.184,268.393,285.56,267.931,285.56L264.559,285.56C264.097,285.56,263.719,285.184,263.719,284.723Z" clip-rule="evenodd" fill="rgb(255,255,255)" fill-rule="evenodd" stroke="none" stroke-width="1"/><path id="e1w97gc35qn117" d="M211.494,203.48C212.646,203.182,213.033,205.365,213.38,207.331C213.528,208.174,213.677,208.975,213.863,209.492C213.995,209.877,214.147,210.089,214.321,210.006C214.954,209.7,215.464,209.015,215.957,208.336C216.559,207.524,217.142,206.723,217.986,206.524C218.487,206.407,218.95,206.54,219.35,206.824C219.82,207.153,220.2,207.682,220.466,208.251C220.658,208.651,220.811,209.069,220.963,209.485C221.209,210.158,221.45,210.827,221.829,211.38C222.224,211.957,222.759,212.375,223.365,212.597C223.963,212.814,224.622,212.843,225.256,212.641C225.891,212.442,226.494,212.017,226.982,211.451C227.477,210.881,227.857,210.174,228.069,209.405C228.291,208.55,228.313,207.66,228.335,206.774C228.344,206.251,228.358,205.732,228.411,205.216C228.485,204.448,228.716,203.628,229.085,202.985C229.418,202.426,229.852,201.997,230.409,201.838C231.092,201.635,231.709,201.896,232.259,202.364C232.782,202.818,233.246,203.466,233.655,204.072C234.095,204.741,234.659,205.432,235.29,205.79C235.755,206.056,236.25,206.135,236.733,205.882C237.223,205.632,237.625,205.081,238.008,204.551C238.605,203.748,239.16,202.985,240.003,203.196C240.603,203.352,240.931,203.976,241.267,204.603C241.562,205.177,241.871,205.752,242.367,205.889C242.819,206.009,243.265,205.726,243.714,205.437C244.041,205.227,244.376,205.014,244.739,204.927C245.39,204.77,245.991,205.041,246.522,205.509C247.043,205.963,247.505,206.605,247.895,207.208C248.279,207.797,248.738,208.414,249.252,208.835C249.751,209.241,250.286,209.458,250.847,209.271C251.391,209.096,251.758,208.599,252.017,207.984C252.297,207.347,252.454,206.584,252.574,205.882C252.7,205.169,252.892,204.394,253.196,203.761C253.505,203.111,253.95,202.614,254.579,202.485C255.149,202.37,255.663,202.583,256.115,202.977C256.69,203.469,257.173,204.247,257.54,204.985C257.858,205.618,258.211,206.311,258.634,206.853C259.05,207.378,259.527,207.763,260.097,207.806C260.75,207.859,261.264,207.472,261.652,206.875C262.157,206.074,262.453,204.911,262.585,203.874C262.692,202.939,262.859,201.905,263.188,201.053C263.528,200.183,264.038,199.505,264.841,199.313C266.123,199.013,267.184,201.096,268.284,203.238C269.295,205.198,270.328,207.215,271.416,207.302C272.145,207.356,272.765,207.204,273.362,206.918C273.948,206.631,274.507,206.208,275.089,205.745C275.684,205.269,276.411,204.951,277.196,204.808C278.135,204.63,279.162,204.701,280.139,205.037C281.124,205.376,282.067,205.983,282.824,206.888C283.428,207.598,283.92,208.49,284.235,209.579C284.146,209.595,284.058,209.611,283.962,209.628C283.66,208.582,283.188,207.73,282.618,207.056C281.897,206.197,281.007,205.62,280.075,205.3C279.144,204.978,278.167,204.913,277.272,205.081C276.522,205.216,275.831,205.518,275.27,205.965C274.673,206.445,274.109,206.875,273.493,207.175C272.861,207.479,272.189,207.644,271.422,207.582C270.152,207.484,269.085,205.39,268.047,203.35C266.998,201.31,265.989,199.324,264.913,199.574C264.202,199.74,263.748,200.359,263.441,201.158C263.119,201.983,262.967,203.001,262.853,203.921C262.725,204.987,262.416,206.197,261.875,207.032C261.437,207.711,260.851,208.15,260.086,208.087C259.426,208.034,258.878,207.604,258.424,207.02C257.987,206.455,257.619,205.748,257.299,205.099C256.95,204.39,256.491,203.648,255.945,203.18C255.552,202.842,255.113,202.652,254.639,202.75C254.106,202.858,253.726,203.301,253.436,203.88C253.147,204.482,252.97,205.236,252.843,205.929C252.724,206.645,252.559,207.428,252.273,208.092C251.979,208.779,251.561,209.331,250.933,209.539C250.275,209.758,249.649,209.514,249.089,209.051C248.546,208.609,248.063,207.967,247.673,207.36C247.284,206.768,246.844,206.148,246.345,205.716C245.871,205.3,245.354,205.057,244.79,205.191C244.479,205.267,244.166,205.468,243.86,205.663C243.352,205.987,242.859,206.303,242.296,206.15C241.69,205.985,241.35,205.356,241.028,204.73C240.721,204.155,240.415,203.583,239.931,203.455C239.263,203.287,238.762,203.976,238.225,204.705C237.818,205.265,237.393,205.842,236.851,206.123C236.261,206.425,235.691,206.332,235.153,206.027C234.476,205.645,233.883,204.922,233.424,204.225C233.037,203.632,232.586,203.001,232.076,202.567C231.59,202.149,231.053,201.916,230.465,202.088C229.988,202.227,229.608,202.607,229.317,203.102C228.958,203.708,228.745,204.488,228.673,205.22C228.622,205.726,228.608,206.24,228.591,206.757C228.577,207.66,228.562,208.566,228.325,209.456C228.105,210.268,227.7,211.022,227.181,211.628C226.66,212.236,226.009,212.691,225.32,212.908C224.622,213.129,223.904,213.102,223.26,212.86C222.603,212.623,222.023,212.174,221.594,211.552C221.211,210.973,220.965,210.284,220.705,209.601C220.56,209.183,220.406,208.765,220.222,208.385C219.976,207.85,219.616,207.352,219.194,207.05C218.844,206.801,218.446,206.685,218.028,206.785C217.29,206.96,216.726,207.714,216.167,208.485C215.641,209.192,215.113,209.913,214.416,210.253C214.053,210.425,213.803,210.149,213.612,209.61C213.413,209.071,213.266,208.257,213.12,207.403C212.792,205.555,212.434,203.498,211.532,203.735C211.519,203.656,211.507,203.567,211.494,203.48Z" transform="matrix(0.979173 0 0 1 5.162274 0)" clip-rule="evenodd" fill="rgb(61,179,230)" fill-rule="evenodd" stroke="none" stroke-width="1"/><path id="e1w97gc35qn118" d="M284.235,209.606C284.389,210.919,284.551,212.241,284.707,213.572C284.864,214.912,285.031,216.269,285.206,217.633C272.111,217.694,259.14,217.756,246.307,217.812C233.583,217.868,220.978,217.929,208.492,217.983C208.503,217.888,208.515,217.792,208.526,217.694C220.947,217.636,233.503,217.575,246.161,217.517C258.93,217.459,271.841,217.396,284.871,217.334C284.71,216.021,284.551,214.717,284.401,213.426C284.253,212.147,284.105,210.87,283.956,209.606C284.054,209.606,284.144,209.606,284.235,209.606Z" clip-rule="evenodd" fill="rgb(61,179,230)" fill-rule="evenodd" stroke="none" stroke-width="1"/><path id="e1w97gc35qn119" d="M209.208,217.848C209.202,217.828,209.403,213.874,209.901,210.139C210.385,206.49,211.17,203.033,212.356,203.478C212.317,203.565,212.279,203.65,212.239,203.735C211.23,203.355,210.543,206.746,210.114,210.313C209.676,213.963,209.476,217.806,209.481,217.83C209.396,217.837,209.302,217.844,209.208,217.848Z" clip-rule="evenodd" fill="rgb(61,179,230)" fill-rule="evenodd" stroke="none" stroke-width="1"/><path id="e1w97gc35qn120" d="M212.136,203.735C213.069,203.491,213.461,205.247,213.773,207.005C214.087,208.785,214.346,210.574,214.979,210.266C216.407,209.57,217.124,207.141,218.585,206.788C219.58,206.55,220.435,207.436,220.903,208.454C221.39,209.476,221.656,210.688,222.271,211.603C223.081,212.809,224.493,213.336,225.813,212.914C227.128,212.496,228.273,211.158,228.689,209.566C229.051,208.185,228.893,206.747,229.031,205.35C229.166,203.965,229.79,202.421,230.906,202.091C232.178,201.719,233.201,203.083,233.977,204.28C234.773,205.488,235.99,206.774,237.214,206.135C238.433,205.493,239.075,203.13,240.35,203.457C241.442,203.737,241.609,205.848,242.703,206.15C243.54,206.38,244.276,205.398,245.106,205.191C246.322,204.897,247.338,206.228,248.11,207.418C248.881,208.619,249.988,209.946,251.194,209.543C252.351,209.156,252.753,207.458,252.991,206.041C253.236,204.634,253.715,202.99,254.87,202.748C256.053,202.502,257.033,203.898,257.663,205.175C258.296,206.461,259.093,207.986,260.316,208.085C261.922,208.215,262.687,205.906,262.907,204.032C263.133,202.182,263.538,199.932,265.056,199.572C266.183,199.304,267.183,201.22,268.215,203.247C269.262,205.303,270.331,207.483,271.548,207.579C273.022,207.698,274.105,206.935,275.272,205.991C277.742,203.99,282.71,204.873,284.117,209.747C284.267,211.035,284.419,212.334,284.573,213.639C284.727,214.956,284.89,216.289,285.054,217.627C272.105,217.689,259.281,217.752,246.586,217.808C234,217.864,221.535,217.926,209.179,217.98C209.179,217.98,209.382,214.075,209.852,210.377C210.309,206.759,211.042,203.325,212.136,203.735Z" opacity="0.22" clip-rule="evenodd" fill="rgb(61,179,230)" fill-rule="evenodd" stroke="none" stroke-width="1"/><path id="e1w97gc35qn121" d="M211.06,217.837C211.029,217.837,210.998,217.837,210.975,217.837C211.411,213.889,211.845,210.038,212.259,206.275C212.664,202.603,213.062,199.015,213.449,195.504C213.471,195.504,213.5,195.504,213.528,195.502C213.141,199.013,212.749,202.603,212.342,206.273C211.922,210.038,211.496,213.889,211.06,217.837Z" opacity="0.25" clip-rule="evenodd" fill="rgb(7,129,255)" fill-rule="evenodd" stroke="none" stroke-width="1"/><path id="e1w97gc35qn122" d="M214.073,217.837C214.042,217.837,214.011,217.837,213.988,217.837C214.387,213.885,214.785,210.031,215.165,206.262C215.536,202.585,215.907,198.993,216.261,195.481C216.283,195.481,216.31,195.481,216.339,195.481C215.979,198.995,215.619,202.587,215.247,206.264C214.865,210.029,214.471,213.883,214.073,217.837Z" opacity="0.25" clip-rule="evenodd" fill="rgb(7,129,255)" fill-rule="evenodd" stroke="none" stroke-width="1"/><path id="e1w97gc35qn123" d="M217.093,217.835C217.062,217.835,217.032,217.835,217.008,217.835C217.372,213.88,217.731,210.019,218.077,206.249C218.413,202.569,218.75,198.973,219.072,195.456C219.093,195.456,219.122,195.456,219.151,195.456C218.822,198.973,218.498,202.569,218.16,206.249C217.811,210.02,217.455,213.88,217.093,217.835Z" opacity="0.25" clip-rule="evenodd" fill="rgb(7,129,255)" fill-rule="evenodd" stroke="none" stroke-width="1"/><path id="e1w97gc35qn124" d="M220.122,217.835C220.099,217.835,220.068,217.835,220.044,217.835C220.37,213.874,220.69,210.009,221.003,206.235C221.309,202.551,221.6,198.952,221.896,195.428C221.918,195.428,221.945,195.428,221.969,195.428C221.681,198.95,221.383,202.549,221.079,206.233C220.766,210.009,220.453,213.876,220.122,217.835Z" opacity="0.25" clip-rule="evenodd" fill="rgb(7,129,255)" fill-rule="evenodd" stroke="none" stroke-width="1"/><path id="e1w97gc35qn125" d="M223.149,217.835C223.126,217.835,223.095,217.835,223.073,217.835C223.361,213.871,223.645,210,223.923,206.222C224.195,202.533,224.459,198.93,224.723,195.405C224.745,195.405,224.766,195.405,224.795,195.405C224.54,198.93,224.276,202.534,224.007,206.222C223.728,210.002,223.444,213.871,223.149,217.835Z" opacity="0.25" clip-rule="evenodd" fill="rgb(7,129,255)" fill-rule="evenodd" stroke="none" stroke-width="1"/><path id="e1w97gc35qn126" d="M226.195,217.835C226.164,217.835,226.141,217.835,226.119,217.835C226.378,213.867,226.626,209.993,226.868,206.208C227.103,202.516,227.334,198.91,227.557,195.381C227.579,195.381,227.6,195.381,227.629,195.381C227.407,198.91,227.177,202.518,226.942,206.209C226.698,209.993,226.452,213.867,226.195,217.835Z" opacity="0.25" clip-rule="evenodd" fill="rgb(7,129,255)" fill-rule="evenodd" stroke="none" stroke-width="1"/><path id="e1w97gc35qn127" d="M229.239,217.835C229.208,217.835,229.185,217.835,229.163,217.835C229.384,213.862,229.595,209.984,229.801,206.195C230.002,202.5,230.207,198.886,230.396,195.356C230.418,195.356,230.44,195.356,230.469,195.354C230.281,198.885,230.076,202.498,229.876,206.193C229.669,209.984,229.458,213.862,229.239,217.835Z" opacity="0.25" clip-rule="evenodd" fill="rgb(7,129,255)" fill-rule="evenodd" stroke="none" stroke-width="1"/><path id="e1w97gc35qn128" d="M232.297,217.835C232.266,217.835,232.235,217.835,232.212,217.835C232.395,213.858,232.57,209.972,232.74,206.182C232.906,202.48,233.076,198.867,233.239,195.331C233.261,195.331,233.29,195.331,233.319,195.331C233.156,198.865,232.988,202.48,232.821,206.182C232.653,209.973,232.48,213.858,232.297,217.835Z" opacity="0.25" clip-rule="evenodd" fill="rgb(7,129,255)" fill-rule="evenodd" stroke="none" stroke-width="1"/><path id="e1w97gc35qn129" d="M235.364,217.835C235.333,217.835,235.303,217.835,235.279,217.835C235.424,213.853,235.558,209.964,235.697,206.17C235.831,202.464,235.964,198.847,236.087,195.307C236.109,195.307,236.138,195.307,236.167,195.305C236.039,198.845,235.914,202.464,235.78,206.168C235.643,209.964,235.501,213.853,235.364,217.835Z" opacity="0.25" clip-rule="evenodd" fill="rgb(7,129,255)" fill-rule="evenodd" stroke="none" stroke-width="1"/><path id="e1w97gc35qn130" d="M238.44,217.835C238.41,217.835,238.379,217.835,238.355,217.835C238.455,213.849,238.56,209.955,238.663,206.157C238.762,202.447,238.862,198.825,238.958,195.282C238.979,195.282,239.001,195.282,239.03,195.282C238.941,198.823,238.846,202.447,238.746,206.157C238.643,209.955,238.538,213.849,238.44,217.835Z" opacity="0.25" clip-rule="evenodd" fill="rgb(7,129,255)" fill-rule="evenodd" stroke="none" stroke-width="1"/><path id="e1w97gc35qn131" d="M241.506,217.836C241.475,217.836,241.452,217.836,241.43,217.836C241.491,213.842,241.56,209.946,241.627,206.141C241.692,202.43,241.755,198.804,241.811,195.257C241.833,195.257,241.862,195.257,241.891,195.257C241.837,198.804,241.774,202.43,241.71,206.141C241.642,209.946,241.575,213.842,241.506,217.836Z" opacity="0.25" clip-rule="evenodd" fill="rgb(7,129,255)" fill-rule="evenodd" stroke="none" stroke-width="1"/><path id="e1w97gc35qn132" d="M244.596,217.835C244.566,217.835,244.535,217.835,244.511,217.835C244.542,213.838,244.569,209.939,244.596,206.13C244.622,202.413,244.656,198.783,244.685,195.233C244.707,195.233,244.736,195.233,244.765,195.233C244.736,198.783,244.709,202.413,244.68,206.13C244.649,209.937,244.627,213.837,244.596,217.835Z" opacity="0.25" clip-rule="evenodd" fill="rgb(7,129,255)" fill-rule="evenodd" stroke="none" stroke-width="1"/><path id="e1w97gc35qn133" d="M247.687,217.835C247.656,217.835,247.633,217.835,247.611,217.835C247.604,213.833,247.591,209.93,247.586,206.115C247.58,202.397,247.575,198.762,247.57,195.208C247.591,195.208,247.613,195.208,247.642,195.208C247.647,198.762,247.655,202.397,247.66,206.115C247.664,209.928,247.68,213.833,247.687,217.835Z" opacity="0.25" clip-rule="evenodd" fill="rgb(7,129,255)" fill-rule="evenodd" stroke="none" stroke-width="1"/><path id="e1w97gc35qn134" d="M250.785,217.835C250.754,217.835,250.724,217.835,250.7,217.835C250.657,213.829,250.612,209.919,250.57,206.103C250.528,202.377,250.489,198.74,250.443,195.183C250.465,195.183,250.494,195.183,250.523,195.183C250.57,198.74,250.61,202.377,250.651,206.103C250.695,209.917,250.738,213.828,250.785,217.835Z" opacity="0.25" clip-rule="evenodd" fill="rgb(7,129,255)" fill-rule="evenodd" stroke="none" stroke-width="1"/><path id="e1w97gc35qn135" d="M253.89,217.836C253.859,217.836,253.829,217.836,253.805,217.836C253.722,213.824,253.642,209.91,253.563,206.09C253.487,202.361,253.406,198.72,253.333,195.159C253.355,195.159,253.384,195.159,253.413,195.159C253.487,198.72,253.568,202.361,253.646,206.09C253.724,209.908,253.807,213.824,253.89,217.836Z" opacity="0.25" clip-rule="evenodd" fill="rgb(7,129,255)" fill-rule="evenodd" stroke="none" stroke-width="1"/><path id="e1w97gc35qn136" d="M257.003,217.833C256.972,217.833,256.949,217.833,256.925,217.833C256.804,213.818,256.679,209.899,256.563,206.074C256.451,202.343,256.343,198.698,256.236,195.132C256.258,195.132,256.28,195.132,256.308,195.132C256.415,198.697,256.525,202.343,256.638,206.074C256.755,209.901,256.882,213.818,257.003,217.833Z" opacity="0.25" clip-rule="evenodd" fill="rgb(7,129,255)" fill-rule="evenodd" stroke="none" stroke-width="1"/><path id="e1w97gc35qn137" d="M260.131,217.833C260.101,217.833,260.07,217.833,260.046,217.833C259.88,213.813,259.728,209.89,259.573,206.059C259.422,202.323,259.274,198.675,259.133,195.106C259.155,195.106,259.184,195.106,259.213,195.106C259.354,198.677,259.506,202.325,259.654,206.059C259.808,209.892,259.963,213.815,260.131,217.833Z" opacity="0.25" clip-rule="evenodd" fill="rgb(7,129,255)" fill-rule="evenodd" stroke="none" stroke-width="1"/><path id="e1w97gc35qn138" d="M263.253,217.833C263.222,217.833,263.192,217.833,263.168,217.833C262.971,213.809,262.77,209.883,262.582,206.047C262.399,202.307,262.213,198.655,262.04,195.081C262.061,195.081,262.09,195.081,262.119,195.079C262.302,198.653,262.477,202.307,262.665,206.045C262.857,209.883,263.054,213.809,263.253,217.833Z" opacity="0.25" clip-rule="evenodd" fill="rgb(7,129,255)" fill-rule="evenodd" stroke="none" stroke-width="1"/><path id="e1w97gc35qn139" d="M266.389,217.833C266.358,217.833,266.334,217.833,266.311,217.833C266.074,213.805,265.837,209.87,265.613,206.034C265.394,202.29,265.172,198.633,264.964,195.056C264.985,195.056,265.007,195.056,265.036,195.056C265.246,198.633,265.468,202.29,265.687,206.034C265.913,209.87,266.152,213.805,266.389,217.833Z" opacity="0.25" clip-rule="evenodd" fill="rgb(7,129,255)" fill-rule="evenodd" stroke="none" stroke-width="1"/><path id="e1w97gc35qn140" d="M269.541,217.834C269.503,217.834,269.472,217.834,269.449,217.834C269.174,213.8,268.897,209.861,268.637,206.022C268.382,202.27,268.125,198.61,267.883,195.031C267.904,195.031,267.933,195.031,267.962,195.029C268.206,198.608,268.459,202.269,268.718,206.02C268.984,209.863,269.257,213.8,269.541,217.834Z" opacity="0.25" clip-rule="evenodd" fill="rgb(7,129,255)" fill-rule="evenodd" stroke="none" stroke-width="1"/><path id="e1w97gc35qn141" d="M272.693,217.833C272.655,217.833,272.625,217.833,272.601,217.833C272.288,213.793,271.97,209.852,271.67,206.005C271.375,202.254,271.087,198.588,270.803,195.005C270.825,195.005,270.854,195.005,270.89,195.005C271.169,198.588,271.465,202.252,271.76,206.005C272.06,209.852,272.371,213.793,272.693,217.833Z" opacity="0.25" clip-rule="evenodd" fill="rgb(7,129,255)" fill-rule="evenodd" stroke="none" stroke-width="1"/><path id="e1w97gc35qn142" d="M275.844,217.833C275.813,217.833,275.789,217.833,275.766,217.833C275.406,213.789,275.059,209.845,274.72,205.992C274.391,202.236,274.06,198.568,273.748,194.98C273.769,194.98,273.791,194.98,273.82,194.98C274.14,198.568,274.46,202.236,274.795,205.992C275.138,209.843,275.484,213.789,275.844,217.833Z" opacity="0.25" clip-rule="evenodd" fill="rgb(7,129,255)" fill-rule="evenodd" stroke="none" stroke-width="1"/><path id="e1w97gc35qn143" d="M279.019,217.834C278.988,217.834,278.95,217.834,278.927,217.834C278.536,213.784,278.147,209.836,277.768,205.98C277.399,202.22,277.035,198.547,276.683,194.955C276.704,194.955,276.74,194.955,276.769,194.953C277.124,198.545,277.48,202.218,277.851,205.978C278.229,209.834,278.62,213.784,279.019,217.834Z" opacity="0.25" clip-rule="evenodd" fill="rgb(7,129,255)" fill-rule="evenodd" stroke="none" stroke-width="1"/><path id="e1w97gc35qn144" d="M282.186,217.833C282.155,217.833,282.125,217.833,282.101,217.833C281.663,213.78,281.235,209.823,280.819,205.965C280.412,202.2,280.021,198.523,279.634,194.929C279.656,194.929,279.685,194.929,279.712,194.929C280.101,198.525,280.502,202.202,280.906,205.967C281.323,209.823,281.748,213.779,282.186,217.833Z" opacity="0.25" clip-rule="evenodd" fill="rgb(7,129,255)" fill-rule="evenodd" stroke="none" stroke-width="1"/><path id="e1w97gc35qn145" d="M282.654,198.109C270.358,198.203,258.2,198.291,246.152,198.382C234.203,198.47,222.372,198.561,210.655,198.648C210.658,198.619,210.662,198.59,210.666,198.559C222.379,198.47,234.209,198.382,246.152,198.293C258.198,198.203,270.351,198.111,282.645,198.018C282.647,198.049,282.651,198.078,282.654,198.109Z" opacity="0.25" clip-rule="evenodd" fill="rgb(7,129,255)" fill-rule="evenodd" stroke="none" stroke-width="1"/><path id="e1w97gc35qn146" d="M283.018,201.216C270.599,201.295,258.312,201.375,246.141,201.451C234.08,201.527,222.13,201.603,210.297,201.679C210.3,201.646,210.304,201.617,210.308,201.587C222.137,201.511,234.084,201.435,246.141,201.359C258.307,201.281,270.592,201.205,283.007,201.125C283.011,201.154,283.014,201.187,283.018,201.216Z" opacity="0.25" clip-rule="evenodd" fill="rgb(7,129,255)" fill-rule="evenodd" stroke="none" stroke-width="1"/><path id="e1w97gc35qn147" d="M283.379,204.392C270.841,204.457,258.429,204.52,246.13,204.582C233.948,204.643,221.884,204.706,209.929,204.768C209.933,204.737,209.937,204.705,209.94,204.672C221.891,204.612,233.95,204.549,246.13,204.486C258.426,204.422,270.834,204.357,283.368,204.292C283.372,204.327,283.376,204.359,283.379,204.392Z" opacity="0.25" clip-rule="evenodd" fill="rgb(7,129,255)" fill-rule="evenodd" stroke="none" stroke-width="1"/><path id="e1w97gc35qn148" d="M283.758,207.629C271.086,207.678,258.546,207.727,246.127,207.774C233.82,207.823,221.623,207.87,209.555,207.919C209.559,207.886,209.563,207.852,209.566,207.821C221.638,207.772,233.822,207.727,246.125,207.678C258.54,207.629,271.075,207.579,283.745,207.528C283.749,207.562,283.754,207.597,283.758,207.629Z" opacity="0.25" clip-rule="evenodd" fill="rgb(7,129,255)" fill-rule="evenodd" stroke="none" stroke-width="1"/><path id="e1w97gc35qn149" d="M284.143,210.937C271.338,210.972,258.663,211.004,246.115,211.039C233.682,211.073,221.366,211.104,209.175,211.136C209.179,211.106,209.183,211.071,209.186,211.037C221.375,211.003,233.686,210.97,246.115,210.937C258.659,210.905,271.331,210.869,284.13,210.836C284.134,210.871,284.137,210.905,284.143,210.937Z" opacity="0.25" clip-rule="evenodd" fill="rgb(7,129,255)" fill-rule="evenodd" stroke="none" stroke-width="1"/><path id="e1w97gc35qn150" d="M284.535,214.314C271.597,214.334,258.788,214.348,246.103,214.366C233.539,214.383,221.104,214.401,208.785,214.419C208.788,214.384,208.792,214.35,208.797,214.316C221.113,214.299,233.545,214.28,246.105,214.263C258.788,214.247,271.592,214.227,284.524,214.209C284.528,214.245,284.531,214.28,284.535,214.314Z" opacity="0.25" clip-rule="evenodd" fill="rgb(7,129,255)" fill-rule="evenodd" stroke="none" stroke-width="1"/><path id="e1w97gc35qn151" d="M285.094,217.98C271.964,217.98,258.95,217.98,246.092,217.98C233.348,217.98,220.721,217.98,208.222,217.98C208.7,213.974,209.166,210.067,209.62,206.251C210.063,202.529,210.497,198.888,210.921,195.332C222.551,195.231,234.303,195.126,246.157,195.023C258.11,194.918,270.185,194.813,282.374,194.705C282.801,198.355,283.237,202.089,283.685,205.916C284.141,209.836,284.611,213.858,285.094,217.98ZM208.533,217.633C220.925,217.631,233.454,217.629,246.092,217.627C258.846,217.625,271.744,217.624,284.767,217.622C284.302,213.625,283.85,209.722,283.408,205.915C282.978,202.198,282.555,198.566,282.144,195.016C270.029,195.121,258.034,195.226,246.148,195.327C234.377,195.428,222.698,195.53,211.134,195.631C210.725,199.091,210.306,202.628,209.879,206.247C209.441,209.955,208.993,213.75,208.533,217.633Z" clip-rule="evenodd" fill="rgb(61,179,230)" fill-rule="evenodd" stroke="none" stroke-width="1"/><path id="e1w97gc35qn152" d="M210.096,228.106L282.119,228.106C283.15,228.106,283.993,228.949,283.993,229.98C283.993,231.011,283.15,231.854,282.119,231.854L210.096,231.854C209.065,231.854,208.222,231.011,208.222,229.98C208.222,228.949,209.065,228.106,210.096,228.106Z" clip-rule="evenodd" fill="rgb(129,240,246)" fill-rule="evenodd" stroke="none" stroke-width="1"/><g id="e1w97gc35qn153_to" transform="translate(223.817001,229.980003)"><g id="e1w97gc35qn153_ts" transform="scale(1,1)"><path id="e1w97gc35qn153" d="M210.096,228.106L237.538,228.106C238.569,228.106,239.412,228.949,239.412,229.98C239.412,231.011,238.569,231.854,237.538,231.854L210.096,231.854C209.065,231.854,208.222,231.011,208.222,229.98C208.222,228.949,209.065,228.106,210.096,228.106Z" transform="translate(-223.817001,-229.980003)" clip-rule="evenodd" fill="rgb(255,251,145)" fill-rule="evenodd" stroke="none" stroke-width="1"/></g></g><g id="e1w97gc35qn154_to" transform="translate(217.015503,212.129997)"><g id="e1w97gc35qn154_tr" transform="rotate(-1.184402)"><g id="e1w97gc35qn154_ts" transform="scale(1.105329,1)"><path id="e1w97gc35qn154" d="M206.434,188.174L230.304,188.174L217.79,236.086L201.727,236.086L206.434,188.174Z" transform="translate(-216.015503,-212.129997)" opacity="0.13" clip-rule="evenodd" fill="rgb(255,255,255)" fill-rule="evenodd" stroke="none" stroke-width="1"/></g></g></g><g id="e1w97gc35qn155_to" transform="translate(256.783997,212.129997)"><path id="e1w97gc35qn155" d="M240.113,188.174L285.969,188.174L273.455,236.086L227.599,236.086L240.113,188.174Z" transform="translate(-256.783997,-212.129997)" opacity="0.13" clip-rule="evenodd" fill="rgb(255,255,255)" fill-rule="evenodd" stroke="none" stroke-width="1"/></g></g><mask id="e1w97gc35qn156" mask-type="alpha"><path id="e1w97gc35qn157" d="M71.8119,329.999C71.4088,329.288,71.1169,328.503,70.9877,327.679C70.9088,327.174,70.7651,326.699,70.623,326.229C70.2843,325.109,69.9544,324.019,70.5307,322.627C71.2102,320.983,72.6445,320.143,74.1565,319.65C80.1669,317.693,86.3485,320.61,92.317,323.427C95.4515,324.906,98.5271,326.358,101.488,327.061C105.211,327.945,109.022,328.316,112.812,328.663C113.7,328.745,114.594,328.821,115.491,328.897C122.124,329.459,128.955,330.038,135.045,333.083C138.587,334.853,140.836,337.585,143.093,340.327C145.037,342.688,146.988,345.057,149.775,346.827C155.74,350.617,163.775,351.424,171.405,352.191C173.09,352.36,174.755,352.528,176.374,352.725C193.025,354.75,201.229,361.091,212.068,372.103C218.455,378.591,224.309,384.396,233.847,387.12C236.22,387.798,239.048,388.164,241.983,388.543C248.916,389.438,256.444,390.411,259.975,395.766C263.3,400.809,258.064,406.042,251.921,407.703C244.889,409.605,238.506,406.848,232.771,404.37C232.119,404.089,231.476,403.811,230.842,403.544C229.658,403.047,228.792,402.485,227.979,401.958C226.614,401.074,225.398,400.285,223.079,400.057C219.626,399.717,218.464,400.543,217.094,401.518C216.225,402.136,215.271,402.815,213.593,403.293C206.077,405.434,203.351,403.74,199.445,401.312C197.938,400.375,196.255,399.329,194.054,398.352C186.757,395.113,183.388,397.207,178.255,400.399C177.322,400.979,176.331,401.595,175.248,402.222C168.833,405.935,156.835,408.738,148.692,408.983C129.327,409.566,113.609,394.999,106.386,381.231C103.76,376.225,103.062,370.741,102.374,365.327C101.218,356.24,100.087,347.352,89.9087,341.266C87.7876,339.997,85.5193,339.063,83.2953,338.147C78.7286,336.266,74.3484,334.462,71.8119,329.999ZM1.28726,235.023C-2.41152,227.422,2.67253,214.844,6.32466,212.137C17.3168,203.991,20.8478,216.149,23.2343,224.365C24.0776,227.269,24.7779,229.68,25.6141,230.53C28.8165,233.781,35.7571,252.553,27.3176,259.146C18.878,265.739,12.2939,259.24,10.2184,250.813C9.0078,245.901,7.43047,243.933,5.5926,241.64C4.27786,240,2.82979,238.193,1.28726,235.023ZM406.843,53.707C409.444,54.4501,412.201,55.2377,415.226,56.3848C421.67,58.8296,424.067,60.9961,424.139,64.2352C424.234,68.5485,420.357,71.6499,416.596,70.373C416.141,70.2187,415.686,70.0632,415.231,69.9076C409.985,68.1154,404.693,66.3074,399.478,66.0583C395.458,65.8661,391.357,66.7294,387.326,67.578C383.928,68.2933,380.579,68.9983,377.37,69.0523C373.093,69.1242,368.14,66.7745,363.044,64.3572C355.058,60.5685,346.721,56.6137,340.089,61.5559C339.012,62.3578,337.711,62.7314,336.413,62.6164C332.409,62.2627,328.33,59.1398,324.402,56.1321C321.576,53.969,318.829,51.8654,316.243,50.8945C313.695,49.9373,310.628,49.4341,307.535,48.9265C302.077,48.0308,296.536,47.1215,293.61,43.681C285.299,33.9109,298.895,33.7991,309.103,33.7152C312.726,33.6854,315.923,33.6591,317.561,33.2057C322.311,31.8916,326.068,29.6075,329.463,27.5438C336.682,23.1545,342.26,19.7629,352.266,28.8259C354.102,30.4892,355.527,32.09,356.842,33.5662C360.369,37.5268,363.097,40.5904,370.813,41.5569C374.054,41.9634,376.481,42.0116,378.508,42.0518C383.257,42.146,385.812,42.1967,391.487,46.7083C396.616,50.785,401.387,52.1481,406.843,53.707ZM453.631,125.458C458.995,127.773,464.49,130.144,469.591,133.919C487.027,146.823,485.103,175.825,459.488,179.955C445.58,182.199,432.311,187.264,444.665,199.753C446.067,201.171,447.438,202.439,448.732,203.635C454.267,208.754,458.391,212.568,457.549,221.245C456.929,227.643,454.54,231.239,451.872,235.255C450.375,237.507,448.791,239.892,447.381,242.978C444.014,250.35,446.558,254.876,449.49,260.092C450.715,262.271,452.008,264.571,452.965,267.249C460.058,287.094,437.42,294.038,419.484,299.54C416.923,300.325,414.458,301.081,412.189,301.841C403.193,304.855,393.459,310.256,393.586,319.659C393.707,328.726,399.725,334.4,406.013,340.33C407.416,341.653,408.833,342.989,410.201,344.378C416.701,350.982,423.808,359.719,419.395,368.221C414.504,377.648,406.902,381.156,395.906,379.111C387.672,377.58,380.903,373.672,374.066,369.726C370.217,367.505,366.347,365.271,362.182,363.442C359.546,362.284,356.779,360.805,353.926,359.28C346.712,355.424,338.944,351.271,331.335,351.269C328.253,351.269,325.794,352,323.218,352.766C321.125,353.388,318.954,354.033,316.31,354.328C311.128,354.906,305.994,354.356,300.996,353.821C298.803,353.586,296.636,353.354,294.502,353.221C286.761,352.738,280.207,350.061,273.704,347.404C267.239,344.762,260.824,342.141,253.341,341.717C245.557,341.275,238.509,343.132,231.395,345.007C225.727,346.5,220.018,348.005,213.859,348.367C200.596,349.15,188.107,345.794,177.306,339.562C172.772,336.946,168.795,333.461,164.839,329.994C160.452,326.15,156.09,322.328,151.019,319.734C146.263,317.301,139.281,315.57,133.294,314.085C131.999,313.764,130.751,313.454,129.582,313.152C122.37,311.286,114.751,310.06,107.175,308.842C101.176,307.877,95.2028,306.916,89.4804,305.645C64.0913,300.006,51.2568,285.434,46.6848,262.529C45.4908,256.547,45.0916,250.857,44.7095,245.409C43.7722,232.048,42.9373,220.145,30.7304,208.977C29.9533,208.266,29.1612,207.56,28.3688,206.854C21.7141,200.923,15.0358,194.971,17.0155,185.778C17.7972,182.148,19.2244,179.447,20.5973,176.848C22.4282,173.382,24.1627,170.099,24.1415,165.039C24.1379,164.02,23.9071,163.017,23.4752,162.113C18.8505,152.449,13.3287,140.665,14.3,133.213C17.331,109.956,39.1841,106.26,61.2163,102.534C76.0535,100.025,90.9718,97.5015,100.278,88.9817C106.358,83.415,105.891,75.4518,105.425,67.5098C105.118,62.2744,104.811,57.0482,106.381,52.5239C106.918,50.975,107.958,49.3577,108.971,47.7823C110.075,46.0664,111.146,44.4003,111.501,42.9261C112.126,40.3309,111.652,37.3383,111.19,34.4289C110.92,32.7232,110.654,31.0462,110.617,29.4946C109.802,-4.49411,159.457,-5.62576,184.607,8.61813C187.936,10.5041,190.983,12.7212,194.022,14.9327C197.161,17.2166,200.292,19.4945,203.717,21.3961C205.366,22.3116,207.257,23.5241,209.265,24.8108C213.856,27.7531,219.052,31.0839,223.335,32.1407C225.835,32.7571,228.276,32.7787,230.746,32.8006C233.939,32.8288,237.18,32.8575,240.658,34.171C247.392,36.7126,253.519,39.7399,258.311,44.3815C268.299,54.0564,276.434,59.7056,292.597,58.9643C308.199,58.2487,317.866,60.7102,329.779,69.0825C341.351,77.2174,357.627,76.4462,372.452,75.7438C373.585,75.6901,374.71,75.6369,375.823,75.588C391.713,74.8905,402.533,77.8059,412.927,87.1299C417.771,91.4759,421.376,96.5551,425.006,101.669C428.087,106.011,431.187,110.378,435.078,114.342C440.371,119.735,446.899,122.552,453.631,125.458Z" transform="matrix(1 0 0 1 0.000001 0.000001)" clip-rule="evenodd" fill="rgb(233,241,242)" fill-rule="evenodd" stroke="none" stroke-width="1"/></mask></g></svg>