<svg id="elFI2iWvjAw1" xmlns="http://www.w3.org/2000/svg" xmlns:xlink="http://www.w3.org/1999/xlink" viewBox="0 0 481 409" shape-rendering="geometricPrecision" text-rendering="geometricPrecision"><style><![CDATA[#elFI2iWvjAw4_to {animation: elFI2iWvjAw4_to__to 3000ms linear infinite alternate forwards}@keyframes elFI2iWvjAw4_to__to { 0% {transform: translate(108.608765px,184.500027px)} 100% {transform: translate(308.996334px,246.311119px)}} #elFI2iWvjAw47 {animation: elFI2iWvjAw47_c_o 3000ms linear infinite alternate forwards}@keyframes elFI2iWvjAw47_c_o { 0% {opacity: 0} 16.666667% {opacity: 1} 100% {opacity: 1}} #elFI2iWvjAw51 {animation: elFI2iWvjAw51_c_o 3000ms linear infinite alternate forwards}@keyframes elFI2iWvjAw51_c_o { 0% {opacity: 0} 10% {opacity: 0} 26.666667% {opacity: 1} 100% {opacity: 1}} #elFI2iWvjAw55 {animation: elFI2iWvjAw55_c_o 3000ms linear infinite alternate forwards}@keyframes elFI2iWvjAw55_c_o { 0% {opacity: 0} 20% {opacity: 0} 33.333333% {opacity: 1} 100% {opacity: 1}} #elFI2iWvjAw59 {animation: elFI2iWvjAw59_c_o 3000ms linear infinite alternate forwards}@keyframes elFI2iWvjAw59_c_o { 0% {opacity: 0} 33.333333% {opacity: 0} 50% {opacity: 1} 100% {opacity: 1}} #elFI2iWvjAw63 {animation: elFI2iWvjAw63_c_o 3000ms linear infinite alternate forwards}@keyframes elFI2iWvjAw63_c_o { 0% {opacity: 0} 66.666667% {opacity: 0} 83.333333% {opacity: 1} 100% {opacity: 1}} #elFI2iWvjAw67 {animation: elFI2iWvjAw67_c_o 3000ms linear infinite alternate forwards}@keyframes elFI2iWvjAw67_c_o { 0% {opacity: 0} 50% {opacity: 0} 66.666667% {opacity: 1} 100% {opacity: 1}}]]></style><defs><linearGradient id="elFI2iWvjAw5-fill" x1="108.609" y1="-16" x2="108.609" y2="385" spreadMethod="pad" gradientUnits="userSpaceOnUse" gradientTransform="matrix(1 0 0 1 0 0)"><stop id="elFI2iWvjAw5-fill-0" offset="2.08333%" stop-color="rgb(152,190,44)"/><stop id="elFI2iWvjAw5-fill-1" offset="100%" stop-color="rgb(136,108,36)"/></linearGradient><linearGradient id="elFI2iWvjAw6-fill" x1="108.609" y1="-16" x2="108.609" y2="385" spreadMethod="pad" gradientUnits="userSpaceOnUse" gradientTransform="matrix(1 0 0 1 0 0)"><stop id="elFI2iWvjAw6-fill-0" offset="2.08333%" stop-color="rgb(152,190,44)"/><stop id="elFI2iWvjAw6-fill-1" offset="100%" stop-color="rgb(136,108,36)"/></linearGradient><linearGradient id="elFI2iWvjAw7-fill" x1="108.609" y1="-16" x2="108.609" y2="385" spreadMethod="pad" gradientUnits="userSpaceOnUse" gradientTransform="matrix(1 0 0 1 0 0)"><stop id="elFI2iWvjAw7-fill-0" offset="2.08333%" stop-color="rgb(152,190,44)"/><stop id="elFI2iWvjAw7-fill-1" offset="100%" stop-color="rgb(136,108,36)"/></linearGradient><linearGradient id="elFI2iWvjAw8-fill" x1="108.609" y1="-16" x2="108.609" y2="385" spreadMethod="pad" gradientUnits="userSpaceOnUse" gradientTransform="matrix(1 0 0 1 0 0)"><stop id="elFI2iWvjAw8-fill-0" offset="2.08333%" stop-color="rgb(152,190,44)"/><stop id="elFI2iWvjAw8-fill-1" offset="100%" stop-color="rgb(136,108,36)"/></linearGradient><linearGradient id="elFI2iWvjAw9-fill" x1="108.609" y1="-16" x2="108.609" y2="385" spreadMethod="pad" gradientUnits="userSpaceOnUse" gradientTransform="matrix(1 0 0 1 0 0)"><stop id="elFI2iWvjAw9-fill-0" offset="2.08333%" stop-color="rgb(152,190,44)"/><stop id="elFI2iWvjAw9-fill-1" offset="100%" stop-color="rgb(136,108,36)"/></linearGradient><linearGradient id="elFI2iWvjAw10-fill" x1="108.609" y1="-16" x2="108.609" y2="385" spreadMethod="pad" gradientUnits="userSpaceOnUse" gradientTransform="matrix(1 0 0 1 0 0)"><stop id="elFI2iWvjAw10-fill-0" offset="2.08333%" stop-color="rgb(152,190,44)"/><stop id="elFI2iWvjAw10-fill-1" offset="100%" stop-color="rgb(136,108,36)"/></linearGradient><linearGradient id="elFI2iWvjAw11-fill" x1="108.609" y1="-16" x2="108.609" y2="385" spreadMethod="pad" gradientUnits="userSpaceOnUse" gradientTransform="matrix(1 0 0 1 0 0)"><stop id="elFI2iWvjAw11-fill-0" offset="2.08333%" stop-color="rgb(152,190,44)"/><stop id="elFI2iWvjAw11-fill-1" offset="100%" stop-color="rgb(136,108,36)"/></linearGradient><linearGradient id="elFI2iWvjAw12-fill" x1="108.609" y1="-16" x2="108.609" y2="385" spreadMethod="pad" gradientUnits="userSpaceOnUse" gradientTransform="matrix(1 0 0 1 0 0)"><stop id="elFI2iWvjAw12-fill-0" offset="2.08333%" stop-color="rgb(152,190,44)"/><stop id="elFI2iWvjAw12-fill-1" offset="100%" stop-color="rgb(136,108,36)"/></linearGradient><linearGradient id="elFI2iWvjAw13-fill" x1="108.609" y1="-16" x2="108.609" y2="385" spreadMethod="pad" gradientUnits="userSpaceOnUse" gradientTransform="matrix(1 0 0 1 0 0)"><stop id="elFI2iWvjAw13-fill-0" offset="2.08333%" stop-color="rgb(152,190,44)"/><stop id="elFI2iWvjAw13-fill-1" offset="100%" stop-color="rgb(136,108,36)"/></linearGradient><linearGradient id="elFI2iWvjAw14-fill" x1="108.609" y1="-16" x2="108.609" y2="385" spreadMethod="pad" gradientUnits="userSpaceOnUse" gradientTransform="matrix(1 0 0 1 0 0)"><stop id="elFI2iWvjAw14-fill-0" offset="2.08333%" stop-color="rgb(152,190,44)"/><stop id="elFI2iWvjAw14-fill-1" offset="100%" stop-color="rgb(136,108,36)"/></linearGradient><linearGradient id="elFI2iWvjAw15-fill" x1="108.609" y1="-16" x2="108.609" y2="385" spreadMethod="pad" gradientUnits="userSpaceOnUse" gradientTransform="matrix(1 0 0 1 0 0)"><stop id="elFI2iWvjAw15-fill-0" offset="2.08333%" stop-color="rgb(152,190,44)"/><stop id="elFI2iWvjAw15-fill-1" offset="100%" stop-color="rgb(136,108,36)"/></linearGradient><linearGradient id="elFI2iWvjAw16-fill" x1="108.609" y1="-16" x2="108.609" y2="385" spreadMethod="pad" gradientUnits="userSpaceOnUse" gradientTransform="matrix(1 0 0 1 0 0)"><stop id="elFI2iWvjAw16-fill-0" offset="2.08333%" stop-color="rgb(152,190,44)"/><stop id="elFI2iWvjAw16-fill-1" offset="100%" stop-color="rgb(136,108,36)"/></linearGradient><linearGradient id="elFI2iWvjAw17-fill" x1="108.609" y1="-16" x2="108.609" y2="385" spreadMethod="pad" gradientUnits="userSpaceOnUse" gradientTransform="matrix(1 0 0 1 0 0)"><stop id="elFI2iWvjAw17-fill-0" offset="2.08333%" stop-color="rgb(152,190,44)"/><stop id="elFI2iWvjAw17-fill-1" offset="100%" stop-color="rgb(136,108,36)"/></linearGradient><linearGradient id="elFI2iWvjAw18-fill" x1="108.609" y1="-16" x2="108.609" y2="385" spreadMethod="pad" gradientUnits="userSpaceOnUse" gradientTransform="matrix(1 0 0 1 0 0)"><stop id="elFI2iWvjAw18-fill-0" offset="2.08333%" stop-color="rgb(152,190,44)"/><stop id="elFI2iWvjAw18-fill-1" offset="100%" stop-color="rgb(136,108,36)"/></linearGradient><linearGradient id="elFI2iWvjAw19-fill" x1="108.609" y1="-16" x2="108.609" y2="385" spreadMethod="pad" gradientUnits="userSpaceOnUse" gradientTransform="matrix(1 0 0 1 0 0)"><stop id="elFI2iWvjAw19-fill-0" offset="2.08333%" stop-color="rgb(152,190,44)"/><stop id="elFI2iWvjAw19-fill-1" offset="100%" stop-color="rgb(136,108,36)"/></linearGradient><linearGradient id="elFI2iWvjAw20-fill" x1="108.609" y1="-16" x2="108.609" y2="385" spreadMethod="pad" gradientUnits="userSpaceOnUse" gradientTransform="matrix(1 0 0 1 0 0)"><stop id="elFI2iWvjAw20-fill-0" offset="2.08333%" stop-color="rgb(152,190,44)"/><stop id="elFI2iWvjAw20-fill-1" offset="100%" stop-color="rgb(136,108,36)"/></linearGradient><linearGradient id="elFI2iWvjAw21-fill" x1="108.609" y1="-16" x2="108.609" y2="385" spreadMethod="pad" gradientUnits="userSpaceOnUse" gradientTransform="matrix(1 0 0 1 0 0)"><stop id="elFI2iWvjAw21-fill-0" offset="2.08333%" stop-color="rgb(152,190,44)"/><stop id="elFI2iWvjAw21-fill-1" offset="100%" stop-color="rgb(136,108,36)"/></linearGradient><linearGradient id="elFI2iWvjAw22-fill" x1="108.609" y1="-16" x2="108.609" y2="385" spreadMethod="pad" gradientUnits="userSpaceOnUse" gradientTransform="matrix(1 0 0 1 0 0)"><stop id="elFI2iWvjAw22-fill-0" offset="2.08333%" stop-color="rgb(152,190,44)"/><stop id="elFI2iWvjAw22-fill-1" offset="100%" stop-color="rgb(136,108,36)"/></linearGradient><linearGradient id="elFI2iWvjAw23-fill" x1="108.609" y1="-16" x2="108.609" y2="385" spreadMethod="pad" gradientUnits="userSpaceOnUse" gradientTransform="matrix(1 0 0 1 0 0)"><stop id="elFI2iWvjAw23-fill-0" offset="2.08333%" stop-color="rgb(152,190,44)"/><stop id="elFI2iWvjAw23-fill-1" offset="100%" stop-color="rgb(136,108,36)"/></linearGradient><linearGradient id="elFI2iWvjAw24-fill" x1="108.609" y1="-16" x2="108.609" y2="385" spreadMethod="pad" gradientUnits="userSpaceOnUse" gradientTransform="matrix(1 0 0 1 0 0)"><stop id="elFI2iWvjAw24-fill-0" offset="2.08333%" stop-color="rgb(152,190,44)"/><stop id="elFI2iWvjAw24-fill-1" offset="100%" stop-color="rgb(136,108,36)"/></linearGradient><linearGradient id="elFI2iWvjAw25-fill" x1="108.609" y1="-16" x2="108.609" y2="385" spreadMethod="pad" gradientUnits="userSpaceOnUse" gradientTransform="matrix(1 0 0 1 0 0)"><stop id="elFI2iWvjAw25-fill-0" offset="2.08333%" stop-color="rgb(152,190,44)"/><stop id="elFI2iWvjAw25-fill-1" offset="100%" stop-color="rgb(136,108,36)"/></linearGradient><linearGradient id="elFI2iWvjAw26-fill" x1="108.609" y1="-16" x2="108.609" y2="385" spreadMethod="pad" gradientUnits="userSpaceOnUse" gradientTransform="matrix(1 0 0 1 0 0)"><stop id="elFI2iWvjAw26-fill-0" offset="2.08333%" stop-color="rgb(152,190,44)"/><stop id="elFI2iWvjAw26-fill-1" offset="100%" stop-color="rgb(136,108,36)"/></linearGradient><linearGradient id="elFI2iWvjAw27-fill" x1="108.609" y1="-16" x2="108.609" y2="385" spreadMethod="pad" gradientUnits="userSpaceOnUse" gradientTransform="matrix(1 0 0 1 0 0)"><stop id="elFI2iWvjAw27-fill-0" offset="2.08333%" stop-color="rgb(152,190,44)"/><stop id="elFI2iWvjAw27-fill-1" offset="100%" stop-color="rgb(136,108,36)"/></linearGradient><linearGradient id="elFI2iWvjAw28-fill" x1="108.609" y1="-16" x2="108.609" y2="385" spreadMethod="pad" gradientUnits="userSpaceOnUse" gradientTransform="matrix(1 0 0 1 0 0)"><stop id="elFI2iWvjAw28-fill-0" offset="2.08333%" stop-color="rgb(152,190,44)"/><stop id="elFI2iWvjAw28-fill-1" offset="100%" stop-color="rgb(136,108,36)"/></linearGradient><linearGradient id="elFI2iWvjAw29-fill" x1="108.609" y1="-16" x2="108.609" y2="385" spreadMethod="pad" gradientUnits="userSpaceOnUse" gradientTransform="matrix(1 0 0 1 0 0)"><stop id="elFI2iWvjAw29-fill-0" offset="2.08333%" stop-color="rgb(152,190,44)"/><stop id="elFI2iWvjAw29-fill-1" offset="100%" stop-color="rgb(136,108,36)"/></linearGradient><linearGradient id="elFI2iWvjAw30-fill" x1="108.609" y1="-16" x2="108.609" y2="385" spreadMethod="pad" gradientUnits="userSpaceOnUse" gradientTransform="matrix(1 0 0 1 0 0)"><stop id="elFI2iWvjAw30-fill-0" offset="2.08333%" stop-color="rgb(152,190,44)"/><stop id="elFI2iWvjAw30-fill-1" offset="100%" stop-color="rgb(136,108,36)"/></linearGradient><linearGradient id="elFI2iWvjAw31-fill" x1="108.609" y1="-16" x2="108.609" y2="385" spreadMethod="pad" gradientUnits="userSpaceOnUse" gradientTransform="matrix(1 0 0 1 0 0)"><stop id="elFI2iWvjAw31-fill-0" offset="2.08333%" stop-color="rgb(152,190,44)"/><stop id="elFI2iWvjAw31-fill-1" offset="100%" stop-color="rgb(136,108,36)"/></linearGradient><linearGradient id="elFI2iWvjAw32-fill" x1="108.609" y1="-16" x2="108.609" y2="385" spreadMethod="pad" gradientUnits="userSpaceOnUse" gradientTransform="matrix(1 0 0 1 0 0)"><stop id="elFI2iWvjAw32-fill-0" offset="2.08333%" stop-color="rgb(152,190,44)"/><stop id="elFI2iWvjAw32-fill-1" offset="100%" stop-color="rgb(136,108,36)"/></linearGradient><linearGradient id="elFI2iWvjAw33-fill" x1="108.609" y1="-16" x2="108.609" y2="385" spreadMethod="pad" gradientUnits="userSpaceOnUse" gradientTransform="matrix(1 0 0 1 0 0)"><stop id="elFI2iWvjAw33-fill-0" offset="2.08333%" stop-color="rgb(152,190,44)"/><stop id="elFI2iWvjAw33-fill-1" offset="100%" stop-color="rgb(136,108,36)"/></linearGradient><linearGradient id="elFI2iWvjAw34-fill" x1="108.609" y1="-16" x2="108.609" y2="385" spreadMethod="pad" gradientUnits="userSpaceOnUse" gradientTransform="matrix(1 0 0 1 0 0)"><stop id="elFI2iWvjAw34-fill-0" offset="2.08333%" stop-color="rgb(152,190,44)"/><stop id="elFI2iWvjAw34-fill-1" offset="100%" stop-color="rgb(136,108,36)"/></linearGradient><linearGradient id="elFI2iWvjAw35-fill" x1="108.609" y1="-16" x2="108.609" y2="385" spreadMethod="pad" gradientUnits="userSpaceOnUse" gradientTransform="matrix(1 0 0 1 0 0)"><stop id="elFI2iWvjAw35-fill-0" offset="2.08333%" stop-color="rgb(152,190,44)"/><stop id="elFI2iWvjAw35-fill-1" offset="100%" stop-color="rgb(136,108,36)"/></linearGradient><linearGradient id="elFI2iWvjAw36-fill" x1="108.609" y1="-16" x2="108.609" y2="385" spreadMethod="pad" gradientUnits="userSpaceOnUse" gradientTransform="matrix(1 0 0 1 0 0)"><stop id="elFI2iWvjAw36-fill-0" offset="2.08333%" stop-color="rgb(152,190,44)"/><stop id="elFI2iWvjAw36-fill-1" offset="100%" stop-color="rgb(136,108,36)"/></linearGradient><linearGradient id="elFI2iWvjAw37-fill" x1="108.609" y1="-16" x2="108.609" y2="385" spreadMethod="pad" gradientUnits="userSpaceOnUse" gradientTransform="matrix(1 0 0 1 0 0)"><stop id="elFI2iWvjAw37-fill-0" offset="2.08333%" stop-color="rgb(152,190,44)"/><stop id="elFI2iWvjAw37-fill-1" offset="100%" stop-color="rgb(136,108,36)"/></linearGradient><linearGradient id="elFI2iWvjAw38-fill" x1="108.609" y1="-16" x2="108.609" y2="385" spreadMethod="pad" gradientUnits="userSpaceOnUse" gradientTransform="matrix(1 0 0 1 0 0)"><stop id="elFI2iWvjAw38-fill-0" offset="2.08333%" stop-color="rgb(152,190,44)"/><stop id="elFI2iWvjAw38-fill-1" offset="100%" stop-color="rgb(136,108,36)"/></linearGradient><linearGradient id="elFI2iWvjAw39-fill" x1="108.609" y1="-16" x2="108.609" y2="385" spreadMethod="pad" gradientUnits="userSpaceOnUse" gradientTransform="matrix(1 0 0 1 0 0)"><stop id="elFI2iWvjAw39-fill-0" offset="2.08333%" stop-color="rgb(152,190,44)"/><stop id="elFI2iWvjAw39-fill-1" offset="100%" stop-color="rgb(136,108,36)"/></linearGradient><linearGradient id="elFI2iWvjAw40-fill" x1="108.609" y1="-16" x2="108.609" y2="385" spreadMethod="pad" gradientUnits="userSpaceOnUse" gradientTransform="matrix(1 0 0 1 0 0)"><stop id="elFI2iWvjAw40-fill-0" offset="2.08333%" stop-color="rgb(152,190,44)"/><stop id="elFI2iWvjAw40-fill-1" offset="100%" stop-color="rgb(136,108,36)"/></linearGradient><linearGradient id="elFI2iWvjAw41-fill" x1="108.609" y1="-16" x2="108.609" y2="385" spreadMethod="pad" gradientUnits="userSpaceOnUse" gradientTransform="matrix(1 0 0 1 0 0)"><stop id="elFI2iWvjAw41-fill-0" offset="2.08333%" stop-color="rgb(152,190,44)"/><stop id="elFI2iWvjAw41-fill-1" offset="100%" stop-color="rgb(136,108,36)"/></linearGradient><linearGradient id="elFI2iWvjAw42-fill" x1="108.609" y1="-16" x2="108.609" y2="385" spreadMethod="pad" gradientUnits="userSpaceOnUse" gradientTransform="matrix(1 0 0 1 0 0)"><stop id="elFI2iWvjAw42-fill-0" offset="2.08333%" stop-color="rgb(152,190,44)"/><stop id="elFI2iWvjAw42-fill-1" offset="100%" stop-color="rgb(136,108,36)"/></linearGradient><linearGradient id="elFI2iWvjAw43-fill" x1="108.609" y1="-16" x2="108.609" y2="385" spreadMethod="pad" gradientUnits="userSpaceOnUse" gradientTransform="matrix(1 0 0 1 0 0)"><stop id="elFI2iWvjAw43-fill-0" offset="2.08333%" stop-color="rgb(152,190,44)"/><stop id="elFI2iWvjAw43-fill-1" offset="100%" stop-color="rgb(136,108,36)"/></linearGradient><linearGradient id="elFI2iWvjAw44-fill" x1="108.609" y1="-16" x2="108.609" y2="385" spreadMethod="pad" gradientUnits="userSpaceOnUse" gradientTransform="matrix(1 0 0 1 0 0)"><stop id="elFI2iWvjAw44-fill-0" offset="2.08333%" stop-color="rgb(152,190,44)"/><stop id="elFI2iWvjAw44-fill-1" offset="100%" stop-color="rgb(136,108,36)"/></linearGradient><linearGradient id="elFI2iWvjAw45-fill" x1="108.609" y1="-16" x2="108.609" y2="385" spreadMethod="pad" gradientUnits="userSpaceOnUse" gradientTransform="matrix(1 0 0 1 0 0)"><stop id="elFI2iWvjAw45-fill-0" offset="2.08333%" stop-color="rgb(152,190,44)"/><stop id="elFI2iWvjAw45-fill-1" offset="100%" stop-color="rgb(136,108,36)"/></linearGradient><linearGradient id="elFI2iWvjAw46-fill" x1="108.609" y1="-16" x2="108.609" y2="385" spreadMethod="pad" gradientUnits="userSpaceOnUse" gradientTransform="matrix(1 0 0 1 0 0)"><stop id="elFI2iWvjAw46-fill-0" offset="2.08333%" stop-color="rgb(152,190,44)"/><stop id="elFI2iWvjAw46-fill-1" offset="100%" stop-color="rgb(136,108,36)"/></linearGradient></defs><path id="elFI2iWvjAw2" d="M409.188,79.0006C409.591,79.7117,409.883,80.4969,410.012,81.3214C410.091,81.8259,410.235,82.3009,410.377,82.7709C410.716,83.8905,411.046,84.9812,410.469,86.3729C409.79,88.0175,408.356,88.8571,406.843,89.3503C400.833,91.3074,394.651,88.3899,388.683,85.5729C385.549,84.0936,382.473,82.6419,379.512,81.9386C375.789,81.0551,371.978,80.6845,368.188,80.3365C367.3,80.255,366.406,80.1792,365.509,80.1032C358.876,79.5411,352.045,78.9622,345.955,75.9173C342.413,74.1467,340.164,71.4151,337.907,68.6728C335.963,66.3118,334.012,63.9428,331.225,62.1727C325.26,58.3831,317.225,57.5758,309.595,56.8091C307.91,56.6398,306.245,56.4724,304.626,56.2754C287.975,54.2496,279.771,47.9091,268.932,36.8967C262.545,30.4095,256.691,24.6045,247.153,21.8798C244.78,21.2018,241.952,20.8365,239.017,20.4574C232.084,19.5617,224.556,18.5891,221.025,13.2336C217.7,8.19108,222.936,2.95798,229.079,1.29682C236.111,-0.605229,242.494,2.15211,248.229,4.62973C248.881,4.9111,249.524,5.18885,250.158,5.45577C251.342,5.95337,252.208,6.51466,253.021,7.04169C254.386,7.92635,255.602,8.71451,257.921,8.94299C261.374,9.28263,262.536,8.45666,263.906,7.48213C264.775,6.86354,265.729,6.18509,267.407,5.70691C274.923,3.56599,277.649,5.26026,281.555,7.68841C283.062,8.62508,284.745,9.67096,286.946,10.648C294.243,13.8871,297.612,11.7925,302.745,8.60099C303.678,8.02109,304.669,7.40496,305.752,6.77804C312.167,3.06539,324.165,0.262001,332.308,0.016912C351.673,-0.565551,367.391,14.0006,374.614,27.7695C377.24,32.7746,377.938,38.2593,378.626,43.6733C379.782,52.7601,380.913,61.6477,391.091,67.7341C393.212,69.0025,395.481,69.9368,397.705,70.8529C402.271,72.734,406.652,74.5382,409.188,79.0006ZM479.713,173.977C483.412,181.578,478.327,194.156,474.675,196.863C463.683,205.009,460.152,192.851,457.766,184.635C456.922,181.731,456.222,179.32,455.386,178.47C452.184,175.219,445.243,156.447,453.682,149.854C462.122,143.261,468.706,149.76,470.782,158.187C471.992,163.099,473.57,165.067,475.407,167.36C476.722,169.001,478.17,170.807,479.713,173.977ZM74.1566,355.293C71.5558,354.55,68.7991,353.762,65.7737,352.615C59.3296,350.17,56.9335,348.004,56.8605,344.765C56.7661,340.452,60.6431,337.35,64.4041,338.627C64.8588,338.781,65.3139,338.937,65.7694,339.092C71.0154,340.885,76.3073,342.693,81.5223,342.942C85.5417,343.134,89.6425,342.271,93.674,341.422C97.072,340.707,100.421,340.002,103.63,339.948C107.907,339.876,112.86,342.226,117.956,344.643C125.942,348.431,134.279,352.386,140.911,347.444C141.988,346.642,143.289,346.269,144.587,346.384C148.591,346.737,152.67,349.86,156.598,352.868C159.424,355.031,162.171,357.135,164.757,358.105C167.305,359.063,170.372,359.566,173.465,360.074C178.923,360.969,184.464,361.879,187.39,365.319C195.701,375.089,182.105,375.201,171.897,375.285C168.274,375.315,165.077,375.341,163.439,375.794C158.689,377.108,154.932,379.393,151.537,381.456C144.318,385.846,138.74,389.237,128.734,380.174C126.898,378.511,125.473,376.91,124.158,375.434C120.631,371.473,117.903,368.41,110.187,367.443C106.946,367.037,104.519,366.988,102.492,366.948C97.7426,366.854,95.1882,366.803,89.5132,362.292C84.3844,358.215,79.6133,356.852,74.1566,355.293ZM27.3694,283.542C22.0045,281.227,16.5104,278.856,11.4092,275.081C-6.02719,262.177,-4.10251,233.175,21.5115,229.045C35.4202,226.801,48.689,221.736,36.3354,209.247C34.9328,207.829,33.5618,206.561,32.268,205.365C26.7327,200.246,22.609,196.432,23.4506,187.755C24.0706,181.357,26.4596,177.761,29.128,173.745C30.6246,171.493,32.2091,169.108,33.6187,166.022C36.9859,158.65,34.4418,154.124,31.51,148.908C30.2849,146.729,28.9922,144.429,28.0347,141.751C20.9417,121.906,43.5803,114.962,61.5164,109.46C64.0773,108.675,66.5422,107.919,68.811,107.159C77.8068,104.145,87.5406,98.7439,87.4138,89.3412C87.2925,80.2737,81.2752,74.5998,74.9869,68.6704C73.5837,67.3472,72.1669,66.0113,70.7991,64.6221C64.2987,58.0183,57.1919,49.2813,61.6049,40.7788C66.4963,31.352,74.0984,27.8436,85.0943,29.889C93.3277,31.4204,100.097,35.3276,106.934,39.2738C110.783,41.4952,114.653,43.7289,118.818,45.5581C121.454,46.7155,124.221,48.1946,127.074,49.72C134.288,53.5762,142.056,57.7286,149.665,57.7308C152.747,57.7308,155.206,56.9999,157.782,56.234C159.875,55.6119,162.046,54.9667,164.69,54.6717C169.872,54.0944,175.006,54.6442,180.004,55.1794C182.197,55.4143,184.364,55.6463,186.498,55.7792C194.239,56.2617,200.793,58.9393,207.296,61.5964C213.761,64.2376,220.176,66.8586,227.659,67.2832C235.443,67.7254,242.491,65.8683,249.605,63.9934C255.273,62.5001,260.982,60.9954,267.141,60.6325C280.404,59.8504,292.893,63.206,303.694,69.4376C308.228,72.054,312.205,75.5386,316.161,79.0056C320.548,82.8498,324.91,86.6723,329.981,89.2656C334.737,91.6988,341.719,93.4303,347.706,94.9151C349.001,95.2362,350.249,95.5456,351.418,95.8482C358.63,97.7141,366.249,98.9396,373.825,100.158C379.824,101.123,385.797,102.084,391.52,103.355C416.909,108.994,429.743,123.566,434.315,146.471C435.509,152.453,435.908,158.143,436.291,163.591C437.228,176.952,438.063,188.855,450.27,200.023C451.047,200.734,451.839,201.44,452.631,202.146C459.286,208.077,465.964,214.029,463.985,223.222C463.203,226.852,461.776,229.553,460.403,232.152C458.572,235.618,456.837,238.901,456.858,243.961C456.862,244.98,457.093,245.983,457.525,246.887C462.149,256.551,467.671,268.335,466.7,275.787C463.669,299.044,441.816,302.74,419.784,306.466C404.947,308.975,390.028,311.498,380.722,320.018C374.642,325.585,375.109,333.548,375.575,341.49C375.882,346.726,376.189,351.952,374.619,356.476C374.082,358.025,373.042,359.642,372.029,361.218C370.925,362.934,369.854,364.6,369.499,366.074C368.874,368.669,369.348,371.662,369.81,374.571C370.08,376.277,370.346,377.954,370.383,379.505C371.198,413.494,321.543,414.626,296.393,400.382C293.064,398.496,290.017,396.279,286.978,394.067C283.839,391.783,280.708,389.505,277.283,387.604C275.634,386.688,273.743,385.476,271.735,384.189C267.144,381.247,261.948,377.916,257.665,376.859C255.165,376.243,252.724,376.221,250.254,376.199C247.061,376.171,243.82,376.143,240.342,374.829C233.608,372.287,227.481,369.26,222.689,364.618C212.701,354.944,204.566,349.294,188.403,350.036C172.801,350.751,163.134,348.29,151.221,339.917C139.649,331.783,123.373,332.554,108.548,333.256C107.415,333.31,106.29,333.363,105.177,333.412C89.2872,334.109,78.4671,331.194,68.0729,321.87C63.2289,317.524,59.6238,312.445,55.9945,307.331C52.9125,302.989,49.813,298.622,45.9221,294.658C40.629,289.265,34.101,286.448,27.3694,283.542Z" clip-rule="evenodd" fill="rgb(198,255,231)" fill-rule="evenodd" stroke="none" stroke-width="1"/><g id="elFI2iWvjAw3" mask="url(#elFI2iWvjAw71)"><g id="elFI2iWvjAw4_to" transform="translate(108.608765,184.500027)"><g id="elFI2iWvjAw4" transform="translate(-108.608765,-184.500027)"><path id="elFI2iWvjAw5" d="M31.1469,-10.0862C28.3872,-13.562,24.1691,-16.898,19.4358,-15.7802C17.1447,-15.2387,15.3489,-13.771,13.5467,-12.298C11.8316,-10.8962,10.1108,-9.48976,7.95183,-8.87231C5.52017,-8.18166,2.98181,-9.11491,0.634598,-9.97788C0.132553,-10.1625,-0.360733,-10.3438,-0.842377,-10.5054C-3.39244,-11.3612,-6.16084,-11.2302,-8.58864,-10.06C-10.1576,-9.303,-11.5956,-8.33914,-13.0343,-7.37473C-14.5666,-6.34763,-16.0998,-5.31989,-17.7933,-4.54071C-20.1599,-3.45781,-22.3956,-2.12165,-24.3518,-0.418697C-27.2997,2.14557,-29.148,5.7161,-30.944,9.18561C-31.4784,10.218,-32.0081,11.2415,-32.5609,12.2268C-34.9974,16.5671,-37.3641,21.1171,-34.5695,25.8416C-32.6673,29.0604,-29.1907,31.0472,-25.8233,32.9717C-24.321,33.8302,-22.8403,34.6764,-21.531,35.614C-14.772,40.4623,-15.8499,47.6795,-16.922,54.8574L-16.9266,54.8887L-17.0422,55.6651C-17.4876,58.6955,-17.6536,61.6734,-16.92,64.6601C-16.1253,67.9176,-14.2302,70.9043,-12.3264,73.629C-10.6703,76.001,-8.79178,78.2247,-6.92311,80.4368L-6.91881,80.4418L-6.44028,81.0085C-6.07655,81.4416,-5.71805,81.8914,-5.35672,82.3448L-5.35585,82.3459C-3.85207,84.2328,-2.29825,86.1825,-0.10881,87.2526C4.52846,89.5057,5.34064,81.9953,5.48911,78.0742C5.49783,78.0392,5.524,78.0043,5.524,77.9519C5.74234,75.3844,6.03053,72.7906,7.2881,70.4938C8.77272,67.7779,11.8555,66.6163,14.72,65.8915C16.0073,65.5667,17.3198,65.4359,18.6313,65.3053C20.2114,65.1478,21.7902,64.9905,23.322,64.4942C25.8371,63.682,27.6624,61.5512,29.0858,59.464C32.614,54.3202,35.6095,47.4909,34.8759,41.2293C34.5954,38.8332,33.6722,36.6371,32.7481,34.439C32.3487,33.4889,31.9489,32.5378,31.601,31.5705C30.5268,28.6013,30.5268,25.8416,31.47,22.8549C31.8738,21.5648,32.369,20.3067,32.8642,19.0485C33.5255,17.3682,34.187,15.6874,34.6313,13.9297C35.4697,10.6374,35.6793,7.17908,35.819,3.80811C35.9238,1.29298,35.9675,-0.977614,35.1292,-3.37048C34.2296,-5.82447,32.7538,-8.0514,31.1469,-10.0862Z" fill="url(#elFI2iWvjAw5-fill)" stroke="none" stroke-width="1"/><path id="elFI2iWvjAw6" d="M179.723,30.0861C177.19,32.2606,173.592,32.0947,171.182,29.8241C170.998,29.6494,170.972,29.4485,171.025,29.2739C169.697,27.5971,169.391,25.3527,170.841,23.3616C172.535,21.0299,175.845,19.8072,178.36,21.711C180.919,23.641,182.596,27.6146,179.723,30.0861Z" fill="url(#elFI2iWvjAw6-fill)" stroke="none" stroke-width="1"/><path id="elFI2iWvjAw7" d="M268.887,22.3921C264.573,20.9948,260.661,26.7062,259.325,31.1601L259.268,31.3483C258.814,32.8508,258.096,35.2294,259.185,36.4436C264.809,42.6965,277.926,25.3352,268.887,22.3921Z" fill="url(#elFI2iWvjAw7-fill)" stroke="none" stroke-width="1"/><path id="elFI2iWvjAw8" d="M210.105,63.0883C209.319,64.9485,208.123,67.5859,205.948,68.1797C204.507,68.5727,203.11,68.0312,202.254,66.8086C199.363,62.6866,201.948,57.0538,205.276,54.0671C207.66,51.9187,210.769,51.4995,211.328,55.3421C211.485,56.3639,211.459,57.4293,211.293,58.4773C211.074,59.8571,210.21,62.8351,210.105,63.0883Z" fill="url(#elFI2iWvjAw8-fill)" stroke="none" stroke-width="1"/><path id="elFI2iWvjAw9" d="M83.7549,91.6627C83.8335,91.6365,83.9121,91.5841,83.982,91.5143C86.4098,89.0865,87.3616,85.7766,85.6587,82.6939C83.8247,79.3666,79.4844,79.1046,76.1833,79.4539C71.2928,79.9604,60.6035,82.8947,61.3633,89.6279C61.8872,94.2914,68.3148,96.1428,72.1137,96.5445C76.7859,97.0161,81.2485,95.3219,83.7549,91.6627Z" fill="url(#elFI2iWvjAw9-fill)" stroke="none" stroke-width="1"/><path id="elFI2iWvjAw10" d="M95.8003,125.257C96.7073,122.697,97.6657,119.991,96.0509,117.88C95.504,117.164,94.8317,116.604,94.1636,116.048C93.2744,115.308,92.3926,114.574,91.8241,113.487C91.108,112.107,91.2565,109.976,91.8678,108.596C93.2301,105.496,97.4831,101.916,101.186,103.191C104.226,104.237,104.782,106.908,105.347,109.62C105.48,110.259,105.613,110.9,105.78,111.522C106.331,113.584,107.678,115.266,109.019,116.941C110.5,118.791,111.975,120.633,112.364,122.971C113.639,130.647,105.526,132.813,99.3782,133.066C99.3607,133.072,99.3355,133.07,99.3103,133.068C99.2977,133.067,99.285,133.066,99.2734,133.066C99.1794,133.069,99.0854,133.073,98.9918,133.077L98.9904,133.077C98.8062,133.085,98.6228,133.093,98.4438,133.093C98.1906,133.093,98.0158,132.962,97.9285,132.787C93.586,131.509,94.652,128.499,95.8003,125.257Z" fill="url(#elFI2iWvjAw10-fill)" stroke="none" stroke-width="1"/><path id="elFI2iWvjAw11" d="M91.5974,130.568C91.5363,130.822,91.3616,130.944,91.1694,130.988C90.104,134.455,87.9295,137.267,83.7987,137.022C80.3143,136.813,78.5327,133.057,79.8077,130.001C81.2574,126.543,84.8205,122.927,88.794,122.962C92.82,122.997,92.2087,127.975,91.5974,130.568Z" fill="url(#elFI2iWvjAw11-fill)" stroke="none" stroke-width="1"/><path id="elFI2iWvjAw12" d="M152.432,193.508C152.109,193.639,151.864,193.473,151.759,193.228C150.004,193.246,148.039,192.268,147.209,190.792C146.24,189.08,147.297,186.941,149.34,186.871C152.537,186.766,156.685,191.796,152.432,193.508Z" fill="url(#elFI2iWvjAw12-fill)" stroke="none" stroke-width="1"/><path id="elFI2iWvjAw13" d="M191.582,315.867C187.923,320.216,183.53,326.722,188.499,330.879C188.333,331.194,188.403,331.656,188.849,331.787C189.303,331.918,189.739,331.971,190.176,331.997C190.202,332.014,190.22,332.023,190.246,332.041C190.499,332.172,190.735,332.119,190.91,331.98C194.682,331.648,197.949,327.63,199.905,324.853C202.193,321.605,205.817,315.229,203.284,311.247C199.922,305.972,193.573,313.5,191.582,315.867Z" fill="url(#elFI2iWvjAw13-fill)" stroke="none" stroke-width="1"/><path id="elFI2iWvjAw14" d="M128.914,43.7008C131.56,44.5042,134.04,41.6747,135.525,39.9717C135.708,39.7621,135.717,39.5176,135.63,39.3168C138.276,36.758,139.76,32.5748,136.87,29.6754C135.551,28.348,134.171,28.2432,132.468,28.479C130.067,28.8109,127.683,29.265,125.325,29.8239C123.508,30.2518,122.067,30.8457,121.072,32.5486C119.981,34.4126,121.767,36.6327,122.991,38.1535C123.149,38.3499,123.298,38.5346,123.43,38.7054C123.59,38.9107,123.751,39.1213,123.914,39.3345C125.265,41.0988,126.756,43.0463,128.914,43.7008Z" fill="url(#elFI2iWvjAw14-fill)" stroke="none" stroke-width="1"/><path id="elFI2iWvjAw15" d="M350.498,33.8587C348.751,37.0725,345.765,37.1948,343.712,34.47C343.533,34.3128,343.347,34.1501,343.154,33.9825C340.47,31.6457,336.673,28.3397,337.756,25.178C338.979,21.6499,345.494,22.4184,348.026,23.7371C351.555,25.5798,352.279,30.5751,350.498,33.8587Z" fill="url(#elFI2iWvjAw15-fill)" stroke="none" stroke-width="1"/><path id="elFI2iWvjAw16" d="M395.15,302.523C394.133,301.872,393.079,301.278,392.025,300.683C390.011,299.548,387.997,298.412,386.243,296.881C384.38,295.255,383.046,293.024,381.743,290.845C381.22,289.97,380.701,289.104,380.156,288.288L380.029,288.098C379.084,286.678,377.412,284.165,375.492,284.341C373.33,284.531,371.956,286.474,370.765,288.158C370.648,288.324,370.532,288.487,370.418,288.646C370.356,288.733,370.291,288.823,370.225,288.916L370.209,288.938C368.788,290.926,366.402,294.264,363.676,293.458C362.317,293.057,361.135,291.691,360.088,290.481C359.723,290.059,359.374,289.655,359.039,289.318C353.86,284.113,348.027,284.821,341.818,287.939C338.211,289.746,335.215,291.921,332.761,295.135C331.015,297.423,329.242,299.353,326.605,300.61C326.02,300.89,325.431,301.139,324.845,301.386C323.564,301.927,322.297,302.461,321.129,303.3C314.492,308.051,318.788,319.316,323.295,323.945C328.487,329.278,336.947,328.499,343.792,327.868C344.155,327.835,344.513,327.802,344.865,327.77C344.883,327.77,344.892,327.761,344.909,327.753C346.778,327.622,348.647,327.464,350.516,327.264L350.721,327.241C350.846,327.227,350.971,327.213,351.095,327.199C351.311,327.175,351.526,327.15,351.741,327.125C351.966,327.099,352.19,327.072,352.414,327.046C356.357,326.58,360.042,326.146,364.052,327.246C366.213,327.836,368.29,328.697,370.365,329.557C371.578,330.06,372.789,330.562,374.016,331.01C377.623,332.32,381.212,332.792,385.029,332.757C389.605,332.713,394.452,331.988,397.674,328.443C401.019,324.757,402.355,318.469,402.469,313.675C402.6,308.487,399.22,305.125,395.15,302.523Z" fill="url(#elFI2iWvjAw16-fill)" stroke="none" stroke-width="1"/><path id="elFI2iWvjAw17" d="M421.172,336.187C422.44,333.719,423.758,331.154,426.982,331.438C429.436,331.656,432.292,332.049,433.104,334.669C433.762,336.787,431.869,338.719,430.277,340.344C429.735,340.897,429.228,341.415,428.868,341.892C428.512,342.367,428.159,342.847,427.806,343.326C424.054,348.421,420.35,353.452,413.158,352.31C412.939,352.275,412.834,352.136,412.808,351.978C411.123,351.568,409.481,350.73,409.123,348.983C408.66,346.695,410.031,344.485,411.778,343.088C412.958,342.146,414.252,341.516,415.521,340.9C417.709,339.836,419.818,338.811,421.122,336.285L421.172,336.187Z" fill="url(#elFI2iWvjAw17-fill)" stroke="none" stroke-width="1"/><path id="elFI2iWvjAw18" d="M442.711,322.234C441.985,321.191,440.673,320.609,439.433,320.058C438.896,319.819,438.372,319.587,437.916,319.325C436.253,318.372,435.619,316.805,434.967,315.194C434.754,314.665,434.538,314.132,434.283,313.614C433.777,312.583,432.72,312.418,431.855,313.151C429.96,314.767,427.987,317.334,428.022,319.919C428.039,321.71,429.401,323.395,430.676,324.932C430.659,325.037,430.676,325.15,430.764,325.255C432.248,327.255,433.899,329.368,436.379,330.102C438.807,330.809,440.711,328.609,441.986,326.914C442.999,325.57,443.767,323.762,442.711,322.234Z" fill="url(#elFI2iWvjAw18-fill)" stroke="none" stroke-width="1"/><path id="elFI2iWvjAw19" d="M382.605,343.388C382.732,343.333,382.858,343.279,382.981,343.225C383.107,343.17,383.231,343.115,383.352,343.062C384.976,341.769,386.714,341.036,387.98,342.922C390.321,346.38,388.12,351.192,384.05,351.935C381.605,352.38,376.496,351.376,376.889,347.978C377.149,345.755,380.207,344.428,382.605,343.388Z" fill="url(#elFI2iWvjAw19-fill)" stroke="none" stroke-width="1"/><path id="elFI2iWvjAw20" d="M-35.4286,101.012C-40.6082,100.051,-47.5787,98.7579,-47.4857,93.0079C-47.4529,90.8819,-46.6574,89.2211,-45.8377,87.5096C-45.3475,86.4862,-44.8487,85.4447,-44.499,84.2748C-43.189,79.9432,-46.0535,76.1443,-50.5772,76.0308C-52.0239,75.9942,-53.6275,76.2279,-55.2705,76.4674C-58.7255,76.9709,-62.3547,77.4999,-65.0654,75.5941C-67.5893,73.8213,-66.5064,70.3456,-64.8907,68.3719C-62.0438,64.8961,-56.9698,62.6255,-52.4286,63.787C-50.5921,64.2536,-48.9214,65.1861,-47.2601,66.1133C-45.5323,67.0776,-43.8148,68.0362,-41.9315,68.4592C-41.0145,68.6642,-40.0468,68.795,-39.0699,68.9271C-36.8834,69.2227,-34.6512,69.5245,-32.8404,70.6774C-29.6059,72.7386,-28.7894,76.9415,-28.0429,80.7842C-27.7615,82.2328,-27.4901,83.6303,-27.1027,84.8425C-26.3219,87.2852,-24.9543,88.968,-23.4758,90.7874C-23.0198,91.3485,-22.5531,91.9229,-22.0899,92.5363C-20.7101,94.3702,-20.2822,96.0906,-21.173,98.239C-23.2689,103.313,-27.8101,102.999,-32.0107,101.627C-32.1068,101.662,-32.2203,101.68,-32.3513,101.645C-33.2257,101.42,-34.2834,101.224,-35.4286,101.012Z" fill="url(#elFI2iWvjAw20-fill)" stroke="none" stroke-width="1"/><path id="elFI2iWvjAw21" d="M-69.1784,26.6189C-68.4361,26.68,-67.7113,26.7674,-66.9952,26.9682C-64.6023,27.6232,-67.3183,30.7846,-68.1916,31.4308C-68.992,32.0161,-69.9328,32.3894,-70.8729,32.7623C-71.5739,33.0404,-72.2746,33.3184,-72.9162,33.684C-75.6671,35.2559,-76.3396,38.8539,-75.4226,41.6398C-74.427,44.6702,-71.0211,46.6788,-68.3837,48.2071C-64.1482,50.6523,-55.8605,54.5473,-52.0354,49.5607C-50.4285,47.4735,-50.7604,44.9409,-53.162,43.8405C-53.5052,43.6834,-53.8376,43.5527,-54.1582,43.4267C-55.1918,43.0203,-56.1029,42.6621,-56.8561,41.6223C-57.3451,40.9411,-57.6944,40.1901,-57.904,39.3867C-58.1748,38.3474,-57.6595,37.7361,-56.9085,37.3781C-53.3978,36.8803,-46.9004,35.5616,-47.4243,30.8545C-47.5496,29.7083,-48.2643,28.7215,-48.9814,27.7315C-49.5647,26.9262,-50.1495,26.1187,-50.4198,25.2216C-51.2232,22.5493,-48.9439,20.1826,-47.2148,18.4622C-46.8196,18.0693,-46.416,17.6805,-46.0122,17.2914C-43.3014,14.6796,-40.5771,12.0549,-40.2807,8.08733C-39.9925,4.13125,-43.7914,1.162,-47.1274,-0.174155C-51.6162,-1.97317,-55.9478,-2.06923,-60.4104,-0.252753C-62.5238,0.611822,-64.2966,1.86938,-65.6503,3.67713C-67.196,5.73813,-67.0301,7.87774,-66.7157,10.2619C-66.7014,10.37,-66.6819,10.4977,-66.66,10.6402C-66.4544,11.9818,-66.047,14.6393,-67.9733,14.7419C-68.9315,14.7948,-70.0447,14.1226,-70.9989,13.5464C-71.3055,13.3613,-71.5962,13.1857,-71.8595,13.0477C-73.8593,11.9823,-75.6584,11.6766,-77.7194,12.6897C-82.1645,14.8642,-80.5402,21.1258,-77.8678,23.9379C-75.8418,26.0425,-71.9381,26.3831,-69.1784,26.6189Z" fill="url(#elFI2iWvjAw21-fill)" stroke="none" stroke-width="1"/><path id="elFI2iWvjAw22" d="M-106.731,31.588C-107.071,31.5443,-107.246,31.2823,-107.281,31.0204C-109.56,30.2518,-111.254,28.0162,-111.551,25.6146C-111.979,22.1214,-109.281,19.9905,-105.849,20.2961C-98.9059,20.9249,-99.9102,32.3303,-106.731,31.588Z" fill="url(#elFI2iWvjAw22-fill)" stroke="none" stroke-width="1"/><path id="elFI2iWvjAw23" d="M-95.8405,15.2834C-93.9629,13.956,-94.3909,11.5107,-95.6397,9.93879C-96.7401,8.55023,-99.9101,6.47176,-101.36,8.57643C-102.478,10.2095,-101.587,12.419,-100.408,13.8337C-99.4298,15.3882,-97.6134,16.541,-95.8405,15.2834Z" fill="url(#elFI2iWvjAw23-fill)" stroke="none" stroke-width="1"/><path id="elFI2iWvjAw24" d="M-93.046,51.0104C-95.1943,49.1852,-96.6353,46.312,-95.8668,43.5523C-94.9586,40.2775,-91.378,39.4653,-88.4786,40.9674C-82.2607,44.1811,-85.1688,54.5298,-92.391,53.3683C-92.8277,53.2985,-92.8976,52.8967,-92.7404,52.5911C-92.8452,52.4863,-92.9238,52.3466,-92.9238,52.1544C-92.9325,51.7614,-92.9674,51.3859,-93.046,51.0104Z" fill="url(#elFI2iWvjAw24-fill)" stroke="none" stroke-width="1"/><path id="elFI2iWvjAw25" d="M-144.414,45.3862C-146.493,48.6436,-142.964,51.2111,-140.484,52.7219C-137.707,54.4074,-136.327,56.0929,-135.908,59.4202C-135.69,61.1843,-135.271,62.599,-134.485,63.9265C-134.537,64.0313,-134.563,64.1623,-134.519,64.3107C-133.061,69.1488,-129.952,70.1008,-125.14,69.9523C-119.49,69.7689,-114.337,65.9002,-111.324,61.4463C-106.792,54.7306,-108.355,40.5742,-117.577,38.4608C-120.075,37.8845,-122.52,38.784,-124.747,39.8145C-125.001,39.9312,-125.25,40.0472,-125.497,40.1617L-125.5,40.163C-128.037,41.3414,-130.253,42.3703,-133.157,42.609C-133.721,42.6547,-134.398,42.6744,-135.141,42.6961C-138.378,42.7906,-142.844,42.921,-144.414,45.3862Z" fill="url(#elFI2iWvjAw25-fill)" stroke="none" stroke-width="1"/><path id="elFI2iWvjAw26" d="M-147.236,34.6104C-148.961,34.3833,-150.707,34.1534,-152.178,33.0465C-154.012,31.6754,-155.706,29.3961,-154.553,27.0644C-152.317,22.497,-144.676,18.9601,-139.829,21.5189C-133.803,24.689,-132.118,37.5877,-140.327,37.5091C-140.563,37.7012,-140.947,37.7362,-141.191,37.4567C-141.258,37.4476,-141.325,37.4396,-141.392,37.4315C-141.518,37.4163,-141.646,37.4009,-141.777,37.3781C-142.274,37.2995,-142.301,36.7843,-142.047,36.4786C-143.496,35.1027,-145.354,34.8582,-147.236,34.6104Z" fill="url(#elFI2iWvjAw26-fill)" stroke="none" stroke-width="1"/><path id="elFI2iWvjAw27" d="M20.6671,272.132C17.663,264.062,9.75952,257.417,1.62903,254.762C-0.462936,254.08,-2.60774,253.585,-4.75349,253.091C-7.14006,252.541,-9.52856,251.991,-11.8461,251.181C-16.7192,249.478,-20.4744,246.422,-23.2078,242.239C-23.0244,242.029,-22.9633,241.715,-23.1991,241.444C-27.4958,236.614,-32.1418,232.178,-38.6304,230.528C-44.4117,229.052,-51.5466,229.471,-56.2887,233.2C-57.2935,233.99,-57.9931,234.897,-58.672,235.778C-59.7868,237.224,-60.8459,238.598,-63.1092,239.261C-67.8775,240.658,-73.1959,238.012,-73.3793,232.903C-73.3929,232.507,-73.3874,232.097,-73.3817,231.681C-73.3583,229.96,-73.3337,228.148,-74.6631,226.903C-76.0238,225.625,-77.9763,226.068,-79.6382,226.445L-79.7725,226.475L-79.9291,226.51C-82.0775,226.982,-85.0904,226.912,-84.4354,223.716C-84.2051,222.615,-83.5388,221.543,-82.9071,220.526C-82.6766,220.155,-82.4506,219.791,-82.2521,219.436C-81.0994,217.384,-81.012,215.122,-81.4574,212.852C-82.1299,209.428,-85.5008,209.821,-88.0596,210.826C-89.0664,211.221,-90.1893,211.854,-91.37,212.52C-94.1016,214.06,-97.1426,215.775,-99.7707,215.122C-102.268,214.502,-102.932,210.808,-103.273,208.738C-103.779,205.708,-103.596,202.477,-102.967,199.481C-100.33,186.792,-82.2259,191.561,-75.5364,197.997C-74.7285,198.774,-73.947,199.597,-73.1647,200.421C-70.1075,203.641,-67.036,206.876,-62.3145,207.481C-57.9393,208.031,-54.2626,205.49,-54.9788,200.984C-54.9962,200.87,-55.0486,200.783,-55.1098,200.713C-55.2477,200.194,-55.4463,199.579,-55.6625,198.908C-56.7053,195.676,-58.16,191.168,-55.2233,190.032C-53.2363,189.264,-50.9382,189.229,-48.7388,189.195C-47.9899,189.184,-47.2524,189.173,-46.5426,189.133C-43.4074,188.958,-40.2984,188.373,-37.3467,187.308C-32.0981,185.412,-28.4215,181.43,-26.7971,176.208C-26.3289,174.7,-26.1892,173.141,-26.0502,171.591C-25.8471,169.324,-25.6456,167.076,-24.4217,165.038C-23.948,164.25,-23.3223,163.475,-22.6849,162.686L-22.6841,162.685C-21.3595,161.045,-19.9844,159.343,-19.8194,157.327C-19.6119,154.774,-21.9305,152.819,-24.0276,151.05C-24.8431,150.363,-25.6251,149.703,-26.212,149.048C-28.6485,146.332,-26.736,144.271,-23.7493,143.162C-21.7319,142.411,-19.9591,143.24,-18.5531,144.664C-17.8587,145.373,-17.105,146.742,-16.2661,148.266C-14.0668,152.262,-11.282,157.322,-7.44464,154.331C-2.76372,150.681,-2.37071,144.428,-3.96014,139.18C-4.74602,136.608,-6.1785,134.424,-7.6286,132.212L-7.63147,132.208C-7.84018,131.889,-8.04927,131.571,-8.25681,131.25C-9.77509,128.909,-10.7631,126.268,-11.7406,123.655C-11.9663,123.051,-12.1915,122.449,-12.4225,121.853C-14.3787,116.814,-17.1646,111.793,-22.5529,109.688C-25.4145,108.574,-28.3362,108.507,-31.3412,108.437C-31.7751,108.427,-32.2108,108.417,-32.6483,108.404C-34.5233,108.344,-36.3298,107.916,-38.1317,107.49C-40.2407,106.991,-42.3434,106.494,-44.5427,106.588C-48.9529,106.125,-51.1449,109.208,-52.6033,112.945C-53.0183,114.008,-53.3702,115.09,-53.722,116.171C-54.1771,117.571,-54.6322,118.97,-55.2233,120.325C-56.0791,122.29,-58.5855,126.368,-61.2229,125.862C-62.6389,125.593,-63.596,123.489,-64.2599,122.029C-64.3945,121.733,-64.517,121.464,-64.6288,121.242C-65.6244,119.251,-66.6549,117.294,-68.157,115.626C-69.4582,114.177,-71.1786,113.434,-73.1261,113.251C-74.0184,113.167,-74.9139,113.121,-75.8106,113.075C-76.4059,113.044,-77.0016,113.013,-77.5974,112.972C-80.8112,112.753,-84.8808,110.195,-81.9727,106.701C-79.0217,103.154,-74.6726,102.952,-70.3912,102.754C-68.591,102.67,-66.8027,102.587,-65.1353,102.256C-60.4893,101.339,-59.389,96.3264,-60.1575,92.3004C-61.4238,85.6458,-66.3143,80.1353,-72.1043,76.7294C-76.1215,74.3714,-82.3918,74.4238,-84.2869,79.2969C-84.6101,80.1288,-84.6734,81.1177,-84.7326,82.042C-84.7486,82.2917,-84.7643,82.5367,-84.7847,82.7727C-85.0467,85.7506,-86.7933,87.244,-89.7888,86.6589C-91.6926,86.2834,-93.4217,85.1393,-94.723,83.7682C-96.749,81.6374,-95.3517,79.1834,-93.8409,77.3057C-92.1292,75.1749,-90.6883,73.3759,-90.3477,70.6075C-89.9896,67.6906,-90.435,64.4943,-91.9371,61.9355C-95.1771,56.425,-101.264,62.084,-103.29,65.5074C-104.207,67.0503,-104.387,68.8314,-104.568,70.6228C-104.723,72.1571,-104.879,73.6989,-105.5,75.105C-106.717,77.8654,-109.821,79.1653,-112.701,80.3716C-113.146,80.5582,-113.587,80.7428,-114.014,80.93C-114.18,80.7728,-114.434,80.6855,-114.704,80.8077C-117.01,81.8644,-119.141,82.4408,-121.385,81.0086C-122.359,80.3887,-123.212,79.5543,-124.061,78.7243L-124.062,78.7234C-124.635,78.1623,-125.207,77.6031,-125.813,77.1136C-129.009,74.5374,-132.729,73.9086,-136.773,74.0745C-140.03,74.2142,-143.139,74.8518,-145.768,76.8604C-146.872,77.7078,-147.871,78.6703,-148.869,79.6311C-150.421,81.1257,-151.969,82.6162,-153.898,83.6634C-159.984,86.9741,-167.987,83.4215,-174.575,80.4968C-176.259,79.7492,-177.85,79.0426,-179.294,78.5022C-183.172,77.0525,-187.215,76.1355,-191.381,76.3801C-195.756,76.642,-199.092,78.5196,-202.376,81.1832C-202.463,81.2531,-202.507,81.3317,-202.541,81.4103C-204.279,83.873,-205.886,86.7986,-206.201,89.829C-206.541,93.0952,-205.458,95.7325,-204.035,98.6145C-201.738,103.252,-203.904,106.684,-208.611,108.099L-208.768,108.146L-208.957,108.202C-210.995,108.812,-213.324,109.508,-214.488,111.408C-217.196,115.81,-215.807,119.644,-210.934,121.12C-210.009,121.399,-208.996,121.561,-207.971,121.725C-205.987,122.042,-203.957,122.367,-202.437,123.565C-201.062,124.648,-202.647,126.813,-203.61,128.126C-203.772,128.347,-203.917,128.545,-204.026,128.709C-205.921,131.547,-208.349,136.21,-205.598,139.319C-204.644,140.4,-203.427,141.105,-202.201,141.815C-201.654,142.132,-201.105,142.451,-200.577,142.804C-196.786,145.328,-199.834,149.109,-201.86,151.581C-203.319,153.362,-205.022,155.371,-207.039,156.567C-208.246,157.285,-209.628,157.73,-211.008,158.175C-212.064,158.516,-213.119,158.856,-214.095,159.318C-216.357,160.383,-219.466,164.785,-215.554,166.104C-211.467,167.483,-206.244,164.514,-202.838,162.549C-196.743,159.03,-191.354,153.598,-188.237,147.301C-188.088,147.275,-187.949,147.197,-187.844,147.048C-186.89,145.69,-186.488,143.261,-186.065,140.705C-185.263,135.86,-184.386,130.558,-179.539,131.215C-177.472,131.492,-177.95,134.881,-178.392,138.012C-178.688,140.108,-178.967,142.089,-178.456,142.944C-177.521,144.515,-175.198,144.725,-173.574,144.428C-171.031,143.98,-168.755,141.924,-166.831,140.186L-166.83,140.185C-166.58,139.96,-166.336,139.74,-166.098,139.529C-165.807,139.271,-165.517,139.008,-165.226,138.743C-162.764,136.505,-160.23,134.203,-156.614,134.953C-152.379,135.826,-149.96,140.708,-148.693,144.524C-148.92,144.681,-149.069,144.978,-148.938,145.293C-148.771,145.677,-148.605,146.064,-148.439,146.451C-147.022,149.757,-145.578,153.124,-143.288,155.938C-142.743,156.612,-142.174,157.235,-141.617,157.846C-139.789,159.849,-138.091,161.71,-137.803,164.715C-137.464,168.288,-138.884,172.03,-140.17,175.422C-140.343,175.877,-140.513,176.325,-140.676,176.767C-142.1,180.627,-143.296,184.478,-143.392,188.609C-145.139,193.229,-146.484,197.682,-145.453,202.721C-144.858,205.645,-143.242,208.411,-141.721,211.013C-141.525,211.349,-141.33,211.683,-141.139,212.013C-139.148,215.463,-136.974,218.843,-134.493,221.978C-134.412,222.08,-134.326,222.191,-134.235,222.308C-133.173,223.671,-131.471,225.855,-129.629,225.541C-129.288,225.48,-129.175,225.113,-129.219,224.825C-129.471,223.09,-130.136,221.457,-130.797,219.831C-131.028,219.263,-131.259,218.696,-131.472,218.127C-132.214,216.144,-133.009,209.97,-129.14,210.957C-125.714,211.832,-123.944,215.969,-122.585,219.145C-122.372,219.644,-122.168,220.119,-121.97,220.554C-119.429,226.109,-115.752,231.602,-109.622,230.405C-109.482,230.676,-109.15,230.877,-108.792,230.72C-108.628,230.648,-108.454,230.571,-108.272,230.49C-105.563,229.287,-100.924,227.228,-98.4695,229.453C-97.021,230.763,-97.0135,233.317,-97.0079,235.262C-97.0071,235.521,-97.0064,235.77,-97.0023,236.003L-97.0005,236.108L-96.998,236.267L-96.9959,236.424L-96.9912,236.801C-96.9458,240.609,-96.8892,245.361,-92.6096,246.78C-90.2268,247.571,-87.6715,246.664,-85.3659,245.846C-85.0266,245.725,-84.6927,245.607,-84.3655,245.496C-83.8713,245.33,-83.3636,245.152,-82.8453,244.971C-79.4344,243.776,-75.5654,242.42,-72.0781,243.269C-65.8165,244.789,-72.0694,251.924,-74.0867,254.081C-74.9019,254.952,-75.7962,255.805,-76.7004,256.667L-76.7015,256.668L-76.7025,256.669L-76.7036,256.67C-78.4524,258.336,-80.2389,260.039,-81.5622,261.984C-86.2606,264.377,-88.898,270.184,-87.2999,275.188C-86.8516,276.583,-85.8919,277.768,-84.9345,278.949C-84.2134,279.839,-83.4934,280.728,-82.9944,281.703C-82.3058,283.049,-81.9736,284.5,-81.6409,285.953L-81.6399,285.957C-81.513,286.512,-81.3861,287.066,-81.2391,287.616C-80.7413,289.484,-79.6759,291.144,-78.5668,292.716C-76.6193,295.475,-74.0431,297.798,-71.3183,299.798C-70.6356,300.301,-69.8629,300.764,-69.0773,301.235C-67.391,302.247,-65.6452,303.294,-64.6026,304.837C-63.0575,307.125,-62.2547,310.174,-61.5333,312.914C-61.4229,313.333,-61.3143,313.746,-61.2054,314.147C-60.0789,318.286,-59.8693,322.522,-60.009,326.783C-60.0965,329.414,-60.8504,331.956,-61.6017,334.488C-61.975,335.747,-62.3477,337.003,-62.6377,338.267C-63.4586,341.813,-62.9957,345.123,-61.8517,348.538C-59.901,354.368,-56.1911,359.743,-52.6382,364.891L-52.6369,364.892C-51.9274,365.92,-51.2241,366.939,-50.5423,367.951C-50.1631,368.514,-49.6953,369.262,-49.1517,370.132L-49.1495,370.135L-49.1463,370.14L-49.1447,370.143L-49.1425,370.146C-45.2023,376.451,-37.3005,389.094,-30.3078,383.688C-26.8704,381.033,-28.2597,375.682,-29.2696,371.792C-29.4092,371.255,-29.5415,370.745,-29.6528,370.274C-30.5174,366.624,-30.2991,363.532,-29.8624,359.803L-29.8236,359.467C-29.2775,354.742,-28.7341,350.04,-28.6573,345.28C-24.937,338.093,-19.0858,330.495,-11.7762,326.696C-4.9295,323.142,0.956573,319.439,5.22704,312.924C7.20905,309.902,8.33731,306.525,9.46915,303.138C9.55415,302.883,9.63918,302.629,9.72459,302.374C11.2005,297.964,13.5497,295.222,17.139,292.297C23.0154,287.518,22.2385,280.648,21.4855,273.988L21.4845,273.979C21.4532,273.703,21.422,273.427,21.3914,273.152L21.3576,272.847L21.3396,272.682C21.2959,272.307,20.9728,272.123,20.6671,272.132Z" fill="url(#elFI2iWvjAw27-fill)" stroke="none" stroke-width="1"/><path id="elFI2iWvjAw28" d="M-153.715,163.178C-157.802,159.702,-159.679,155.746,-159.103,150.078C-158.727,146.445,-155.391,145.24,-153.182,148.279C-150.728,151.65,-148.405,156.191,-148.676,160.471C-148.876,163.754,-150.579,166.793,-153.584,163.449C-153.653,163.361,-153.697,163.274,-153.715,163.178Z" fill="url(#elFI2iWvjAw28-fill)" stroke="none" stroke-width="1"/><path id="elFI2iWvjAw29" d="M-184.394,151.257C-186.516,152.707,-187.905,155.536,-187.503,158.06C-187.084,160.75,-184.411,160.523,-182.333,159.781C-182.185,159.842,-182.019,159.851,-181.835,159.763C-179.425,158.593,-176.333,155.528,-176.91,152.585C-177.556,149.336,-182.298,149.825,-184.394,151.257Z" fill="url(#elFI2iWvjAw29-fill)" stroke="none" stroke-width="1"/><path id="elFI2iWvjAw30" d="M-221.501,129.215C-218.331,129.363,-215.265,131.686,-214.078,134.56C-212.829,137.573,-214.916,139.267,-217.938,138.9C-218.121,138.882,-218.252,138.795,-218.348,138.682C-221.012,138.262,-223.667,136.612,-225.099,134.577C-225.789,133.59,-226.444,132.062,-225.605,130.953C-224.697,129.756,-222.994,129.145,-221.501,129.215Z" fill="url(#elFI2iWvjAw30-fill)" stroke="none" stroke-width="1"/><path id="elFI2iWvjAw31" d="M-55.59,222.074C-53.9045,221.69,-52.0618,221.122,-51.0925,219.751C-50.2803,218.598,-51.2933,217.323,-52.1928,216.624C-55.5026,214.04,-60.6464,213.192,-64.751,213.393C-66.157,213.463,-68.1918,213.62,-69.0127,214.939C-69.6939,216.031,-68.6022,217.271,-67.8512,217.969C-64.9256,220.685,-60.1312,222.432,-56.1576,222.668C-55.7472,222.685,-55.5638,222.38,-55.59,222.074Z" fill="url(#elFI2iWvjAw31-fill)" stroke="none" stroke-width="1"/><path id="elFI2iWvjAw32" d="M-46.5512,220.851C-47.6603,217.637,-41.4948,218.624,-40.1237,218.877C-37.8793,219.288,-35.4427,219.925,-33.7136,221.489C-32.8054,222.309,-31.9408,223.541,-32.2552,224.825C-33.0848,228.239,-38.0889,226.737,-40.1761,225.776C-40.3682,225.698,-40.4555,225.558,-40.473,225.41C-41.6956,224.903,-42.8833,224.309,-43.9662,223.567C-44.9531,222.886,-46.1495,222.021,-46.5512,220.851Z" fill="url(#elFI2iWvjAw32-fill)" stroke="none" stroke-width="1"/><path id="elFI2iWvjAw33" d="M-22.2558,229.471C-20.3694,230.947,-18.3346,231.383,-16.064,230.492C-15.7584,230.379,-15.5662,230.108,-15.6536,229.776C-16.457,226.667,-19.0769,221.349,-23.2688,223.13C-24.3779,223.602,-25.0154,224.781,-24.8495,225.934C-24.6574,227.279,-23.6007,228.248,-22.4392,228.947C-22.4916,229.121,-22.4566,229.322,-22.2558,229.471Z" fill="url(#elFI2iWvjAw33-fill)" stroke="none" stroke-width="1"/><path id="elFI2iWvjAw34" d="M-17.7321,357.401C-17.6186,352.782,-11.584,351.585,-7.87248,352.039C-3.96007,352.52,-0.947174,355.498,-1.40129,359.524C-1.82048,363.209,-5.12155,364.458,-8.3004,363.619C-12.0032,363.55,-17.8457,361.96,-17.7321,357.401Z" fill="url(#elFI2iWvjAw34-fill)" stroke="none" stroke-width="1"/><path id="elFI2iWvjAw35" d="M270.442,242.029C268.861,241.322,266.591,241.575,265.123,242.361C263.648,243.156,263.298,244.71,263.42,246.081C263.604,248.212,264.888,250.78,266.748,252.657C267.001,253.164,267.307,253.644,267.647,254.107C267.455,254.212,267.368,254.465,267.63,254.57C274.485,257.329,275.734,244.387,270.442,242.029Z" fill="url(#elFI2iWvjAw35-fill)" stroke="none" stroke-width="1"/><path id="elFI2iWvjAw36" d="M357.157,203.189C357.146,203.184,357.135,203.18,357.126,203.176C356.917,203.08,356.96,202.879,357.1,202.783C356.716,200.268,357.79,193.526,361.781,195.752C363.676,196.809,362.951,199.534,362.121,200.931C361.239,202.416,359.571,203.935,357.572,203.342C357.432,203.394,357.24,203.368,357.187,203.202C357.183,203.199,357.177,203.197,357.172,203.195L357.157,203.189Z" fill="url(#elFI2iWvjAw36-fill)" stroke="none" stroke-width="1"/><path id="elFI2iWvjAw37" d="M318.369,261.451C319.111,260.586,318.302,259.466,317.583,258.472C317.431,258.262,317.283,258.057,317.155,257.862C317.481,255.159,314.206,253.845,311.569,252.787C311.028,252.57,310.514,252.364,310.064,252.159C309.799,252.038,309.495,251.87,309.167,251.69C308.125,251.114,306.839,250.405,305.776,250.631C304.667,250.867,305.034,252.081,305.261,252.753C306.422,256.255,309.61,260.045,313.688,261.408C313.792,261.442,313.902,261.479,314.017,261.518C315.354,261.974,317.339,262.65,318.369,261.451Z" fill="url(#elFI2iWvjAw37-fill)" stroke="none" stroke-width="1"/><path id="elFI2iWvjAw38" d="M323.124,267.631C322.668,267.31,322.212,266.989,321.81,266.604C321.347,266.167,321.749,265.739,322.281,265.556C326.002,264.185,329.739,264.097,333.232,265.931C333.625,266.137,334.038,266.242,334.431,266.342C335.175,266.532,335.85,266.704,336.193,267.503C336.638,268.534,336.787,269.966,335.372,270.49C332.022,271.733,329.111,270.535,326.168,269.324L325.822,269.182C325.635,269.105,325.447,269.029,325.259,268.953C325.181,269.102,324.901,269.171,324.753,268.997C324.639,268.866,324.508,268.743,324.386,268.621C324.313,268.592,324.241,268.563,324.168,268.536C324.11,268.513,324.051,268.492,323.993,268.473C323.827,268.412,323.783,268.254,323.827,268.141C323.598,267.965,323.36,267.798,323.124,267.631Z" fill="url(#elFI2iWvjAw38-fill)" stroke="none" stroke-width="1"/><path id="elFI2iWvjAw39" d="M332.263,252.273C331.741,252.778,331.041,253.113,330.346,253.445C330.008,253.607,329.67,253.769,329.355,253.949C328.683,254.342,328.08,254.98,327.722,255.6C327.285,256.36,327.74,256.971,328.491,257.382C328.947,257.638,329.438,257.833,329.927,258.028C330.505,258.258,331.08,258.487,331.591,258.814C331.591,258.858,331.608,258.892,331.643,258.936C334.115,261.259,337.809,259.381,338.944,256.927C339.948,254.762,338.315,250.788,335.355,250.421C333.993,250.261,333.473,250.881,332.871,251.6C332.685,251.821,332.492,252.053,332.263,252.273Z" fill="url(#elFI2iWvjAw39-fill)" stroke="none" stroke-width="1"/><path id="elFI2iWvjAw40" d="M365.866,264.483C363.436,263.391,361.11,262.345,362.349,259.539L362.368,259.494C362.394,259.435,362.419,259.375,362.445,259.315C362.792,258.509,363.18,257.607,364.13,257.216C365.03,256.849,365.982,256.84,366.96,256.849L367.157,256.851C368.448,256.867,369.849,256.884,371.021,257.39C371.636,257.658,372.123,258.031,372.617,258.41C372.817,258.563,373.018,258.718,373.23,258.866C374.426,259.713,375.885,260.29,377.431,260.482C377.915,260.54,378.401,260.555,378.888,260.569C379.349,260.583,379.81,260.597,380.269,260.648C382.295,260.866,383.256,262.132,384.015,263.652C384.04,263.704,384.066,263.755,384.092,263.808L384.094,263.811C384.296,264.216,384.504,264.634,384.304,265.067C384.291,265.091,384.273,265.125,384.25,265.166C384.113,265.414,383.839,265.912,384.042,266.062C384.252,266.219,384.476,266.359,384.7,266.5C384.801,266.563,384.902,266.626,385.002,266.691C385.64,267.102,385.806,268.01,385.849,268.656C386.033,271.119,382.522,270.918,380.653,270.673C378.968,270.455,377.614,270.612,375.963,270.839C375.02,270.97,374.051,271.092,373.099,270.979C370.724,270.7,369.842,269.093,369.571,267.206C369.562,267.102,369.614,267.04,369.684,267.005C368.925,265.858,367.375,265.161,365.866,264.483Z" fill="url(#elFI2iWvjAw40-fill)" stroke="none" stroke-width="1"/><path id="elFI2iWvjAw41" d="M399.159,278.28C399.342,278.446,399.718,278.358,399.735,278.131C401.77,277.302,403.578,273.302,401.316,271.791C399.988,270.909,396.792,270.804,396.617,272.656C396.496,273.889,397.262,275.076,398.006,276.228C398.337,276.741,398.663,277.247,398.905,277.747C398.643,277.695,398.6,278.323,399.159,278.28Z" fill="url(#elFI2iWvjAw41-fill)" stroke="none" stroke-width="1"/><path id="elFI2iWvjAw42" d="M380.033,151.86C380.356,153.266,380.618,154.716,380.644,156.165C380.775,156.995,380.819,157.894,380.487,158.645C380.601,158.82,380.461,159.012,380.269,159.047C380.208,159.135,380.155,159.222,380.085,159.3C379.981,159.414,379.832,159.458,379.675,159.466C379.588,159.493,379.492,159.475,379.413,159.44C379.081,159.501,378.723,159.318,378.723,158.864L378.723,158.322C378.723,158.318,378.721,158.311,378.719,158.305C378.716,158.298,378.714,158.292,378.714,158.287C378.531,157.851,378.365,157.414,378.225,156.96L378.225,156.925C377.011,155.205,376.094,153.196,375.422,151.458C374.933,150.192,373.457,145.764,376.61,145.817C377.579,145.843,378.155,146.847,378.496,147.502C379.212,148.891,379.692,150.375,380.033,151.86Z" fill="url(#elFI2iWvjAw42-fill)" stroke="none" stroke-width="1"/><path id="elFI2iWvjAw43" d="M384.05,171.527C385.199,172.262,386.331,171.802,387.477,171.336L387.481,171.335L387.484,171.333C387.547,171.308,387.611,171.282,387.675,171.256C388.221,171.267,388.773,171.316,389.325,171.365C390.492,171.469,391.657,171.572,392.766,171.317C394.626,170.898,394.469,168.697,394.329,167.466C393.993,164.555,391.523,164.001,388.932,163.419C387.76,163.156,386.563,162.887,385.526,162.392C385.358,162.312,385.191,162.224,385.026,162.137L385.021,162.135L385.019,162.134C384.056,161.629,383.155,161.157,382.426,162.296C381.724,163.384,382.167,164.776,382.557,166.001L382.558,166.003C382.662,166.331,382.763,166.647,382.837,166.942C382.932,167.336,382.95,167.831,382.969,168.354C383.013,169.547,383.061,170.889,384.05,171.527Z" fill="url(#elFI2iWvjAw43-fill)" stroke="none" stroke-width="1"/><path id="elFI2iWvjAw44" d="M377.588,199.106C375.545,200.005,374.296,198.617,373.789,197.054C372.907,194.311,373.571,191.246,375.789,189.019C377.064,187.753,378.566,186.722,380.173,185.797C380.568,185.568,380.994,185.372,381.418,185.176C382.567,184.645,383.706,184.118,384.216,182.976C384.697,181.919,384.599,180.9,384.5,179.877C384.42,179.039,384.339,178.199,384.575,177.334C384.802,176.513,385.762,175.527,386.74,175.291C389.186,174.706,391.439,176.444,392.827,177.919C394.81,180.024,395.718,182.347,395.194,185.133C394.67,187.928,393.325,190.722,390.024,191.822C389.034,192.154,387.987,192.391,386.943,192.629C384.873,193.099,382.811,193.567,381.204,194.757C380.531,196.399,379.422,198.302,377.588,199.106Z" fill="url(#elFI2iWvjAw44-fill)" stroke="none" stroke-width="1"/><path id="elFI2iWvjAw45" d="M403.987,136.448C405.723,135.723,407.994,134.773,408.459,133.067C408.761,131.978,408.694,130.864,408.626,129.748C408.543,128.374,408.46,126.996,409.062,125.652C409.844,123.893,412.247,123.892,414.219,123.891C414.803,123.891,415.349,123.89,415.804,123.844C419.087,123.53,434.711,103.348,433.829,100.16C433.602,99.3394,433.191,98.5971,432.667,97.9159L432.62,97.8381C429.386,92.5694,426.009,87.0686,419.865,85.1219C414.337,83.3579,409.621,83.2618,404.495,84.3447C401.691,84.9385,399.525,85.2791,396.425,84.9648C392.101,84.5357,390.071,83.191,386.586,80.8838L386.181,80.6157C382.155,77.9608,378.854,73.9523,377.195,69.1492C377.048,68.7235,376.915,68.3169,376.788,67.927C375.981,65.4613,375.394,63.6649,372.951,61.9531C370.34,60.1192,366.907,59.4031,363.816,58.9839C361.004,58.5996,354.227,59.045,351.406,59.5078C346.105,60.3724,343.293,58.2503,339.451,54.2331C338.861,53.6145,338.352,53.0622,337.891,52.562C335.809,50.3008,334.707,49.1048,331.503,47.6745C328.261,46.2253,320.793,50.9887,313.27,55.7869C305.879,60.5011,298.435,65.249,294.894,64.1713C292.196,63.3504,284.607,58.2241,281.236,55.4732C277.306,52.2594,269.534,51.421,265.508,51.1241C256.391,50.4556,253.631,52.3935,247.703,56.5552C247.532,56.6752,247.359,56.797,247.182,56.9207C247.082,56.9907,246.982,57.0613,246.88,57.1324C242.601,60.1192,239.012,62.9312,234.776,68.9483C234.11,69.8975,233.624,71.1164,233.125,72.3666C232.5,73.9345,231.856,75.5517,230.811,76.7469C229.126,78.6769,226.445,79.0699,223.231,79.4978C220.644,79.841,218.275,78.6488,215.878,77.4424C214.981,76.991,214.08,76.5375,213.162,76.1618C209.468,74.651,205.835,74.4239,201.975,75.3758C200.235,75.8054,198.115,77.2405,195.893,78.7442C192.65,80.9399,189.19,83.2816,186.386,82.8513C185.46,82.7116,184.683,81.8645,184.081,80.6244C182.807,77.9932,180.637,76.1996,178.483,74.4184C176.119,72.4634,173.773,70.5234,172.649,67.5073C172.209,66.3241,171.954,65.091,171.699,63.8577C171.454,62.6699,171.209,61.4813,170.797,60.3375C169.924,57.9359,168.012,56.1544,165.986,54.7134C161.864,51.8053,156.353,50.67,151.681,52.9318C146.572,55.412,143.096,60.0493,140.371,64.8874C136.8,71.2189,132.486,76.4937,127.202,81.4453C123.281,85.1132,120.093,89.2702,120.556,94.8943C120.967,99.907,124.303,103.505,128.861,105.121C129.949,105.505,131.071,105.805,132.193,106.104C133.009,106.321,133.824,106.539,134.625,106.789C135.205,106.968,135.766,107.195,136.327,107.422C137.187,107.769,138.046,108.116,138.965,108.291C140.817,108.64,142.101,107.19,143.105,105.88C143.227,105.723,143.245,105.575,143.21,105.435C145.917,102.073,146.991,98.3351,147.541,93.9249C147.899,90.9993,148.249,88.2484,150.161,85.8643C152.013,83.5587,155.375,83.5762,157.75,84.9648C161.11,86.9261,158.765,92.9082,157.031,97.331C156.425,98.8752,155.894,100.229,155.707,101.156C154.51,107.051,159.279,108.378,164.213,108.247C164.316,108.245,164.421,108.242,164.525,108.239C166.175,108.194,167.932,108.147,169.426,108.902C171.147,109.767,170.474,112.256,169.898,113.583C169.26,115.033,167.881,115.793,166.44,116.229C164.778,116.727,163.028,116.725,161.283,116.722C158.864,116.719,156.456,116.716,154.309,118.046C152.318,118.666,150.414,119.591,149.087,121.198C148.739,121.62,148.39,122.134,148.029,122.665C146.516,124.893,144.801,127.417,142.136,124.674C140.967,123.468,140.245,121.797,139.551,120.191C139.27,119.541,138.994,118.901,138.695,118.308C137.647,116.229,135.848,114.657,133.874,113.496C129.787,111.077,124.268,112.718,122.635,117.33C122.084,118.894,121.818,120.519,121.552,122.143C121.236,124.071,120.92,125.997,120.128,127.818C119.305,129.705,117.591,131.298,115.979,132.797C115.368,133.365,114.77,133.92,114.242,134.473C111.334,137.512,109.299,141.101,112.723,144.507C113.269,145.046,113.924,145.482,114.569,145.911C114.78,146.051,114.99,146.19,115.194,146.332C117.779,148.105,117.971,151.563,116.609,154.139C114.994,157.202,111.386,157.54,108.286,157.829C107.965,157.859,107.65,157.889,107.343,157.921C103.701,158.296,99.6753,159.563,99.3085,163.842C98.9068,168.497,100.313,173.929,102.278,178.129C102.374,178.33,102.522,178.417,102.68,178.435C105.16,182.408,110.871,184.548,115.351,183.71C118.568,183.112,120.403,180.841,122.251,178.555C123.803,176.634,125.364,174.702,127.761,173.745C131.56,172.226,136.669,173.274,140.275,174.872C142.86,176.015,144.97,177.849,147.079,179.682C147.514,180.06,147.949,180.438,148.388,180.81C148.474,180.882,148.561,180.956,148.649,181.031L148.875,181.223C151.377,183.35,154.917,186.359,158.266,185.884C162.444,185.291,158.963,178.478,158.02,176.632L157.977,176.548C157.095,174.811,158.231,173.178,160.344,173.57C161.125,173.717,161.838,174.713,162.299,175.356L162.357,175.438L162.396,175.492C162.471,175.594,162.546,175.697,162.62,175.799L162.623,175.804C163.114,176.481,163.589,177.137,164.248,177.675C165.549,178.758,167.374,178.225,168.361,177.029C169.116,176.115,169.393,175.153,169.653,174.247C170.08,172.763,170.463,171.429,172.832,170.697C173.139,170.603,173.457,170.516,173.778,170.427C175.665,169.908,177.679,169.354,178.29,167.213C178.758,165.563,178.58,163.9,178.4,162.227C178.324,161.527,178.249,160.825,178.221,160.122C178.098,157.222,180.683,155.79,183.233,157.109C183.735,157.369,184.195,157.721,184.656,158.074C185.31,158.575,185.965,159.077,186.744,159.318C188.255,159.79,189.504,159.51,190.753,158.558C191.414,158.054,191.915,157.52,192.383,157.02C193.423,155.909,194.306,154.966,196.455,154.882C203.188,154.611,206.769,164.558,202.394,169.073C201.516,169.978,200.246,169.739,198.414,169.394C196.691,169.07,194.469,168.652,191.608,169.003C190.044,169.195,188.916,169.643,187.757,170.104C186.379,170.651,184.958,171.216,182.709,171.387C181.712,171.463,180.869,171.219,180.098,170.995C178.634,170.571,177.428,170.222,175.906,172.269C172.535,176.828,172.562,185.613,178.718,187.543C179.491,187.785,180.39,187.88,181.266,187.974C183.717,188.234,185.99,188.476,184.832,191.84C182.936,197.386,178.91,204.215,172.352,203.883C172.125,203.874,171.985,203.97,171.889,204.11C171.802,204.119,171.714,204.154,171.636,204.197C170.029,199.417,163.077,200.575,158.804,201.287C158.619,201.318,158.44,201.348,158.266,201.377C152.755,202.267,148.738,200.46,144.389,197.054C139.944,193.569,135.708,190.443,130.259,188.714C120.216,185.535,109.221,188.521,99.8937,192.556L99.6036,192.682C96.0486,194.218,92.1779,195.891,89.772,199.062C87.6149,201.901,86.864,205.289,86.3749,208.739C86.3225,208.808,86.2788,208.887,86.2614,209.001C84.5671,220.223,83.5366,232.798,90.6017,242.483C94.2259,247.461,99.6579,250.745,105.23,253.12C107.606,254.136,110.089,254.89,112.571,255.644C116.257,256.763,119.939,257.881,123.263,259.853C130.743,264.288,130.708,273.993,130.681,281.81C130.68,282.199,130.678,282.583,130.678,282.961C130.677,283.732,130.671,284.503,130.666,285.273C130.618,291.94,130.571,298.538,133.507,304.715C134.718,307.266,136.424,309.583,138.119,311.886L138.12,311.887C138.919,312.974,139.717,314.057,140.459,315.16C143.009,318.941,145.367,322.854,147.69,326.784C151.192,332.705,155.27,338.914,162.169,341.123C171.025,343.961,176.675,334.591,178.876,327.587C180.273,323.124,181.382,318.417,182.203,313.824C182.684,311.158,182.964,308.468,183.244,305.777L183.244,305.775C183.579,302.551,183.915,299.328,184.596,296.148C185.957,289.78,189.541,284.238,193.089,278.752C194.572,276.458,196.049,274.174,197.355,271.844C200.298,266.595,204.175,259.382,203.031,253.007C203.468,249.312,202.385,245.819,199.494,243.208C196.158,240.195,191.783,240.466,187.705,241.295L187.405,241.356C184.79,241.889,182.185,242.419,179.662,241.191C176.395,239.61,175.085,235.043,174.203,231.829C173.03,227.568,172.668,223.137,172.306,218.722C172.17,217.057,172.034,215.393,171.854,213.743C172.046,213.664,172.177,213.489,172.142,213.21C171.819,210.756,171.767,208.337,172.273,205.927C173.941,208.136,175.26,210.555,176.36,213.105C176.465,213.35,176.649,213.428,176.841,213.42C177.715,215.175,178.569,217.185,179.459,219.282C183.027,227.682,187.191,237.486,195.661,237.968C195.757,238.125,195.914,238.248,196.15,238.256C203.503,238.588,215.205,237.514,217.458,228.886C218.69,224.17,216.192,218.424,212.384,215.594C210.957,214.534,208.905,213.798,206.797,213.041C203.437,211.836,199.933,210.579,198.586,207.874C198.639,207.76,198.665,207.621,198.604,207.455C197.791,205.158,196.691,200.914,199.721,199.7C202.865,198.442,206.507,201.839,208.158,204.101C208.87,205.085,209.489,206.153,210.108,207.221C211.5,209.625,212.893,212.03,215.354,213.481C217.38,214.677,219.633,213.935,221.799,212.974C221.816,213.061,221.868,213.149,222.008,213.175C223.66,213.494,225.353,213.556,227.046,213.619C228.647,213.678,230.249,213.737,231.815,214.013C235.407,214.641,236.141,218.828,236.597,221.424L236.619,221.55C237.492,226.432,239.361,231.209,241.719,235.715C243.666,239.444,246.932,244.867,252.495,244.815C257.202,244.771,258.003,239.403,258.449,236.413L258.451,236.396C258.558,235.68,258.642,234.959,258.727,234.237C258.904,232.716,259.082,231.191,259.473,229.698C259.77,228.545,260.399,227.724,261.159,226.737C262.573,224.904,263.875,223.008,265.167,221.105C265.567,220.517,265.96,219.917,266.355,219.312C268.3,216.338,270.308,213.268,273.516,211.236C276.59,209.289,281.507,208.756,284.284,211.341C286.308,213.226,286.859,216.158,287.325,218.638C287.354,218.79,287.382,218.939,287.41,219.087C287.444,219.265,287.476,219.448,287.507,219.636C287.539,219.827,287.57,220.023,287.601,220.222C287.891,222.067,288.222,224.176,289.733,225.471C290.956,226.519,292.816,225.951,294.161,225.445C295.321,225.008,296.417,224.441,297.503,223.878C297.676,223.789,297.848,223.7,298.021,223.611C298.092,223.574,298.167,223.526,298.244,223.477C298.56,223.276,298.912,223.052,299.235,223.41C299.462,223.663,299.628,223.943,299.785,224.222C300.248,225.008,300.361,225.925,300.405,226.781C300.457,227.769,300.362,228.791,300.268,229.806C300,232.694,299.738,235.526,302.885,237.348C302.903,237.444,302.964,237.54,303.095,237.584C304.517,238.078,305.056,239.46,305.531,240.678C305.619,240.903,305.705,241.123,305.793,241.33C306.352,242.632,307.112,243.601,308.317,244.535C309.592,245.522,311.295,246.029,312.928,246.413L313.21,246.479C314.985,246.897,316.841,247.333,318.648,247.548C319.985,247.706,321.679,247.522,321.653,246.081C321.629,244.595,320.188,243.087,319.079,241.927C318.963,241.806,318.851,241.688,318.745,241.575C317.175,239.925,315.359,238.533,313.529,237.131C313.18,236.864,312.831,236.596,312.483,236.326C310.955,235.139,309.374,233.802,308.649,232.117C307.887,230.35,308.912,228.83,309.908,227.354C310.019,227.189,310.13,227.024,310.238,226.86C311.016,225.672,311.426,224.38,311.723,223.052C311.741,222.969,311.758,222.885,311.775,222.8C311.787,222.738,311.798,222.677,311.81,222.615C312.006,221.57,312.208,220.496,313.784,220.703C318.194,221.271,321.417,224.502,321.626,228.266C321.641,228.519,321.65,228.775,321.659,229.033L321.659,229.035C321.731,231.121,321.804,233.245,324.797,233.75C327.556,234.213,330.517,232.003,332.412,230.589C337.617,226.668,338.813,220.79,335.364,215.629C334.519,214.36,333.398,213.26,332.277,212.16C331.347,211.247,330.416,210.334,329.643,209.324C327.582,206.643,327.94,202.451,331.835,201.088C333.941,200.352,336.482,201.092,338.762,201.756C339.508,201.973,340.226,202.182,340.892,202.329C341.372,202.433,341.87,202.521,342.367,202.582C341.285,203.088,340.376,204.075,339.931,204.931C339.328,206.11,339.905,206.948,341.023,207.333C340.953,207.49,341.057,207.717,341.319,207.726C343.258,207.787,345.241,206.547,346.027,205.062C346.568,204.04,345.974,202.949,344.926,202.477C346.271,202.163,347.485,201.368,348.568,200.617C348.708,200.695,348.856,200.757,349.005,200.809C350.201,201.56,351.214,201.219,351.659,199.709C351.749,199.41,351.811,199.113,351.873,198.819C351.981,198.305,352.088,197.798,352.332,197.298C352.472,197.01,352.646,196.739,352.821,196.469C354.009,195.517,354.873,194.434,355.747,193.237C357.624,190.67,358.628,187.797,358.995,184.801C359.301,182.312,359.17,179.404,357.187,177.413C356.375,176.601,355.144,176.496,353.974,176.4L353.742,176.382C352.835,176.311,351.946,176.242,351.101,175.928C349.721,175.404,349.371,173.894,350.035,172.846C350.847,171.562,352.943,170.889,354.437,170.427C355.563,170.077,356.777,169.745,357.991,169.667C361.502,169.99,363.388,173.195,363.37,175.981C363.369,176.114,363.366,176.25,363.363,176.387C363.343,177.204,363.322,178.08,363.711,178.828C363.923,179.241,364.182,179.613,364.437,179.979C364.898,180.64,365.346,181.282,365.475,182.12C366.025,185.788,370.444,184.103,372.182,182.076C374.47,179.404,375.509,175.404,372.951,172.601C372.363,171.954,371.702,171.36,371.04,170.765C370.148,169.964,369.256,169.162,368.549,168.235C367.405,166.741,367.562,165.23,368.2,163.781C368.252,163.663,368.5,163.268,368.859,162.694L368.86,162.693C370.076,160.752,372.571,156.77,373.09,154.594C373.658,152.227,374.112,148.786,372.898,146.515C372.296,145.398,371.379,144.62,370.112,144.044C369.454,143.745,368.732,143.63,368.011,143.515C367.365,143.412,366.72,143.31,366.121,143.075C364.087,142.289,365.929,139.241,366.663,138.228C367.789,136.673,369.326,135.128,370.89,133.879C373.256,131.975,376.295,131.136,379.422,130.848C379.422,130.843,379.423,130.839,379.424,130.835C379.424,130.832,379.425,130.829,379.426,130.826C379.428,130.82,379.431,130.813,379.431,130.805C379.604,130.804,379.778,130.803,379.951,130.803C382.934,130.791,385.947,130.78,388.819,131.704C391.972,132.72,392.021,135.535,392.07,138.357C392.096,139.904,392.123,141.453,392.661,142.708C394.294,146.533,398.032,152.349,402.809,152.087C407.726,151.816,405.35,147.17,403.56,145.066L403.374,144.845C401.29,142.368,398.495,139.046,402.87,136.935C403.191,136.781,403.574,136.621,403.987,136.448Z" fill="url(#elFI2iWvjAw45-fill)" stroke="none" stroke-width="1"/><path id="elFI2iWvjAw46" d="M-19.732,164.671C-20.5005,162.095,-18.3435,154.593,-14.562,157.737C-11.3308,160.418,-15.217,166.462,-18.5094,164.794C-18.7626,165.221,-19.5486,165.283,-19.732,164.671Z" fill="url(#elFI2iWvjAw46-fill)" stroke="none" stroke-width="1"/><g id="elFI2iWvjAw47" opacity="0"><path id="elFI2iWvjAw48" d="M323,121L323,98L326,98L327,121L323,121Z" fill="rgb(235,235,235)" stroke="none" stroke-width="1"/><path id="elFI2iWvjAw49" d="M323,113L323,92L347,101.947L323,113Z" fill="rgb(68,64,255)" stroke="none" stroke-width="1"/><path id="elFI2iWvjAw50" d="M331.585,102.397C331.755,102.117,331.953,101.838,332.178,101.558C332.404,101.279,332.63,101,332.856,100.72C333.092,100.441,333.308,100.161,333.506,99.8817C333.713,99.6022,333.873,99.3227,333.986,99.0433C333.685,99.01,333.365,99,333.026,99.0133C332.687,99.0266,332.367,99.0266,332.066,99.0133C331.868,99.2129,331.689,99.4125,331.529,99.6122C331.378,99.8118,331.228,100.011,331.077,100.211C330.936,100.411,330.785,100.607,330.625,100.8C330.465,100.993,330.286,101.179,330.089,101.359C330.07,101.372,330.051,101.389,330.032,101.409C330.023,101.422,330.018,101.425,330.018,101.419C329.999,101.039,329.995,100.64,330.004,100.221C330.013,99.8018,330.009,99.4026,329.99,99.0233C329.689,99.0233,329.373,99.02,329.044,99.0133C328.724,99,328.408,98.9967,328.098,99.0033C328.107,100.168,328.084,101.329,328.027,102.487C327.98,103.638,327.994,104.786,328.07,105.93C328.192,105.95,328.343,105.967,328.521,105.98C328.71,105.993,328.903,106,329.1,106C329.298,106,329.486,105.993,329.665,105.98C329.844,105.973,329.999,105.957,330.131,105.93C330.131,105.744,330.126,105.541,330.117,105.321C330.117,105.102,330.112,104.879,330.103,104.653C330.093,104.426,330.084,104.203,330.075,103.984C330.075,103.758,330.079,103.548,330.089,103.355C330.239,103.541,330.39,103.751,330.541,103.984C330.691,104.217,330.842,104.453,330.992,104.692C331.152,104.932,331.317,105.165,331.487,105.391C331.656,105.611,331.84,105.8,332.037,105.96C332.339,105.967,332.663,105.977,333.012,105.99C333.369,106.003,333.699,105.987,334,105.94L331.585,102.397Z" fill="rgb(255,255,255)" stroke="none" stroke-width="1"/></g><g id="elFI2iWvjAw51" opacity="0"><path id="elFI2iWvjAw52" d="M286,179L286,156L289,156L290,179L286,179Z" fill="rgb(235,235,235)" stroke="none" stroke-width="1"/><path id="elFI2iWvjAw53" d="M286,171L286,150L310,159.947L286,171Z" fill="rgb(68,64,255)" stroke="none" stroke-width="1"/><path id="elFI2iWvjAw54" d="M294.585,160.397C294.755,160.117,294.953,159.838,295.178,159.558C295.404,159.279,295.63,159,295.856,158.72C296.092,158.441,296.308,158.161,296.506,157.882C296.713,157.602,296.873,157.323,296.986,157.043C296.685,157.01,296.365,157,296.026,157.013C295.687,157.027,295.367,157.027,295.066,157.013C294.868,157.213,294.689,157.413,294.529,157.612C294.378,157.812,294.228,158.011,294.077,158.211C293.936,158.411,293.785,158.607,293.625,158.8C293.465,158.993,293.286,159.179,293.089,159.359C293.07,159.372,293.051,159.389,293.032,159.409C293.023,159.422,293.018,159.425,293.018,159.419C292.999,159.039,292.995,158.64,293.004,158.221C293.013,157.802,293.009,157.403,292.99,157.023C292.689,157.023,292.373,157.02,292.044,157.013C291.724,157,291.408,156.997,291.098,157.003C291.107,158.168,291.084,159.329,291.027,160.487C290.98,161.638,290.994,162.786,291.07,163.93C291.192,163.95,291.343,163.967,291.521,163.98C291.71,163.993,291.903,164,292.1,164C292.298,164,292.486,163.993,292.665,163.98C292.844,163.973,292.999,163.957,293.131,163.93C293.131,163.744,293.126,163.541,293.117,163.321C293.117,163.102,293.112,162.879,293.103,162.653C293.093,162.426,293.084,162.203,293.075,161.984C293.075,161.758,293.079,161.548,293.089,161.355C293.239,161.541,293.39,161.751,293.541,161.984C293.691,162.217,293.842,162.453,293.992,162.692C294.152,162.932,294.317,163.165,294.487,163.391C294.656,163.611,294.84,163.8,295.037,163.96C295.339,163.967,295.663,163.977,296.012,163.99C296.369,164.003,296.699,163.987,297,163.94L294.585,160.397Z" fill="rgb(255,255,255)" stroke="none" stroke-width="1"/></g><g id="elFI2iWvjAw55" opacity="0"><path id="elFI2iWvjAw56" d="M211,122L211,99L214,99L215,122L211,122Z" fill="rgb(235,235,235)" stroke="none" stroke-width="1"/><path id="elFI2iWvjAw57" d="M211,114L211,93L235,102.947L211,114Z" fill="rgb(68,64,255)" stroke="none" stroke-width="1"/><path id="elFI2iWvjAw58" d="M219.585,103.397C219.755,103.117,219.953,102.838,220.178,102.558C220.404,102.279,220.63,102,220.856,101.72C221.092,101.441,221.308,101.161,221.506,100.882C221.713,100.602,221.873,100.323,221.986,100.043C221.685,100.01,221.365,100,221.026,100.013C220.687,100.027,220.367,100.027,220.066,100.013C219.868,100.213,219.689,100.413,219.529,100.612C219.378,100.812,219.228,101.011,219.077,101.211C218.936,101.411,218.785,101.607,218.625,101.8C218.465,101.993,218.286,102.179,218.089,102.359C218.07,102.372,218.051,102.389,218.032,102.409C218.023,102.422,218.018,102.425,218.018,102.419C217.999,102.039,217.995,101.64,218.004,101.221C218.013,100.802,218.009,100.403,217.99,100.023C217.689,100.023,217.373,100.02,217.044,100.013C216.724,100,216.408,99.9967,216.098,100.003C216.107,101.168,216.084,102.329,216.027,103.487C215.98,104.638,215.994,105.786,216.07,106.93C216.192,106.95,216.343,106.967,216.521,106.98C216.71,106.993,216.903,107,217.1,107C217.298,107,217.486,106.993,217.665,106.98C217.844,106.973,217.999,106.957,218.131,106.93C218.131,106.744,218.126,106.541,218.117,106.321C218.117,106.102,218.112,105.879,218.103,105.653C218.093,105.426,218.084,105.203,218.075,104.984C218.075,104.758,218.079,104.548,218.089,104.355C218.239,104.541,218.39,104.751,218.541,104.984C218.691,105.217,218.842,105.453,218.992,105.692C219.152,105.932,219.317,106.165,219.487,106.391C219.656,106.611,219.84,106.8,220.037,106.96C220.339,106.967,220.663,106.977,221.012,106.99C221.369,107.003,221.699,106.987,222,106.94L219.585,103.397Z" fill="rgb(255,255,255)" stroke="none" stroke-width="1"/></g><g id="elFI2iWvjAw59" opacity="0"><path id="elFI2iWvjAw60" d="M137,245L137,222L140,222L141,245L137,245Z" fill="rgb(235,235,235)" stroke="none" stroke-width="1"/><path id="elFI2iWvjAw61" d="M137,237L137,216L161,225.947L137,237Z" fill="rgb(68,64,255)" stroke="none" stroke-width="1"/><path id="elFI2iWvjAw62" d="M145.585,226.397C145.755,226.117,145.953,225.838,146.178,225.558C146.404,225.279,146.63,225,146.856,224.72C147.092,224.441,147.308,224.161,147.506,223.882C147.713,223.602,147.873,223.323,147.986,223.043C147.685,223.01,147.365,223,147.026,223.013C146.687,223.027,146.367,223.027,146.066,223.013C145.868,223.213,145.689,223.413,145.529,223.612C145.378,223.812,145.228,224.011,145.077,224.211C144.936,224.411,144.785,224.607,144.625,224.8C144.465,224.993,144.286,225.179,144.089,225.359C144.07,225.372,144.051,225.389,144.032,225.409C144.023,225.422,144.018,225.425,144.018,225.419C143.999,225.039,143.995,224.64,144.004,224.221C144.013,223.802,144.009,223.403,143.99,223.023C143.689,223.023,143.373,223.02,143.044,223.013C142.724,223,142.408,222.997,142.098,223.003C142.107,224.168,142.084,225.329,142.027,226.487C141.98,227.638,141.994,228.786,142.07,229.93C142.192,229.95,142.343,229.967,142.521,229.98C142.71,229.993,142.903,230,143.1,230C143.298,230,143.486,229.993,143.665,229.98C143.844,229.973,143.999,229.957,144.131,229.93C144.131,229.744,144.126,229.541,144.117,229.321C144.117,229.102,144.112,228.879,144.103,228.653C144.093,228.426,144.084,228.203,144.075,227.984C144.075,227.758,144.079,227.548,144.089,227.355C144.239,227.541,144.39,227.751,144.541,227.984C144.691,228.217,144.842,228.453,144.992,228.692C145.152,228.932,145.317,229.165,145.487,229.391C145.656,229.611,145.84,229.8,146.037,229.96C146.339,229.967,146.663,229.977,147.012,229.99C147.369,230.003,147.699,229.987,148,229.94L145.585,226.397Z" fill="rgb(255,255,255)" stroke="none" stroke-width="1"/></g><g id="elFI2iWvjAw63" opacity="0"><path id="elFI2iWvjAw64" d="M2,33L2,10L5,10L6,33L2,33Z" fill="rgb(235,235,235)" stroke="none" stroke-width="1"/><path id="elFI2iWvjAw65" d="M2,25L2,4L26,13.9474L2,25Z" fill="rgb(68,64,255)" stroke="none" stroke-width="1"/><path id="elFI2iWvjAw66" d="M10.5854,14.3969C10.7549,14.1174,10.9526,13.8379,11.1785,13.5585C11.4044,13.279,11.6303,12.9995,11.8563,12.7201C12.0916,12.4406,12.3081,12.1611,12.5058,11.8817C12.7129,11.6022,12.8729,11.3227,12.9859,11.0433C12.6846,11.01,12.3646,11,12.0257,11.0133C11.6868,11.0266,11.3668,11.0266,11.0655,11.0133C10.8678,11.2129,10.689,11.4125,10.529,11.6122C10.3783,11.8118,10.2277,12.0114,10.0771,12.211C9.93592,12.4106,9.7853,12.6069,9.62527,12.7999C9.46524,12.9929,9.28639,13.1792,9.0887,13.3588C9.06988,13.3721,9.05105,13.3888,9.03222,13.4087C9.02281,13.4221,9.0181,13.4254,9.0181,13.4187C8.99928,13.0394,8.99457,12.6402,9.00398,12.221C9.0134,11.8018,9.00869,11.4026,8.98986,11.0233C8.68863,11.0233,8.37328,11.02,8.04381,11.0133C7.72375,11,7.4084,10.9967,7.09776,11.0033C7.10717,12.1678,7.08364,13.3289,7.02715,14.4867C6.98009,15.6378,6.99421,16.7856,7.06951,17.9301C7.19189,17.9501,7.34251,17.9667,7.52136,17.98C7.70963,17.9933,7.90261,18,8.10029,18C8.29797,18,8.48624,17.9933,8.6651,17.98C8.84395,17.9734,8.99928,17.9567,9.13106,17.9301C9.13106,17.7438,9.12636,17.5409,9.11694,17.3213C9.11694,17.1017,9.11224,16.8788,9.10282,16.6526C9.09341,16.4263,9.084,16.2034,9.07458,15.9838C9.07458,15.7576,9.07929,15.548,9.0887,15.355C9.23932,15.5413,9.38993,15.751,9.54055,15.9838C9.69117,16.2167,9.84178,16.4529,9.9924,16.6925C10.1524,16.932,10.3172,17.1649,10.4866,17.3912C10.656,17.6107,10.8396,17.8004,11.0373,17.9601C11.3385,17.9667,11.6633,17.9767,12.0116,17.99C12.3693,18.0033,12.6988,17.9867,13,17.9401L10.5854,14.3969Z" fill="rgb(255,255,255)" stroke="none" stroke-width="1"/></g><g id="elFI2iWvjAw67" opacity="0"><path id="elFI2iWvjAw68" d="M2,33L2,10L5,10L6,33L2,33Z" transform="matrix(1 0 0 1 -7 238.014374)" fill="rgb(235,235,235)" stroke="none" stroke-width="1"/><path id="elFI2iWvjAw69" d="M-5,263L-5,242L19,251.947L-5,263Z" fill="rgb(68,64,255)" stroke="none" stroke-width="1"/><path id="elFI2iWvjAw70" d="M3.58545,252.397C3.75489,252.117,3.95257,251.838,4.17849,251.558C4.40442,251.279,4.63034,251,4.85626,250.72C5.0916,250.441,5.30811,250.161,5.50579,249.882C5.71289,249.602,5.87292,249.323,5.98588,249.043C5.68465,249.01,5.36459,249,5.02571,249.013C4.68682,249.027,4.36676,249.027,4.06553,249.013C3.86785,249.213,3.68899,249.413,3.52896,249.612C3.37835,249.812,3.22773,250.011,3.07712,250.211C2.93592,250.411,2.7853,250.607,2.62527,250.8C2.46524,250.993,2.28639,251.179,2.0887,251.359C2.06988,251.372,2.05105,251.389,2.03222,251.409C2.02281,251.422,2.0181,251.425,2.0181,251.419C1.99928,251.039,1.99457,250.64,2.00398,250.221C2.0134,249.802,2.00869,249.403,1.98986,249.023C1.68863,249.023,1.37328,249.02,1.04381,249.013C0.723751,249,0.4084,248.997,0.097755,249.003C0.107169,250.168,0.083635,251.329,0.027154,252.487C-0.019913,253.638,-0.005793,254.786,0.069515,255.93C0.19189,255.95,0.342505,255.967,0.521361,255.98C0.709631,255.993,0.902607,256,1.10029,256C1.29797,256,1.48624,255.993,1.6651,255.98C1.84395,255.973,1.99928,255.957,2.13106,255.93C2.13106,255.744,2.12636,255.541,2.11694,255.321C2.11694,255.102,2.11224,254.879,2.10282,254.653C2.09341,254.426,2.084,254.203,2.07458,253.984C2.07458,253.758,2.07929,253.548,2.0887,253.355C2.23932,253.541,2.38993,253.751,2.54055,253.984C2.69117,254.217,2.84178,254.453,2.9924,254.692C3.15243,254.932,3.31716,255.165,3.4866,255.391C3.65605,255.611,3.83961,255.8,4.03729,255.96C4.33852,255.967,4.66329,255.977,5.01159,255.99C5.3693,256.003,5.69877,255.987,6,255.94L3.58545,252.397Z" fill="rgb(255,255,255)" stroke="none" stroke-width="1"/></g></g></g><mask id="elFI2iWvjAw71" mask-type="alpha"><path id="elFI2iWvjAw72" d="M409.188,79.0006C409.591,79.7117,409.883,80.4969,410.012,81.3214C410.091,81.8259,410.235,82.3009,410.377,82.7709C410.716,83.8905,411.046,84.9812,410.469,86.3729C409.79,88.0175,408.356,88.8571,406.843,89.3503C400.833,91.3074,394.651,88.3899,388.683,85.5729C385.549,84.0936,382.473,82.6419,379.512,81.9386C375.789,81.0551,371.978,80.6845,368.188,80.3365C367.3,80.255,366.406,80.1792,365.509,80.1032C358.876,79.5411,352.045,78.9622,345.955,75.9173C342.413,74.1467,340.164,71.4151,337.907,68.6728C335.963,66.3118,334.012,63.9428,331.225,62.1727C325.26,58.3831,317.225,57.5758,309.595,56.8091C307.91,56.6398,306.245,56.4724,304.626,56.2754C287.975,54.2496,279.771,47.9091,268.932,36.8967C262.545,30.4095,256.691,24.6045,247.153,21.8798C244.78,21.2018,241.952,20.8365,239.017,20.4574C232.084,19.5617,224.556,18.5891,221.025,13.2336C217.7,8.19108,222.936,2.95798,229.079,1.29682C236.111,-0.605229,242.494,2.15211,248.229,4.62973C248.881,4.9111,249.524,5.18885,250.158,5.45577C251.342,5.95337,252.208,6.51466,253.021,7.04169C254.386,7.92635,255.602,8.71451,257.921,8.94299C261.374,9.28263,262.536,8.45666,263.906,7.48213C264.775,6.86354,265.729,6.18509,267.407,5.70691C274.923,3.56599,277.649,5.26026,281.555,7.68841C283.062,8.62508,284.745,9.67096,286.946,10.648C294.243,13.8871,297.612,11.7925,302.745,8.60099C303.678,8.02108,304.669,7.40496,305.752,6.77804C312.167,3.06539,324.165,0.262001,332.308,0.016912C351.673,-0.565551,367.391,14.0006,374.614,27.7695C377.24,32.7746,377.938,38.2593,378.626,43.6733C379.782,52.7601,380.913,61.6477,391.091,67.7341C393.212,69.0025,395.481,69.9368,397.705,70.8529C402.271,72.734,406.652,74.5382,409.188,79.0006ZM479.713,173.977C483.412,181.578,478.327,194.156,474.675,196.863C463.683,205.009,460.152,192.851,457.766,184.635C456.922,181.731,456.222,179.32,455.386,178.47C452.184,175.219,445.243,156.447,453.682,149.854C462.122,143.261,468.706,149.76,470.782,158.187C471.992,163.099,473.57,165.067,475.407,167.36C476.722,169,478.17,170.807,479.713,173.977ZM74.1566,355.293C71.5558,354.55,68.7991,353.762,65.7737,352.615C59.3296,350.17,56.9335,348.004,56.8605,344.765C56.7661,340.452,60.643,337.35,64.4041,338.627C64.8588,338.781,65.3139,338.937,65.7694,339.092C71.0154,340.885,76.3073,342.693,81.5223,342.942C85.5417,343.134,89.6425,342.271,93.674,341.422C97.072,340.707,100.421,340.002,103.63,339.948C107.907,339.876,112.86,342.226,117.956,344.643C125.942,348.432,134.279,352.386,140.911,347.444C141.988,346.642,143.289,346.269,144.587,346.384C148.591,346.737,152.67,349.86,156.598,352.868C159.424,355.031,162.171,357.135,164.757,358.105C167.305,359.063,170.372,359.566,173.465,360.074C178.923,360.969,184.464,361.879,187.39,365.319C195.701,375.089,182.105,375.201,171.897,375.285C168.274,375.315,165.077,375.341,163.439,375.794C158.689,377.108,154.932,379.393,151.537,381.456C144.318,385.846,138.74,389.237,128.734,380.174C126.898,378.511,125.473,376.91,124.158,375.434C120.631,371.473,117.903,368.41,110.187,367.443C106.946,367.037,104.519,366.988,102.492,366.948C97.7426,366.854,95.1882,366.803,89.5132,362.292C84.3844,358.215,79.6133,356.852,74.1566,355.293ZM27.3694,283.542C22.0045,281.227,16.5104,278.856,11.4092,275.081C-6.02719,262.177,-4.10251,233.175,21.5115,229.045C35.4202,226.801,48.689,221.736,36.3354,209.247C34.9328,207.829,33.5618,206.561,32.268,205.365C26.7327,200.246,22.609,196.432,23.4506,187.755C24.0706,181.357,26.4596,177.761,29.128,173.745C30.6246,171.493,32.2091,169.108,33.6187,166.022C36.9859,158.65,34.4418,154.124,31.51,148.908C30.2849,146.729,28.9922,144.429,28.0347,141.751C20.9417,121.906,43.5803,114.962,61.5164,109.46C64.0773,108.675,66.5422,107.919,68.811,107.159C77.8068,104.145,87.5406,98.7439,87.4138,89.3412C87.2925,80.2737,81.2752,74.5998,74.9869,68.6704C73.5837,67.3472,72.1669,66.0113,70.7991,64.6221C64.2987,58.0183,57.1919,49.2813,61.6049,40.7788C66.4963,31.352,74.0984,27.8436,85.0943,29.889C93.3277,31.4204,100.097,35.3276,106.934,39.2738C110.783,41.4952,114.653,43.7289,118.818,45.5581C121.454,46.7155,124.221,48.1946,127.074,49.72C134.288,53.5762,142.056,57.7286,149.665,57.7308C152.747,57.7308,155.206,56.9999,157.782,56.234C159.875,55.6119,162.046,54.9667,164.69,54.6717C169.872,54.0944,175.006,54.6442,180.004,55.1794C182.197,55.4143,184.364,55.6463,186.498,55.7792C194.239,56.2617,200.793,58.9393,207.296,61.5964C213.761,64.2376,220.176,66.8586,227.659,67.2832C235.443,67.7254,242.491,65.8683,249.605,63.9934C255.273,62.5001,260.982,60.9954,267.141,60.6325C280.404,59.8504,292.893,63.206,303.694,69.4376C308.228,72.054,312.205,75.5386,316.161,79.0056C320.548,82.8498,324.91,86.6723,329.981,89.2656C334.737,91.6988,341.719,93.4303,347.706,94.9151C349.001,95.2362,350.249,95.5456,351.418,95.8482C358.63,97.7141,366.249,98.9396,373.825,100.158C379.824,101.123,385.797,102.084,391.52,103.355C416.909,108.994,429.743,123.566,434.315,146.471C435.509,152.453,435.908,158.143,436.291,163.591C437.228,176.952,438.063,188.855,450.27,200.023C451.047,200.734,451.839,201.44,452.631,202.146C459.286,208.077,465.964,214.029,463.985,223.222C463.203,226.852,461.776,229.553,460.403,232.152C458.572,235.618,456.837,238.901,456.858,243.961C456.862,244.98,457.093,245.983,457.525,246.887C462.149,256.551,467.671,268.335,466.7,275.787C463.669,299.044,441.816,302.74,419.784,306.466C404.947,308.975,390.028,311.498,380.722,320.018C374.642,325.585,375.109,333.548,375.575,341.49C375.882,346.726,376.189,351.952,374.619,356.476C374.082,358.025,373.042,359.642,372.029,361.218C370.925,362.934,369.854,364.6,369.499,366.074C368.874,368.669,369.348,371.662,369.81,374.571C370.08,376.277,370.346,377.954,370.383,379.505C371.198,413.494,321.543,414.626,296.393,400.382C293.064,398.496,290.017,396.279,286.978,394.067C283.839,391.783,280.708,389.505,277.283,387.604C275.634,386.688,273.743,385.476,271.735,384.189C267.144,381.247,261.948,377.916,257.665,376.859C255.165,376.243,252.724,376.221,250.254,376.199C247.061,376.171,243.82,376.143,240.342,374.829C233.608,372.287,227.481,369.26,222.689,364.618C212.701,354.944,204.566,349.294,188.403,350.036C172.801,350.751,163.134,348.29,151.221,339.917C139.649,331.783,123.373,332.554,108.548,333.256C107.415,333.31,106.29,333.363,105.177,333.412C89.2872,334.109,78.4671,331.194,68.0729,321.87C63.2289,317.524,59.6238,312.445,55.9945,307.331C52.9125,302.989,49.813,298.622,45.9221,294.658C40.629,289.265,34.101,286.448,27.3694,283.542Z" clip-rule="evenodd" fill="rgb(233,241,242)" fill-rule="evenodd" stroke="none" stroke-width="1"/></mask></g></svg>